<svg xmlns="http://www.w3.org/2000/svg" width="32.888" height="35" viewBox="0 0 32.888 35">
  <path id="Path_297" data-name="Path 297" d="M-255.3-222h2.176a4.5,4.5,0,0,0,4.409,3.618A4.5,4.5,0,0,0-244.3-222h2.009a7.364,7.364,0,0,0,7.087-5.409l2.712-2.712a.833.833,0,0,0,0-1.178.833.833,0,0,0-1.178,0l-1.3,1.3a7.365,7.365,0,0,0-7.325-6.712h-2a4.5,4.5,0,0,0-4.416-3.664,4.5,4.5,0,0,0-4.416,3.664h-8.649a.833.833,0,0,0-.833.833.833.833,0,0,0,.833.833h8.649a4.5,4.5,0,0,0,4.416,3.663,4.5,4.5,0,0,0,4.416-3.663h2a5.7,5.7,0,0,1,5.638,4.96l-1.211-1.211a.833.833,0,0,0-1.178,0,.833.833,0,0,0,0,1.178l2.24,2.24a5.7,5.7,0,0,1-5.489,4.214h-1.995a4.5,4.5,0,0,0-4.423-3.708,4.5,4.5,0,0,0-4.423,3.708H-255.3a7.322,7.322,0,0,0-7.27,6.532l-1.148-1.148a.833.833,0,0,0-1.178,0,.833.833,0,0,0,0,1.178l2.506,2.506a7.32,7.32,0,0,0,7.091,5.557h2.169a4.5,4.5,0,0,0,4.416,3.663,4.5,4.5,0,0,0,4.416-3.663h8.527a.834.834,0,0,0,.833-.833.833.833,0,0,0-.833-.833H-244.3a4.5,4.5,0,0,0-4.416-3.663,4.5,4.5,0,0,0-4.416,3.663H-255.3a5.654,5.654,0,0,1-5.409-4.035l2.362-2.362a.833.833,0,0,0,0-1.178.833.833,0,0,0-1.178,0l-1.394,1.394A5.652,5.652,0,0,1-255.3-222Zm6.586-11.052a2.833,2.833,0,0,1-2.83-2.829,2.833,2.833,0,0,1,2.83-2.831,2.833,2.833,0,0,1,2.829,2.831A2.833,2.833,0,0,1-248.711-233.047Zm0,7.344a2.833,2.833,0,0,1,2.829,2.829,2.833,2.833,0,0,1-2.829,2.831,2.834,2.834,0,0,1-2.83-2.831A2.833,2.833,0,0,1-248.711-225.7Zm0,13a2.833,2.833,0,0,1,2.829,2.83,2.833,2.833,0,0,1-2.829,2.829,2.833,2.833,0,0,1-2.83-2.829A2.833,2.833,0,0,1-248.711-212.7Z" transform="translate(265.138 240.374)"/>
</svg>
