<svg xmlns="http://www.w3.org/2000/svg" width="46.983" height="50" viewBox="0 0 46.983 50">
  <path id="Path_296" data-name="Path 296" d="M-251.079-214.118h3.109a6.434,6.434,0,0,0,6.3,5.169,6.434,6.434,0,0,0,6.3-5.169h2.87a10.521,10.521,0,0,0,10.125-7.727l3.875-3.874a1.19,1.19,0,0,0,0-1.683,1.19,1.19,0,0,0-1.683,0l-1.852,1.851A10.521,10.521,0,0,0-232.5-235.14h-2.86a6.43,6.43,0,0,0-6.308-5.234,6.431,6.431,0,0,0-6.309,5.234h-12.356a1.19,1.19,0,0,0-1.19,1.19,1.19,1.19,0,0,0,1.19,1.19h12.356a6.431,6.431,0,0,0,6.309,5.233,6.431,6.431,0,0,0,6.308-5.233h2.86a8.135,8.135,0,0,1,8.055,7.086l-1.729-1.729a1.19,1.19,0,0,0-1.683,0,1.19,1.19,0,0,0,0,1.683l3.2,3.2a8.137,8.137,0,0,1-7.842,6.02h-2.85a6.429,6.429,0,0,0-6.318-5.3,6.43,6.43,0,0,0-6.319,5.3h-3.089a10.461,10.461,0,0,0-10.386,9.331l-1.64-1.64a1.19,1.19,0,0,0-1.683,0,1.19,1.19,0,0,0,0,1.683l3.579,3.58a10.457,10.457,0,0,0,10.13,7.939h3.1a6.431,6.431,0,0,0,6.309,5.233,6.431,6.431,0,0,0,6.308-5.233h12.181a1.191,1.191,0,0,0,1.19-1.19,1.19,1.19,0,0,0-1.19-1.19h-12.181a6.43,6.43,0,0,0-6.308-5.233,6.431,6.431,0,0,0-6.309,5.233h-3.1a8.078,8.078,0,0,1-7.727-5.764l3.375-3.374a1.19,1.19,0,0,0,0-1.683,1.19,1.19,0,0,0-1.683,0l-1.991,1.991A8.074,8.074,0,0,1-251.079-214.118Zm9.408-15.789a4.047,4.047,0,0,1-4.043-4.042,4.047,4.047,0,0,1,4.043-4.044,4.047,4.047,0,0,1,4.042,4.044A4.047,4.047,0,0,1-241.671-229.907Zm0,10.491a4.047,4.047,0,0,1,4.042,4.042,4.048,4.048,0,0,1-4.042,4.044,4.048,4.048,0,0,1-4.043-4.044A4.047,4.047,0,0,1-241.671-219.416Zm0,18.576a4.047,4.047,0,0,1,4.042,4.043,4.047,4.047,0,0,1-4.042,4.042,4.047,4.047,0,0,1-4.043-4.042A4.047,4.047,0,0,1-241.671-200.84Z" transform="translate(265.138 240.374)" fill="#fff"/>
</svg>
