<?xml version="1.0" encoding="utf-8"?>
<!-- Generator: Adobe Illustrator 23.1.0, SVG Export Plug-In . SVG Version: 6.00 Build 0)  -->
<svg version="1.1" id="Layer_1" xmlns="http://www.w3.org/2000/svg" xmlns:xlink="http://www.w3.org/1999/xlink" x="0px" y="0px"
	 viewBox="0 0 25 25" style="enable-background:new 0 0 25 25;" xml:space="preserve">
<style type="text/css">
	.st0{fill:#888B8D;}
</style>
<path class="st0" d="M21,24.7H4c-1.7,0-3-1.3-3-3v-16c0-1.7,1.3-3,3-3h17c1.7,0,3,1.3,3,3v16C24,23.4,22.7,24.7,21,24.7z M4,4.8
	c-0.6,0-1,0.4-1,1v16c0,0.6,0.4,1,1,1h17c0.6,0,1-0.4,1-1v-16c0-0.6-0.4-1-1-1H4z"/>
<path class="st0" d="M7.5,7.3c-0.6,0-1-0.4-1-1v-5c0-0.6,0.4-1,1-1s1,0.4,1,1v5C8.5,6.8,8.1,7.3,7.5,7.3z"/>
<path class="st0" d="M17.5,7.3c-0.6,0-1-0.4-1-1v-5c0-0.6,0.4-1,1-1s1,0.4,1,1v5C18.5,6.8,18.1,7.3,17.5,7.3z"/>
<rect x="2.5" y="9.8" class="st0" width="20" height="1"/>
<path class="st0" d="M7.5,14.2h-2c-0.6,0-1-0.4-1-1s0.4-1,1-1h2c0.6,0,1,0.4,1,1S8.1,14.2,7.5,14.2z"/>
<path class="st0" d="M7.5,17.2h-2c-0.6,0-1-0.4-1-1c0-0.6,0.4-1,1-1h2c0.6,0,1,0.4,1,1C8.5,16.8,8.1,17.2,7.5,17.2z"/>
<path class="st0" d="M7.5,20.2h-2c-0.6,0-1-0.4-1-1s0.4-1,1-1h2c0.6,0,1,0.4,1,1S8.1,20.2,7.5,20.2z"/>
<path class="st0" d="M13.2,14.2h-2c-0.6,0-1-0.4-1-1s0.4-1,1-1h2c0.6,0,1,0.4,1,1S13.8,14.2,13.2,14.2z"/>
<path class="st0" d="M13.2,17.2h-2c-0.6,0-1-0.4-1-1c0-0.6,0.4-1,1-1h2c0.6,0,1,0.4,1,1C14.2,16.8,13.8,17.2,13.2,17.2z"/>
<path class="st0" d="M13.2,20.2h-2c-0.6,0-1-0.4-1-1s0.4-1,1-1h2c0.6,0,1,0.4,1,1S13.8,20.2,13.2,20.2z"/>
<path class="st0" d="M19,14.2h-2c-0.6,0-1-0.4-1-1s0.4-1,1-1h2c0.6,0,1,0.4,1,1S19.5,14.2,19,14.2z"/>
<path class="st0" d="M19,17.2h-2c-0.6,0-1-0.4-1-1c0-0.6,0.4-1,1-1h2c0.6,0,1,0.4,1,1C20,16.8,19.5,17.2,19,17.2z"/>
<path class="st0" d="M19,20.2h-2c-0.6,0-1-0.4-1-1s0.4-1,1-1h2c0.6,0,1,0.4,1,1S19.5,20.2,19,20.2z"/>
</svg>
