<svg xmlns="http://www.w3.org/2000/svg" width="32.722" height="34" viewBox="0 0 32.722 34">
  <path id="Path_266" data-name="Path 266" d="M458.483,247.7a1.777,1.777,0,0,1-1.775-1.775v-6.163a1.777,1.777,0,0,1,1.775-1.775h2.059v-6.519a.385.385,0,0,0-.383-.383h-9.075v6.9h2.059a1.777,1.777,0,0,1,1.775,1.775v6.163a1.777,1.777,0,0,1-1.775,1.775h-6.164a1.777,1.777,0,0,1-1.775-1.775v-6.163a1.777,1.777,0,0,1,1.775-1.775h2.059v-6.9h-9.075a.385.385,0,0,0-.384.383v6.519h2.059a1.777,1.777,0,0,1,1.775,1.775v6.163a1.777,1.777,0,0,1-1.775,1.775h-6.164a1.777,1.777,0,0,1-1.775-1.775v-6.163a1.777,1.777,0,0,1,1.775-1.775h2.059v-7.172a1.777,1.777,0,0,1,1.775-1.775h9.728v-5.624h-2.059a1.777,1.777,0,0,1-1.775-1.775v-6.163a1.777,1.777,0,0,1,1.775-1.775h6.164a1.777,1.777,0,0,1,1.775,1.775v6.163a1.777,1.777,0,0,1-1.775,1.775h-2.059v5.624h9.728a1.777,1.777,0,0,1,1.775,1.775v7.172h2.059a1.777,1.777,0,0,1,1.775,1.775v6.163a1.777,1.777,0,0,1-1.775,1.775Zm.651-7.669a.382.382,0,0,0-.381.381v4.862a.382.382,0,0,0,.381.381H464a.382.382,0,0,0,.381-.381v-4.862a.382.382,0,0,0-.381-.381Zm-11.493,0a.392.392,0,0,0-.391.391v4.842a.391.391,0,0,0,.391.391h4.842a.392.392,0,0,0,.391-.391v-4.842a.393.393,0,0,0-.391-.391Zm-11.517,0a.379.379,0,0,0-.378.378v4.867a.379.379,0,0,0,.378.378h4.867a.379.379,0,0,0,.378-.378v-4.867a.379.379,0,0,0-.378-.378Zm11.508-24.286a.382.382,0,0,0-.382.382v4.86a.382.382,0,0,0,.382.382h4.86a.382.382,0,0,0,.382-.382v-4.86a.382.382,0,0,0-.382-.382Z" transform="translate(-433.7 -213.7)" fill="#fff"/>
</svg>
