<?xml version="1.0" encoding="utf-8"?>
<!-- Generator: Adobe Illustrator 24.0.2, SVG Export Plug-In . SVG Version: 6.00 Build 0)  -->
<svg version="1.1" id="Layer_1" xmlns="http://www.w3.org/2000/svg" xmlns:xlink="http://www.w3.org/1999/xlink" x="0px" y="0px"
	 viewBox="0 0 45 45" style="enable-background:new 0 0 45 45;" xml:space="preserve">
<style type="text/css">
	.st0{fill:#1D75BC;}
	.st1{fill:#FFFFFF;}
</style>
<path id="Rectangle_653" class="st0" d="M6,0h33c3.3,0,6,2.7,6,6v33c0,3.3-2.7,6-6,6H6c-3.3,0-6-2.7-6-6V6C0,2.7,2.7,0,6,0z"/>
<path class="st1" d="M19.1,29.5c-0.3,0-0.5-0.1-0.7-0.3l-5.6-5.9c-0.4-0.4-0.4-1,0-1.4c0.4-0.4,1-0.4,1.4,0l4.9,5.1l11.7-12.2
	c0.4-0.4,1-0.4,1.4,0c0.4,0.4,0.4,1,0,1.4l-12.4,13C19.7,29.4,19.4,29.5,19.1,29.5z"/>
</svg>
