<?xml version="1.0" encoding="utf-8"?>
<!-- Generator: Adobe Illustrator 23.1.0, SVG Export Plug-In . SVG Version: 6.00 Build 0)  -->
<svg version="1.1" id="Layer_1" xmlns="http://www.w3.org/2000/svg" xmlns:xlink="http://www.w3.org/1999/xlink" x="0px" y="0px"
	 viewBox="0 0 45 45" style="enable-background:new 0 0 45 45;" xml:space="preserve">
<style type="text/css">
	.st0{fill:#F37820;}
	.st1{fill:#FFFFFF;}
</style>
<path id="Path_228" class="st0" d="M22.5,0C34.9,0,45,10.1,45,22.5S34.9,45,22.5,45S0,34.9,0,22.5S10.1,0,22.5,0z"/>
<g id="Group_606" transform="translate(10.893 10.975)">
	<path class="st1" d="M5.5,19.8c-0.5,0-0.9-0.2-1.3-0.5c-0.7-0.7-0.8-1.9-0.1-2.7L16.4,3.8c0.7-0.7,1.9-0.8,2.7-0.1
		c0.7,0.7,0.8,1.9,0.1,2.7L6.8,19.2C6.5,19.6,6,19.8,5.5,19.8z"/>
	<path class="st1" d="M18,19.5c-0.5,0-0.9-0.2-1.3-0.5L3.9,6.7C3.2,6,3.2,4.8,3.9,4.1C4.6,3.3,5.8,3.3,6.5,4l12.8,12.3
		c0.7,0.7,0.8,1.9,0.1,2.7C19,19.3,18.5,19.5,18,19.5z"/>
</g>
</svg>
