<?xml version="1.0" encoding="utf-8"?>
<!-- Generator: Adobe Illustrator 23.1.0, SVG Export Plug-In . SVG Version: 6.00 Build 0)  -->
<svg version="1.1" id="Layer_1" xmlns="http://www.w3.org/2000/svg" xmlns:xlink="http://www.w3.org/1999/xlink" x="0px" y="0px"
	 viewBox="0 0 45 45" style="enable-background:new 0 0 45 45;" xml:space="preserve">
<style type="text/css">
	.st0{fill:#F5AC25;}
	.st1{fill:#FFFFFF;}
</style>
<g>
	<path id="Path_229" class="st0" d="M22.5,0C34.9,0,45,10.1,45,22.5S34.9,45,22.5,45S0,34.9,0,22.5S10.1,0,22.5,0z"/>
	<g id="Group_617" transform="translate(14.935 10.378)">
		<path class="st1" d="M7.5,13.4c-1,0-1.9-0.8-1.9-1.9V5.2c0-1,0.8-1.9,1.9-1.9s1.9,0.8,1.9,1.9v6.4C9.3,12.6,8.5,13.4,7.5,13.4z"/>
		<path class="st1" d="M7.5,19.8c-1,0-1.9-0.8-1.9-1.9s0.8-1.9,1.9-1.9h0c1,0,1.9,0.8,1.9,1.9S8.5,19.8,7.5,19.8z"/>
	</g>
</g>
</svg>
