<?xml version="1.0" encoding="utf-8"?>
<!-- Generator: Adobe Illustrator 24.0.2, SVG Export Plug-In . SVG Version: 6.00 Build 0)  -->
<svg version="1.1" id="Layer_1" xmlns="http://www.w3.org/2000/svg" xmlns:xlink="http://www.w3.org/1999/xlink" x="0px" y="0px"
	 viewBox="0 0 30 30" style="enable-background:new 0 0 30 30;" xml:space="preserve">
<style type="text/css">
	.st0{fill:#FFFFFF;}
</style>
<path class="st0" d="M22.1,18.8L18.3,15l3.9-3.8c0.1-0.2,0.2-0.3,0.2-0.5s-0.1-0.3-0.2-0.5l-2.3-2.3c-0.1-0.1-0.3-0.2-0.5-0.2
	S19,7.7,18.8,7.9L15,11.7l-3.8-3.9c-0.2-0.1-0.3-0.2-0.5-0.2s-0.3,0.1-0.5,0.2l-2.3,2.3c-0.1,0.1-0.2,0.3-0.2,0.5
	c0,0.2,0.1,0.4,0.2,0.5l3.9,3.8l-3.9,3.8c-0.1,0.2-0.2,0.3-0.2,0.5s0.1,0.3,0.2,0.5l2.3,2.3c0.1,0.1,0.3,0.2,0.5,0.2
	c0.2,0,0.4-0.1,0.5-0.2l3.8-3.9l3.8,3.9c0.2,0.1,0.3,0.2,0.5,0.2s0.3-0.1,0.5-0.2l2.3-2.3c0.1-0.1,0.2-0.3,0.2-0.5
	S22.2,19,22.1,18.8z M15,0.5c2.6,0,5,0.7,7.3,2c2.2,1.3,4,3.1,5.3,5.3s2,4.6,2,7.3s-0.7,5-2,7.3s-3.1,4-5.3,5.3s-4.6,2-7.3,2
	c-2.6,0-5-0.7-7.2-2s-4-3.1-5.3-5.3s-2-4.6-2-7.3s0.7-5,2-7.3s3.1-4,5.3-5.3C10,1.2,12.4,0.5,15,0.5z"/>
</svg>
