<?xml version="1.0" encoding="utf-8"?>
<!-- Generator: Adobe Illustrator 24.0.2, SVG Export Plug-In . SVG Version: 6.00 Build 0)  -->
<svg version="1.1" id="Layer_1" xmlns="http://www.w3.org/2000/svg" xmlns:xlink="http://www.w3.org/1999/xlink" x="0px" y="0px"
	 viewBox="0 0 40 40" style="enable-background:new 0 0 40 40;" xml:space="preserve">
<style type="text/css">
	.st0{fill:#FFFFFF;}
</style>
<path class="st0" d="M33,35.4c-0.5,0-1-0.2-1.4-0.6L5.5,8.7C4.8,8,4.8,6.7,5.5,6c0.8-0.8,2-0.8,2.8,0l26.1,26.1c0.8,0.8,0.8,2,0,2.8
	C34,35.2,33.5,35.4,33,35.4z"/>
<path class="st0" d="M6.9,35.4c-0.5,0-1-0.2-1.4-0.6c-0.8-0.8-0.8-2,0-2.8L31.6,6c0.8-0.8,2-0.8,2.8,0c0.8,0.8,0.8,2,0,2.8L8.3,34.8
	C7.9,35.2,7.4,35.4,6.9,35.4z"/>
</svg>
