<?xml version="1.0" encoding="utf-8"?>
<!-- Generator: Adobe Illustrator 24.0.2, SVG Export Plug-In . SVG Version: 6.00 Build 0)  -->
<svg version="1.1" id="Layer_1" xmlns="http://www.w3.org/2000/svg" xmlns:xlink="http://www.w3.org/1999/xlink" x="0px" y="0px"
	 viewBox="0 0 50 50" style="enable-background:new 0 0 50 50;" xml:space="preserve">
<style type="text/css">
	.st0{fill:#FFFFFF;}
</style>
<path id="Path_87" class="st0" d="M19.1,2.5c0.9,0,1.7,0.7,1.7,1.7v9.2c0,0.9-0.7,1.7-1.7,1.7h-15c-0.9,0-1.7-0.7-1.7-1.7V4.2
	c0-0.9,0.7-1.7,1.7-1.7H19.1 M19.1,0h-15C1.8,0,0,1.9,0,4.2v9.2c0,2.3,1.9,4.2,4.2,4.2h15c2.3,0,4.2-1.9,4.2-4.2V4.2
	C23.3,1.9,21.4,0,19.1,0z"/>
<path id="Path_88" class="st0" d="M45.8,35c0.9,0,1.7,0.7,1.7,1.7v9.2c0,0.9-0.7,1.7-1.7,1.7h-15c-0.9,0-1.7-0.7-1.7-1.7v-9.2
	c0-0.9,0.7-1.7,1.7-1.7H45.8 M45.8,32.5h-15c-2.3,0-4.2,1.9-4.2,4.2v9.2c0,2.3,1.9,4.2,4.2,4.2h15c2.3,0,4.2-1.9,4.2-4.2v-9.2
	C50,34.4,48.1,32.5,45.8,32.5z"/>
<path id="Path_89" class="st0" d="M19.1,23.3c0.9,0,1.7,0.7,1.7,1.7v20.8c0,0.9-0.7,1.7-1.7,1.7h-15c-0.9,0-1.7-0.7-1.7-1.7V25
	c0-0.9,0.7-1.7,1.7-1.7H19.1 M19.1,20.8h-15C1.8,20.8,0,22.7,0,25v20.8C0,48.1,1.8,50,4.1,50h15c2.3,0,4.2-1.9,4.2-4.2V25
	C23.3,22.7,21.4,20.8,19.1,20.8z"/>
<path id="Path_90" class="st0" d="M45.8,2.5c0.9,0,1.7,0.7,1.7,1.7V25c0,0.9-0.7,1.7-1.7,1.7h-15c-0.9,0-1.7-0.7-1.7-1.7V4.2
	c0-0.9,0.7-1.7,1.7-1.7H45.8 M45.8,0h-15c-2.3,0-4.2,1.9-4.2,4.2V25c0,2.3,1.9,4.2,4.2,4.2h15c2.3,0,4.2-1.9,4.2-4.2V4.2
	C50,1.9,48.1,0,45.8,0z"/>
</svg>
