<?xml version="1.0" encoding="utf-8"?>
<!-- Generator: Adobe Illustrator 24.0.2, SVG Export Plug-In . SVG Version: 6.00 Build 0)  -->
<svg version="1.1" id="Layer_1" xmlns="http://www.w3.org/2000/svg" xmlns:xlink="http://www.w3.org/1999/xlink" x="0px" y="0px"
	 viewBox="0 0 65 65" style="enable-background:new 0 0 65 65;" xml:space="preserve">
<style type="text/css">
	.st0{fill:#FFFFFF;}
</style>
<g id="Button-Download" transform="translate(-1634 -352)">
	<g id="download" transform="translate(1745 371)">
		<path class="st0" d="M-70.9,22.1h-14c-1.7,0-3-1.3-3-3v-4c0-0.6,0.4-1,1-1s1,0.4,1,1v4c0,0.6,0.4,1,1,1h14c0.6,0,1-0.4,1-1v-4
			c0-0.6,0.4-1,1-1s1,0.4,1,1v4C-67.9,20.8-69.3,22.1-70.9,22.1z"/>
		<path class="st0" d="M-77.9,16.1L-77.9,16.1c-0.3,0-0.5-0.1-0.7-0.3l-5-5c-0.4-0.4-0.4-1,0-1.4c0.4-0.4,1-0.4,1.4,0l4.3,4.3
			l4.3-4.3c0.4-0.4,1-0.4,1.4,0s0.4,1,0,1.4l-5,5C-77.4,16-77.7,16.1-77.9,16.1z"/>
		<path class="st0" d="M-77.9,16.1c-0.6,0-1-0.4-1-1v-12c0-0.6,0.4-1,1-1c0.6,0,1,0.4,1,1v12C-76.9,15.7-77.4,16.1-77.9,16.1z"/>
	</g>
</g>
</svg>
