<?xml version="1.0" encoding="utf-8"?>
<!-- Generator: Adobe Illustrator 24.0.2, SVG Export Plug-In . SVG Version: 6.00 Build 0)  -->
<svg version="1.1" id="Layer_1" xmlns="http://www.w3.org/2000/svg" xmlns:xlink="http://www.w3.org/1999/xlink" x="0px" y="0px"
	 viewBox="0 0 40 40" style="enable-background:new 0 0 40 40;" xml:space="preserve">
<style type="text/css">
	.st0{fill:#B3B3B3;}
</style>
<g id="edit" transform="translate(-1 -0.879)">
	<path class="st0" d="M31.8,40.9C31.8,40.9,31.8,40.9,31.8,40.9H6.4c-3,0-5.4-2.4-5.4-5.4V10.1c0-3,2.4-5.4,5.4-5.4h12.7
		c1,0,1.8,0.8,1.8,1.8s-0.8,1.8-1.8,1.8H6.4c-1,0-1.8,0.8-1.8,1.8v25.3c0,1,0.8,1.8,1.8,1.8h25.3h0c1,0,1.8-0.8,1.8-1.8V22.8
		c0-1,0.8-1.8,1.8-1.8s1.8,0.8,1.8,1.8v12.7C37.2,38.4,34.8,40.9,31.8,40.9z"/>
	<path class="st0" d="M13.7,30c-0.5,0-0.9-0.2-1.3-0.5c-0.5-0.5-0.6-1.1-0.5-1.7l1.8-7.2c0.1-0.3,0.2-0.6,0.5-0.8L31.4,2.5
		c0,0,0,0,0,0c2.3-2.2,5.8-2.1,8,0.2c2.1,2.2,2.1,5.6,0,7.8L22.2,27.7c-0.2,0.2-0.5,0.4-0.8,0.5L14.1,30C14,30,13.8,30,13.7,30z
		 M17.1,21.9l-1,3.8l3.8-0.9L36.8,7.9c0.7-0.8,0.7-2,0-2.8c-0.8-0.8-2-0.8-2.8-0.1L17.1,21.9z"/>
</g>
</svg>
