<?xml version="1.0" encoding="utf-8"?>
<!-- Generator: Adobe Illustrator 24.0.2, SVG Export Plug-In . SVG Version: 6.00 Build 0)  -->
<svg version="1.1" id="Layer_1" xmlns="http://www.w3.org/2000/svg" xmlns:xlink="http://www.w3.org/1999/xlink" x="0px" y="0px"
	 viewBox="0 0 60 60" style="enable-background:new 0 0 60 60;" xml:space="preserve">
<style type="text/css">
	.st0{fill:#333333;}
</style>
<g id="Group_456" transform="translate(431 19)">
	<path id="Path_125" class="st0" d="M-401.2-11.5c9.5,0,10.5,7.9,10.5,11.3c0,6.8-2.1,9.2-2.2,9.2c-0.5,0.5-0.5,1.3,0,1.8
		c0.5,0.5,1.3,0.5,1.8,0c0.3-0.3,2.9-3.1,2.9-11c0-8.6-5-13.9-13-13.9c-7.7,0-13,5.7-13,13.9c0,4.7,2.4,9,4.2,12.5
		c1.3,2.3,2.5,4.6,2.5,6c0,2.9-6.8,5.4-13.2,6.3c-5.3,0.8-5.3,9.3-5.3,9.7c0,0.7,0.6,1.3,1.3,1.3h0c0.7,0,1.3-0.6,1.3-1.3
		c0,0,0,0,0,0c0-1.7,0.6-6.8,3.1-7.2c2.6-0.4,15.4-2.5,15.4-8.8c0-2.1-1.3-4.5-2.8-7.2c-1.8-3.4-3.9-7.2-3.9-11.3
		C-411.7-5.6-408.4-11.5-401.2-11.5z"/>
	<path id="Path_126" class="st0" d="M-387.3,13.3c-6.3,0-11.3,5.1-11.3,11.3s5.1,11.3,11.3,11.3c6.3,0,11.3-5.1,11.3-11.3
		c0,0,0,0,0,0C-376,18.4-381.1,13.3-387.3,13.3z M-387.3,33.5c-4.9,0-8.8-3.9-8.8-8.8s3.9-8.8,8.8-8.8c4.9,0,8.8,3.9,8.8,8.8
		c0,0,0,0,0,0C-378.5,29.5-382.5,33.5-387.3,33.5z"/>
	<path id="Path_127" class="st0" d="M-383.6,20.8l-5,5l-1.6-1.6c-0.5-0.5-1.3-0.5-1.8,0c-0.5,0.5-0.5,1.3,0,1.8l2.5,2.5
		c0.5,0.5,1.3,0.5,1.8,0c0,0,0,0,0,0l5.9-5.9c0.5-0.5,0.5-1.3,0-1.8S-383.1,20.3-383.6,20.8L-383.6,20.8z"/>
</g>
</svg>
