<?xml version="1.0" encoding="utf-8"?>
<!-- Generator: Adobe Illustrator 24.0.2, SVG Export Plug-In . SVG Version: 6.00 Build 0)  -->
<svg version="1.1" id="Layer_1" xmlns="http://www.w3.org/2000/svg" xmlns:xlink="http://www.w3.org/1999/xlink" x="0px" y="0px"
	 viewBox="0 0 50 50" style="enable-background:new 0 0 50 50;" xml:space="preserve">
<style type="text/css">
	.st0{fill:#FFFFFF;}
</style>
<g id="Group_468" transform="translate(0)">
	<path id="Path_125" class="st0" d="M-247.8-393.4c9.5,0,10.5,7.9,10.5,11.3c0,6.8-2.1,9.2-2.2,9.2c-0.5,0.5-0.5,1.3,0,1.8
		c0.5,0.5,1.3,0.5,1.8,0c0.3-0.3,2.9-3.1,2.9-11c0-8.6-5-13.9-13-13.9c-7.7,0-13,5.7-13,13.9c0,4.7,2.4,9,4.2,12.5
		c1.3,2.3,2.5,4.6,2.5,6c0,2.9-6.8,5.4-13.2,6.3c-5.3,0.8-5.3,9.3-5.3,9.7c0,0.7,0.6,1.3,1.3,1.3h0c0.7,0,1.3-0.6,1.3-1.3
		c0,0,0,0,0,0c0-1.7,0.6-6.8,3.1-7.1c2.6-0.4,15.4-2.5,15.4-8.8c0-2.1-1.3-4.5-2.8-7.2c-1.8-3.4-3.9-7.2-3.9-11.3
		C-258.4-387.5-255.1-393.4-247.8-393.4z"/>
	<path id="Path_126" class="st0" d="M-234-368.6c-6.3,0-11.3,5.1-11.3,11.3c0,6.3,5.1,11.3,11.3,11.3s11.3-5.1,11.3-11.3
		c0,0,0,0,0,0C-222.6-363.6-227.7-368.6-234-368.6z M-234-348.5c-4.9,0-8.8-3.9-8.8-8.8c0-4.9,3.9-8.8,8.8-8.8
		c4.9,0,8.8,3.9,8.8,8.8c0,0,0,0,0,0C-225.2-352.4-229.1-348.5-234-348.5z"/>
	<path id="Path_127" class="st0" d="M-230.3-361.1l-5,5l-1.6-1.6c-0.5-0.5-1.3-0.5-1.8,0c-0.5,0.5-0.5,1.3,0,1.8l2.5,2.5
		c0.5,0.5,1.3,0.5,1.8,0c0,0,0,0,0,0l5.9-5.9c0.5-0.5,0.5-1.3,0-1.8S-229.8-361.6-230.3-361.1L-230.3-361.1z"/>
</g>
<g id="Group_468_1_" transform="translate(0)">
	<path id="Path_125_1_" class="st0" d="M24.8,3C34,3,35,10.7,35,14.1c0,6.7-2.1,9-2.1,9c-0.5,0.5-0.5,1.3,0,1.7
		c0.5,0.5,1.3,0.5,1.7,0c0.3-0.3,2.8-3.1,2.8-10.8c0-8.4-4.9-13.6-12.8-13.6C17.2,0.5,12,6.1,12,14.1c0,4.6,2.3,8.8,4.2,12.2
		c1.2,2.3,2.4,4.5,2.4,5.9c0,2.8-6.7,5.3-12.9,6.2c-5.2,0.7-5.2,9.1-5.2,9.5c0,0.7,0.6,1.2,1.2,1.2h0c0.7,0,1.2-0.6,1.2-1.2
		c0,0,0,0,0,0c0-1.7,0.5-6.6,3.1-7S21,38.4,21,32.2c0-2.1-1.3-4.4-2.7-7.1c-1.8-3.3-3.9-7.1-3.9-11C14.5,8.7,17.7,3,24.8,3z"/>
	<path id="Path_126_1_" class="st0" d="M38.3,27.3c-6.1,0-11.1,5-11.1,11.1c0,6.1,5,11.1,11.1,11.1c6.1,0,11.1-5,11.1-11.1
		c0,0,0,0,0,0C49.5,32.2,44.5,27.3,38.3,27.3z M38.3,47c-4.8,0-8.6-3.9-8.6-8.6c0-4.8,3.9-8.6,8.6-8.6c4.8,0,8.6,3.9,8.6,8.6
		c0,0,0,0,0,0C47,43.2,43.1,47,38.3,47z"/>
	<path id="Path_127_1_" class="st0" d="M42,34.6l-4.9,4.9l-1.6-1.6c-0.5-0.5-1.3-0.5-1.7,0c-0.5,0.5-0.5,1.3,0,1.7l2.5,2.5
		c0.5,0.5,1.3,0.5,1.7,0c0,0,0,0,0,0l5.8-5.8c0.5-0.5,0.5-1.3,0-1.7C43.3,34.1,42.5,34.1,42,34.6L42,34.6z"/>
</g>
</svg>
