<?xml version="1.0" encoding="utf-8"?>
<!-- Generator: Adobe Illustrator 23.1.0, SVG Export Plug-In . SVG Version: 6.00 Build 0)  -->
<svg version="1.1" id="Layer_1" xmlns="http://www.w3.org/2000/svg" xmlns:xlink="http://www.w3.org/1999/xlink" x="0px" y="0px"
	 viewBox="0 0 60 60" style="enable-background:new 0 0 60 60;" xml:space="preserve">
<style type="text/css">
	.st0{fill:#FFFFFF;}
	.st1{fill:none;}
</style>
<g id="Group_672" transform="translate(9727 16074)">
	<g id="Group_670" transform="translate(-9857 -15973.985)">
		<path id="Path_214" class="st0" d="M180.8-95h-41.7c-2.3,0-4.2,1.9-4.2,4.2v35c0,2.3,1.9,4.2,4.2,4.2h14.6c0.3,0,0.5,0.1,0.7,0.3
			l4.3,5.7c0.3,0.4,0.8,0.7,1.3,0.7c0.5,0,1-0.3,1.3-0.7l4.3-5.7c0.2-0.2,0.4-0.3,0.7-0.3h14.6c2.3,0,4.2-1.9,4.2-4.2v-35
			C185-93.2,183.1-95,180.8-95C180.8-95,180.8-95,180.8-95z M182.5-55.9c0,0.9-0.7,1.7-1.7,1.7h-14.6c-1,0-2,0.5-2.7,1.3l-3.6,4.7
			l-3.6-4.7c-0.6-0.8-1.6-1.3-2.7-1.3h-14.6c-0.9,0-1.7-0.7-1.7-1.7v-35c0-0.9,0.7-1.7,1.7-1.7h41.7c0.9,0,1.7,0.7,1.7,1.7
			L182.5-55.9z"/>
	</g>
	<g id="Ellipse_24" transform="translate(-9716 -16067)">
		<circle class="st1" cx="19" cy="19" r="14"/>
		<path class="st0" d="M19,33c-7.7,0-14-6.3-14-14S11.3,5,19,5s14,6.3,14,14S26.7,33,19,33z M19,7.5C12.7,7.5,7.5,12.7,7.5,19
			c0,6.3,5.2,11.5,11.5,11.5S30.5,25.3,30.5,19C30.5,12.7,25.3,7.5,19,7.5z"/>
	</g>
	<g id="Group_671" transform="translate(67.8 7)">
		<circle id="Ellipse_22" class="st0" cx="-9764.8" cy="-16059.8" r="1.3"/>
		<path class="st0" d="M-9764.7-16048.8c-0.7,0-1.3-0.6-1.3-1.3v-5c0-0.7,0.6-1.3,1.3-1.3s1.3,0.6,1.3,1.3v5
			C-9763.5-16049.3-9764-16048.8-9764.7-16048.8z"/>
	</g>
</g>
</svg>
