<?xml version="1.0" encoding="utf-8"?>
<!-- Generator: Adobe Illustrator 24.0.2, SVG Export Plug-In . SVG Version: 6.00 Build 0)  -->
<svg version="1.1" id="Layer_1" xmlns="http://www.w3.org/2000/svg" xmlns:xlink="http://www.w3.org/1999/xlink" x="0px" y="0px"
	 viewBox="0 0 30 30" style="enable-background:new 0 0 30 30;" xml:space="preserve">
<style type="text/css">
	.st0{fill:#333333;}
</style>
<path class="st0" d="M17.7,28.6c-0.2,0-0.4,0-0.6-0.1l-5.5-2.7c-0.5-0.2-0.8-0.7-0.8-1.2v-8.4L0.3,3.6C0,3.2-0.1,2.6,0.1,2.2
	c0.2-0.5,0.7-0.8,1.2-0.8h27.3c0.5,0,1,0.3,1.2,0.8s0.1,1-0.2,1.5L19.1,16.1v11.1c0,0.5-0.2,0.9-0.6,1.2
	C18.2,28.6,18,28.6,17.7,28.6z M13.6,23.7l2.7,1.4v-9.4c0-0.3,0.1-0.6,0.3-0.9l9-10.7H4.3l9,10.7c0.2,0.2,0.3,0.6,0.3,0.9V23.7z"/>
</svg>
