<?xml version="1.0" encoding="utf-8"?>
<!-- Generator: Adobe Illustrator 25.0.0, SVG Export Plug-In . SVG Version: 6.00 Build 0)  -->
<svg version="1.1" baseProfile="tiny" id="Layer_1" xmlns="http://www.w3.org/2000/svg" xmlns:xlink="http://www.w3.org/1999/xlink"
	 x="0px" y="0px" viewBox="0 0 28 28" overflow="visible" xml:space="preserve">
<g id="Group_816" transform="translate(-63.628 331.378)">
	<g id="Ellipse_24">
		<path id="Path_319" d="M77.6-329.4c6.6,0,12,5.4,12,12c0,6.6-5.4,12-12,12c-6.6,0-12-5.4-12-12C65.6-324,71-329.4,77.6-329.4
			 M77.6-331.4c-7.7,0-14,6.3-14,14s6.3,14,14,14s14-6.3,14-14S85.4-331.4,77.6-331.4z"/>
	</g>
	<path id="Path_320" d="M83.6-316.2h-6c-0.6,0-1-0.4-1-1v-8.9c0-0.6,0.4-1,1-1s1,0.4,1,1v7.9h5c0.6,0,1,0.4,1,1
		S84.1-316.2,83.6-316.2z"/>
</g>
</svg>
