<?xml version="1.0" encoding="utf-8"?>
<!-- Generator: Adobe Illustrator 23.1.0, SVG Export Plug-In . SVG Version: 6.00 Build 0)  -->
<svg version="1.1" id="Layer_1" xmlns="http://www.w3.org/2000/svg" xmlns:xlink="http://www.w3.org/1999/xlink" x="0px" y="0px"
	 viewBox="0 0 50 50" style="enable-background:new 0 0 50 50;" xml:space="preserve">
<style type="text/css">
	.st0{fill:#70BF44;}
	.st1{fill:#FFFFFF;}
</style>
<g id="Group_628-5" transform="translate(-286.241 511.759)">
	<path id="Rectangle_1088-5" class="st0" d="M292.2-511.8h38c3.3,0,6,2.7,6,6v38c0,3.3-2.7,6-6,6h-38c-3.3,0-6-2.7-6-6v-38
		C286.2-509.1,288.9-511.8,292.2-511.8z"/>
	<g id="Group_768" transform="translate(277.928 1315.408)">
		<path id="Path_254" class="st1" d="M39.2-1801.5c3.4,0,6.2,2.8,6.2,6.2c0,3.4-2.8,6.2-6.2,6.2c-3.4,0-6.2-2.8-6.2-6.2
			C33-1798.7,35.8-1801.5,39.2-1801.5 M39.2-1803.5c-4.5,0-8.2,3.7-8.2,8.2c0,4.5,3.7,8.2,8.2,8.2c0,0,0,0,0,0
			c4.5,0,8.2-3.7,8.2-8.2C47.4-1799.8,43.8-1803.5,39.2-1803.5C39.2-1803.5,39.2-1803.5,39.2-1803.5z"/>
		<path id="Path_255" class="st1" d="M38.3-1792.2c-0.3,0-0.5-0.1-0.7-0.3l-1.8-1.8c-0.4-0.4-0.4-1,0-1.4c0.4-0.4,1-0.4,1.4,0
			l1.1,1.1l3.6-3.6c0.4-0.4,1-0.4,1.4,0c0.4,0.4,0.4,1,0,1.4l-4.3,4.3C38.8-1792.3,38.6-1792.2,38.3-1792.2z"/>
		<path id="Path_256" class="st1" d="M29.9-1799.1c-0.2-0.5-0.7-0.8-1.2-0.7c-0.7,0.2-1.3,0.5-1.9,0.9l-4.2,3.4
			c-0.1,0.1-0.3,0.2-0.5,0.2c-0.5,0-0.9-0.4-0.9-0.8c0,0,0,0,0,0v-18.1c0-0.5,0.4-0.9,0.9-0.9c0,0,0,0,0,0h21.3
			c0.5,0,0.9,0.4,0.9,0.9c0,0,0,0,0,0v9.7c0,0.5,0.4,1,1,1h0c0.5,0,1-0.5,1-1v-9.7c0-1.6-1.3-2.9-2.9-2.9c0,0,0,0,0,0H22.2
			c-1.6,0-2.9,1.3-2.9,2.9v18.1c0,1.6,1.3,2.9,2.9,2.9c0,0,0,0,0,0c0.7,0,1.3-0.2,1.8-0.6l4.2-3.4c0.3-0.2,0.7-0.4,1.1-0.4
			C29.8-1797.9,30.1-1798.5,29.9-1799.1C30-1799,30-1799.1,29.9-1799.1L29.9-1799.1z"/>
		<path id="Path_257" class="st1" d="M35.6-1810H25.5c-0.6,0-1-0.4-1-1c0-0.6,0.4-1,1-1h10.1c0.6,0,1,0.4,1,1
			C36.6-1810.4,36.2-1810,35.6-1810z"/>
		<path id="Path_258" class="st1" d="M35.6-1805.8H25.5c-0.6,0-1-0.4-1-1c0-0.6,0.4-1,1-1h10.1c0.6,0,1,0.4,1,1
			C36.6-1806.2,36.2-1805.8,35.6-1805.8z"/>
	</g>
</g>
</svg>
