<svg xmlns="http://www.w3.org/2000/svg" width="50" height="50" viewBox="0 0 50 50">
  <g id="Group_630" data-name="Group 630" transform="translate(-945 -1092)">
    <g id="Group_626" data-name="Group 626" transform="translate(569.759 157.759)">
      <rect id="Rectangle_1088" data-name="Rectangle 1088" width="50" height="50" rx="6" transform="translate(375.241 934.241)" fill="#6ebd44"/>
    </g>
    <g id="Group_787" data-name="Group 787" transform="translate(622.068 1474.228)">
      <path id="Path_277" data-name="Path 277" d="M353.932-371.228h-14a5,5,0,0,0-5,5v18a5,5,0,0,0,5,5h7.618a.991.991,0,0,0,.964-1.212l-.005-.02a.986.986,0,0,0-.963-.768h-7.614a3,3,0,0,1-3-3v-18a3,3,0,0,1,3-3h14a3,3,0,0,1,3,3v3.927a.989.989,0,0,0,.818.971l.02,0a.984.984,0,0,0,1.162-.971v-3.931A5,5,0,0,0,353.932-371.228Z" fill="#fff"/>
      <path id="Path_278" data-name="Path 278" d="M352.176-363.125H341.688a1,1,0,0,1-1-1,1,1,0,0,1,1-1h10.488a1,1,0,0,1,1,1A1,1,0,0,1,352.176-363.125Z" fill="#fff"/>
      <path id="Path_279" data-name="Path 279" d="M345.3-357.929h-3.611a1,1,0,0,1-1-1,1,1,0,0,1,1-1H345.3a1,1,0,0,1,1,1A1,1,0,0,1,345.3-357.929Z" fill="#fff"/>
      <path id="Path_280" data-name="Path 280" d="M345.3-352.507h-3.611a1,1,0,0,1-1-1,1,1,0,0,1,1-1H345.3a1,1,0,0,1,1,1A1,1,0,0,1,345.3-352.507Z" fill="#fff"/>
      <path id="Path_281" data-name="Path 281" d="M356.1-357.641a6.22,6.22,0,0,1,6.213,6.213,6.22,6.22,0,0,1-6.213,6.213,6.22,6.22,0,0,1-6.212-6.213,6.22,6.22,0,0,1,6.212-6.213m0-2a8.213,8.213,0,0,0-8.212,8.213,8.213,8.213,0,0,0,8.212,8.213,8.213,8.213,0,0,0,8.213-8.213,8.213,8.213,0,0,0-8.213-8.213Z" fill="#fff"/>
      <path id="Path_282" data-name="Path 282" d="M355.185-348.3a1,1,0,0,1-.707-.293l-1.825-1.825a1,1,0,0,1,0-1.414,1,1,0,0,1,1.414,0l1.118,1.118,3.551-3.551a1,1,0,0,1,1.414,0,1,1,0,0,1,0,1.414l-4.258,4.258A1,1,0,0,1,355.185-348.3Z" fill="#fff"/>
    </g>
  </g>
</svg>
