<?xml version="1.0" encoding="utf-8"?>
<!-- Generator: Adobe Illustrator 23.1.0, SVG Export Plug-In . SVG Version: 6.00 Build 0)  -->
<svg version="1.1" id="Layer_1" xmlns="http://www.w3.org/2000/svg" xmlns:xlink="http://www.w3.org/1999/xlink" x="0px" y="0px"
	 viewBox="0 0 50 50" style="enable-background:new 0 0 50 50;" xml:space="preserve">
<style type="text/css">
	.st0{fill:#F37820;}
	.st1{fill:#FFFFFF;}
</style>
<g id="Group_628" transform="translate(-375.241 -934.241)">
	<path id="Rectangle_1088" class="st0" d="M381.2,934.2h38c3.3,0,6,2.7,6,6v38c0,3.3-2.7,6-6,6h-38c-3.3,0-6-2.7-6-6v-38
		C375.2,936.9,377.9,934.2,381.2,934.2z"/>
	<g id="Group_770" transform="translate(60.594 1316.449)">
		<path id="Path_259" class="st1" d="M348.1-347.3l2.8-2.8c0.4-0.4,0.4-1,0-1.4c-0.4-0.4-1-0.4-1.4,0l-2.8,2.8l-2.8-2.8
			c-0.4-0.4-1-0.4-1.4,0c-0.4,0.4-0.4,1,0,1.4l2.8,2.8l-2.8,2.8c-0.4,0.4-0.4,1,0,1.4c0.2,0.2,0.4,0.3,0.7,0.3
			c0.3,0,0.5-0.1,0.7-0.3l2.8-2.8l2.8,2.8c0.2,0.2,0.4,0.3,0.7,0.3c0.3,0,0.5-0.1,0.7-0.3c0.4-0.4,0.4-1,0-1.4L348.1-347.3z"/>
		<g id="Ellipse_24">
			<path id="Path_260" class="st1" d="M338.8-345.2c-6.4-0.5-11.3-6-11.1-12.4c0.3-6.2,5.3-11.2,11.5-11.5
				c6.6-0.3,12.2,4.9,12.5,11.5c0,0.1,0,0.3,0,0.4c0,0.9-0.1,1.9-0.3,2.8c-0.1,0.5,0.2,1,0.7,1.2l0,0c0.5,0.1,1.1-0.2,1.2-0.7
				c0,0,0,0,0,0c0.5-2.2,0.5-4.5,0-6.7c-1.4-5.4-5.8-9.5-11.4-10.4c-7.6-1.2-14.8,4-16,11.6c-0.1,0.7-0.2,1.5-0.2,2.2
				c0,7.3,5.6,13.4,12.9,14c0.6,0,1-0.4,1.1-0.9c0,0,0-0.1,0-0.1l0,0C339.6-344.8,339.3-345.2,338.8-345.2z"/>
		</g>
		<g id="Gruppe_671">
			<circle id="Ellipse_22" class="st1" cx="339.7" cy="-362.4" r="1.4"/>
			<g id="Group_769">
				<path id="Path_261" class="st1" d="M339.8-350.7c-0.6,0-1-0.4-1-1v-5.5c0-0.6,0.4-1,1-1s1,0.4,1,1v5.5
					C340.8-351.2,340.3-350.7,339.8-350.7z"/>
			</g>
		</g>
	</g>
</g>
</svg>
