<?xml version="1.0" encoding="utf-8"?>
<!-- Generator: Adobe Illustrator 23.1.0, SVG Export Plug-In . SVG Version: 6.00 Build 0)  -->
<svg version="1.1" id="Layer_1" xmlns="http://www.w3.org/2000/svg" xmlns:xlink="http://www.w3.org/1999/xlink" x="0px" y="0px"
	 viewBox="0 0 50 50" style="enable-background:new 0 0 50 50;" xml:space="preserve">
<style type="text/css">
	.st0{fill:#70BF44;}
	.st1{fill:#FFFFFF;}
</style>
<g id="Group_628-3" transform="translate(-286.241 117.759)">
	<path id="Rectangle_1088-3" class="st0" d="M292.2-117.8h38c3.3,0,6,2.7,6,6v38c0,3.3-2.7,6-6,6h-38c-3.3,0-6-2.7-6-6v-38
		C286.2-115.1,288.9-117.8,292.2-117.8z"/>
	<g id="Group_762" transform="translate(227.241 1318.449)">
		<path id="Path_242" class="st1" d="M94.2-1421.2c0.5,0,0.9,0.4,0.9,0.9v13.5c0,0.5-0.4,0.9-0.9,0.9H80.6c-1.1,0-2.2,0.4-3.1,1.1
			l-4.2,3.4c-0.1,0.1-0.3,0.2-0.5,0.2c-0.5,0-0.9-0.4-0.9-0.9c0,0,0,0,0,0v-18.2c0-0.5,0.4-0.9,0.9-0.9L94.2-1421.2 M94.2-1423.2
			H72.9c-1.6,0-2.9,1.3-2.9,2.9c0,0,0,0,0,0v18.2c0,1.6,1.3,2.9,2.9,2.9c0,0,0,0,0,0c0.7,0,1.3-0.2,1.8-0.6l4.2-3.4
			c0.5-0.4,1.1-0.6,1.8-0.6h13.6c1.6,0,2.9-1.3,2.9-2.9v-13.5C97-1421.9,95.8-1423.2,94.2-1423.2L94.2-1423.2z"/>
		<path id="Path_243" class="st1" d="M86.3-1416H76.2c-0.6,0-1-0.4-1-1c0-0.6,0.4-1,1-1h10.1c0.6,0,1,0.4,1,1
			C87.3-1416.4,86.9-1416,86.3-1416z"/>
		<path id="Path_244" class="st1" d="M86.3-1411.8H76.2c-0.6,0-1-0.4-1-1c0-0.6,0.4-1,1-1h10.1c0.6,0,1,0.4,1,1
			C87.3-1412.2,86.9-1411.8,86.3-1411.8z"/>
	</g>
</g>
</svg>
