<?xml version="1.0" encoding="utf-8"?>
<!-- Generator: Adobe Illustrator 23.1.0, SVG Export Plug-In . SVG Version: 6.00 Build 0)  -->
<svg version="1.1" id="Layer_1" xmlns="http://www.w3.org/2000/svg" xmlns:xlink="http://www.w3.org/1999/xlink" x="0px" y="0px"
	 viewBox="0 0 50 50" style="enable-background:new 0 0 50 50;" xml:space="preserve">
<style type="text/css">
	.st0{fill:#F37921;}
	.st1{fill:#FFFFFF;}
</style>
<g id="Group_628-2" transform="translate(-286.241 -79.241)">
	<path id="Rectangle_1088-2" class="st0" d="M292.2,79.2h38c3.3,0,6,2.7,6,6v38c0,3.3-2.7,6-6,6h-38c-3.3,0-6-2.7-6-6v-38
		C286.2,81.9,288.9,79.2,292.2,79.2z"/>
	<g id="Group_753" transform="translate(332.731 1316.408)">
		<path id="Path_234" class="st1" d="M-10.3-1226.2h-21.3c-1.6,0-2.9,1.3-2.9,2.9c0,0,0,0,0,0v18.1c0,1.6,1.3,2.9,2.9,2.9
			c0,0,0,0,0,0c0.7,0,1.3-0.2,1.8-0.6l4.2-3.4c0.3-0.2,0.7-0.4,1.1-0.4c0.6-0.1,0.9-0.7,0.8-1.3c0,0,0,0,0-0.1l0,0
			c-0.2-0.5-0.7-0.8-1.2-0.7c-0.7,0.2-1.3,0.5-1.9,0.9l-4.2,3.4c-0.1,0.1-0.3,0.2-0.5,0.2c-0.5,0-0.9-0.4-0.9-0.8c0,0,0,0,0,0v-18.1
			c0-0.5,0.4-0.9,0.9-0.9c0,0,0,0,0,0h21.3c0.5,0,0.9,0.4,0.9,0.9c0,0,0,0,0,0v13.5c0,0.5-0.4,0.9-0.9,0.9l0,0
			c-0.5,0-0.8,0.4-0.8,0.8c0,0.2,0.1,0.4,0.3,0.6c0.1,0.1-0.1-0.1,0,0c0.2,0.2,0.4,0.3,0.7,0.3c1.4,0.3,2.7-1.2,2.7-2.7v-13.5
			C-7.5-1224.9-8.8-1226.2-10.3-1226.2C-10.3-1226.2-10.3-1226.2-10.3-1226.2z"/>
		<path id="Path_235" class="st1" d="M-8.4-1203.2l-7.2-7.2l0,0l0,0c0,0,0,0,0,0c-0.1-0.1-0.2-0.1-0.3-0.2l0,0c0,0-0.1,0-0.1,0
			l-6.6-2c-0.4-0.1-0.7,0-1,0.3c-0.3,0.3-0.4,0.6-0.3,1l2,6.6c0,0,0,0,0,0.1s0,0.1,0,0.1c0,0.1,0.1,0.2,0.2,0.3c0,0,0,0,0,0l7.2,7.2
			c0.6,0.6,1.3,0.9,2.1,0.9c0.8,0,1.6-0.3,2.1-0.9l1.9-1.9c0.6-0.6,0.9-1.3,0.9-2.1C-7.5-1201.9-7.8-1202.6-8.4-1203.2z
			 M-18.2-1209.2l-2.3,2.3l-1-3.3L-18.2-1209.2z M-16.3-1208.2l4.8,4.8l-3.3,3.3l-4.8-4.8L-16.3-1208.2z M-9.8-1200.4l-1.9,1.9
			c-0.4,0.4-1,0.4-1.4,0l-0.2-0.2l3.3-3.3l0.2,0.2c0.2,0.2,0.3,0.4,0.3,0.7C-9.5-1200.8-9.6-1200.5-9.8-1200.4L-9.8-1200.4z"/>
		<path id="Path_236" class="st1" d="M-18.2-1219h-10.1c-0.6,0-1-0.4-1-1c0-0.6,0.4-1,1-1h10.1c0.6,0,1,0.4,1,1
			C-17.2-1219.4-17.6-1219-18.2-1219z"/>
		<path id="Path_237" class="st1" d="M-18.2-1214.8h-10.1c-0.6,0-1-0.4-1-1c0-0.6,0.4-1,1-1h10.1c0.6,0,1,0.4,1,1
			C-17.2-1215.2-17.6-1214.8-18.2-1214.8z"/>
	</g>
</g>
</svg>
