<?xml version="1.0" encoding="utf-8"?>
<!-- Generator: Adobe Illustrator 23.1.0, SVG Export Plug-In . SVG Version: 6.00 Build 0)  -->
<svg version="1.1" id="Layer_1" xmlns="http://www.w3.org/2000/svg" xmlns:xlink="http://www.w3.org/1999/xlink" x="0px" y="0px"
	 viewBox="0 0 50 50" style="enable-background:new 0 0 50 50;" xml:space="preserve">
<style type="text/css">
	.st0{fill:#70BF44;}
	.st1{fill:#FFFFFF;}
</style>
<g id="Group_628-4" transform="translate(-286.241 314.759)">
	<path id="Rectangle_1088-4" class="st0" d="M292.2-314.8h38c3.3,0,6,2.7,6,6v38c0,3.3-2.7,6-6,6h-38c-3.3,0-6-2.7-6-6v-38
		C286.2-312.1,288.9-314.8,292.2-314.8z"/>
	<g id="Group_765" transform="translate(131.741 1316.449)">
		<g id="Ellipse_24">
			<path id="Path_248" class="st1" d="M178.6-1594.2c-6.4-0.5-11.3-6-11.1-12.4c0.3-6.2,5.3-11.2,11.5-11.5
				c6.6-0.3,12.2,4.9,12.5,11.5c0,0.2,0,0.3,0,0.5c0,0.9-0.1,1.9-0.3,2.8c-0.1,0.5,0.2,1,0.7,1.2l0,0c0.5,0.1,1.1-0.2,1.2-0.7
				c0,0,0,0,0,0c0.5-2.2,0.5-4.5,0-6.7c-1.4-5.4-5.8-9.5-11.4-10.4c-7.6-1.2-14.8,4-16,11.6c-0.1,0.7-0.2,1.5-0.2,2.2
				c0,7.3,5.6,13.4,12.9,14c0.6,0,1-0.4,1.1-0.9c0,0,0-0.1,0-0.1l0,0C179.5-1593.8,179.1-1594.2,178.6-1594.2z"/>
		</g>
		<g id="Gruppe_671">
			<circle id="Ellipse_22" class="st1" cx="179.6" cy="-1611.4" r="1.4"/>
			<g id="Group_764">
				<path id="Path_249" class="st1" d="M179.6-1599.7c-0.6,0-1-0.4-1-1v-5.5c0-0.6,0.4-1,1-1s1,0.4,1,1v5.5
					C180.6-1600.2,180.2-1599.7,179.6-1599.7z"/>
			</g>
		</g>
		<path id="Path_250" class="st1" d="M184.9-1591.2c-0.3,0-0.5-0.1-0.7-0.3l-3-3c-0.4-0.4-0.4-1,0-1.4c0.4-0.4,1-0.4,1.4,0l2.3,2.3
			l6.3-6.3c0.4-0.4,1-0.4,1.4,0c0.4,0.4,0.4,1,0,1.4l-7,7C185.4-1591.3,185.1-1591.2,184.9-1591.2z"/>
	</g>
</g>
</svg>
