<svg xmlns="http://www.w3.org/2000/svg" width="24.525" height="22.201" viewBox="0 0 24.525 22.201">
  <g id="Union_2" data-name="Union 2" transform="translate(-780.738 -11258.8)" fill="none">
    <path d="M788,11281a3,3,0,0,1-3-3v-6h-1.257a3,3,0,0,1-1.843-5.368l9.258-7.2a3,3,0,0,1,3.683,0l9.255,7.2a3,3,0,0,1-1.84,5.368H801v6a3,3,0,0,1-3,3Z" stroke="none"/>
    <path d="M 797.9988403320313 11279.0009765625 C 798.5508422851563 11279.0009765625 798.9998779296875 11278.5517578125 798.9998779296875 11278 L 798.9998779296875 11272.0009765625 L 798.9998779296875 11270.0009765625 L 800.9998779296875 11270.0009765625 L 802.2569580078125 11270.0009765625 C 802.9014892578125 11270.0009765625 803.1329956054688 11269.5283203125 803.20263671875 11269.3251953125 C 803.272216796875 11269.1220703125 803.3790893554688 11268.607421875 802.8690795898438 11268.2109375 L 793.6138305664063 11261.0107421875 C 793.3895263671875 11260.8369140625 793.1558837890625 11260.7998046875 792.9993896484375 11260.7998046875 C 792.8435668945313 11260.7998046875 792.6112060546875 11260.8359375 792.3866577148438 11261.01171875 L 783.12841796875 11268.2119140625 C 782.620849609375 11268.6064453125 782.7280883789063 11269.12109375 782.7977294921875 11269.32421875 C 782.8674926757813 11269.5283203125 783.099365234375 11270.0009765625 783.7439575195313 11270.0009765625 L 785.0010375976563 11270.0009765625 L 787.0010375976563 11270.0009765625 L 787.0010375976563 11272.0009765625 L 787.0010375976563 11278 C 787.0010375976563 11278.5517578125 787.4487915039063 11279.0009765625 787.9992065429688 11279.0009765625 L 797.9988403320313 11279.0009765625 M 797.9988403320313 11281.0009765625 L 787.9992065429688 11281.0009765625 C 786.343017578125 11281.0009765625 785.0010375976563 11279.65625 785.0010375976563 11278 L 785.0010375976563 11272.0009765625 L 783.7439575195313 11272.0009765625 C 780.8873291015625 11272.0009765625 779.6472778320313 11268.384765625 781.90087890625 11266.6328125 L 791.1588134765625 11259.4326171875 C 791.6995849609375 11259.0107421875 792.3493041992188 11258.7998046875 792.9993896484375 11258.7998046875 C 793.6494750976563 11258.7998046875 794.2999267578125 11259.0107421875 794.8421020507813 11259.4326171875 L 804.09716796875 11266.6328125 C 806.3536376953125 11268.384765625 805.1135864257813 11272.0009765625 802.2569580078125 11272.0009765625 L 800.9998779296875 11272.0009765625 L 800.9998779296875 11278 C 800.9998779296875 11279.65625 799.6578979492188 11281.0009765625 797.9988403320313 11281.0009765625 Z" stroke="none" fill="#fff"/>
  </g>
</svg>
