<svg xmlns="http://www.w3.org/2000/svg" width="50" height="50" viewBox="0 0 50 50">
  <g id="Group_630" data-name="Group 630" transform="translate(-945 -1092)">
    <g id="Group_626" data-name="Group 626" transform="translate(569.759 157.759)">
      <rect id="Rectangle_1088" data-name="Rectangle 1088" width="50" height="50" rx="6" transform="translate(375.241 934.241)" fill="#6ebd44"/>
    </g>
    <g id="Group_786" data-name="Group 786" transform="translate(665.877 1474.228)">
      <path id="Path_272" data-name="Path 272" d="M314.751-347.971a.972.972,0,0,0-.785.656,2.988,2.988,0,0,1-2.843,2.087h-14a3,3,0,0,1-3-3v-18a3,3,0,0,1,3-3h14a3,3,0,0,1,3,3v6.57a.988.988,0,0,0,.554.885l.02.01a.987.987,0,0,0,1.426-.885v-6.58a5,5,0,0,0-5-5h-14a5,5,0,0,0-5,5v18a5,5,0,0,0,5,5h14a5,5,0,0,0,4.759-3.472,1,1,0,0,0-1.111-1.274Z" fill="#fff"/>
      <path id="Path_273" data-name="Path 273" d="M309.367-363.125H298.879a1,1,0,0,1-1-1,1,1,0,0,1,1-1h10.488a1,1,0,0,1,1,1A1,1,0,0,1,309.367-363.125Z" fill="#fff"/>
      <path id="Path_274" data-name="Path 274" d="M302.49-357.929h-3.611a1,1,0,0,1-1-1,1,1,0,0,1,1-1h3.611a1,1,0,0,1,1,1A1,1,0,0,1,302.49-357.929Z" fill="#fff"/>
      <path id="Path_275" data-name="Path 275" d="M302.49-352.507h-3.611a1,1,0,0,1-1-1,1,1,0,0,1,1-1h3.611a1,1,0,0,1,1,1A1,1,0,0,1,302.49-352.507Z" fill="#fff"/>
      <path id="Path_276" data-name="Path 276" d="M306.845-357.924l11.192,4.375-11.192,4.565,2.153-4.47-2.153-4.47m0-2a2,2,0,0,0-1.468.641,2,2,0,0,0-.335,2.227l1.735,3.6-1.735,3.6a2,2,0,0,0,.345,2.237,2,2,0,0,0,1.458.63,2,2,0,0,0,.755-.148l11.191-4.565a2,2,0,0,0,1.245-1.866,2,2,0,0,0-1.272-1.849l-11.191-4.375a2.011,2.011,0,0,0-.728-.137Z" fill="#fff"/>
    </g>
  </g>
</svg>
