<?xml version="1.0" encoding="utf-8"?>
<!-- Generator: Adobe Illustrator 23.1.0, SVG Export Plug-In . SVG Version: 6.00 Build 0)  -->
<svg version="1.1" id="Layer_1" xmlns="http://www.w3.org/2000/svg" xmlns:xlink="http://www.w3.org/1999/xlink" x="0px" y="0px"
	 viewBox="0 0 50 50" style="enable-background:new 0 0 50 50;" xml:space="preserve">
<style type="text/css">
	.st0{fill:#F37921;}
	.st1{fill:#FFFFFF;}
</style>
<g id="Group_628" transform="translate(-286.241 -276.241)">
	<path id="Rectangle_1088" class="st0" d="M292.2,276.2h38c3.3,0,6,2.7,6,6v38c0,3.3-2.7,6-6,6h-38c-3.3,0-6-2.7-6-6v-38
		C286.2,278.9,288.9,276.2,292.2,276.2z"/>
	<path id="Path_233" class="st1" d="M323.8,289.2h-12.8c-0.7,0-1.3,0.1-1.9,0.4c-1.2,0.6-2.2,1.4-3,2.4c-0.3,0.3-0.5,0.7-0.7,1.1
		c0,0,0,0,0,0h-6.1c-1.7,0-3.1,1.4-3.1,3.1v6.4c0,1.6,1.2,2.9,2.8,3c0,0,0,0,0,0c0,0,0,0,0,0l-0.3,0.5c-0.6,1.1-0.3,2.5,0.6,3.4
		c0.5,0.4,1.2,0.5,1.8,0.4c0,0,0,0,0,0c0.2,0.5,0.6,0.9,1.1,1.1c0.5,0.3,1,0.3,1.5,0.3c0,0,0,0,0,0c0.2,0.5,0.6,0.9,1.1,1.1
		c0.5,0.3,1,0.3,1.5,0.3c0,0,0,0,0,0c0.3,0.6,0.8,1.1,1.4,1.3c1.2,0.4,2.5-0.2,3.2-1.3l0.4-0.8c0,0,0,0,0,0c0,0,0,0,0,0l3.3,1.9l0,0
		c0.4,0.2,0.8,0.3,1.3,0.3c0.9,0,1.8-0.5,2.2-1.3c0.2-0.3,0.3-0.7,0.3-1.1c0.8-0.1,1.6-0.5,2-1.3c0.2-0.3,0.3-0.7,0.3-1.1
		c0.1,0,0.3,0,0.4-0.1c0.7-0.2,1.2-0.6,1.6-1.2c0.2-0.4,0.4-0.9,0.3-1.3c0.6-0.2,1.1-0.5,1.5-1c0.8-1.3,0.4-2.9-0.8-3.7
		c-0.1,0-0.1-0.1-0.2-0.1l-0.6-0.4h0.6c1.7,0,3.1-1.4,3.1-3.1l0,0v-6.3C326.9,290.6,325.6,289.2,323.8,289.2
		C323.8,289.2,323.8,289.2,323.8,289.2z M305.2,293.7c0-0.1,0.1-0.2,0.1-0.2C305.3,293.5,305.2,293.6,305.2,293.7L305.2,293.7z
		 M298.4,302.5v-6.3c0-0.5,0.4-1,1-1l0,0h5.3c-0.2,0.7-0.5,1.4-0.8,2.2c-0.3,0.9-0.6,1.8-0.8,2.2c-0.5,0.8-0.5,1.7-0.2,2.5
		c0.3,0.6,0.8,1,1.5,1.1c0.2,0,0.5,0.1,0.7,0.1c1.7-0.1,3.2-1.1,4-2.6c0.3-0.5,0.5-1,0.7-1.5c0.3-0.7,0.6-1.3,1-1.9
		c0.1-0.2,0.4-0.3,0.6-0.4c0.4,0,0.8,0.1,1.1,0.3l10.8,6.2c0.3,0.1,0.4,0.4,0.5,0.7c0.1,0.3,0,0.6-0.1,0.8c-0.2,0.3-0.6,0.5-0.9,0.5
		c-0.2,0-0.4-0.1-0.5-0.1l-5.3-3.1c-0.1,0-0.2-0.1-0.2-0.1c-0.2,0-0.3,0.1-0.4,0.2c-0.1,0.1-0.1,0.3-0.1,0.4c0,0.1,0.1,0.3,0.2,0.3
		l5,2.9c0.2,0.1,0.4,0.4,0.5,0.7c0.1,0.3,0,0.6-0.1,0.8c-0.1,0.3-0.4,0.4-0.7,0.5c-0.1,0-0.2,0-0.3,0c-0.2,0-0.4-0.1-0.5-0.1l-5.2-3
		c-0.1,0-0.2-0.1-0.2-0.1c-0.2,0-0.3,0.1-0.4,0.2c-0.1,0.1-0.1,0.2-0.1,0.4c0,0.1,0.1,0.2,0.2,0.3l4.5,2.6c0.5,0.3,0.7,1,0.4,1.5
		c-0.2,0.3-0.6,0.5-0.9,0.5c-0.2,0-0.4-0.1-0.5-0.1l-4.8-2.7c-0.1,0-0.2-0.1-0.3-0.1c-0.2,0-0.3,0.1-0.4,0.2
		c-0.1,0.1-0.1,0.3-0.1,0.4c0,0.1,0.1,0.3,0.3,0.3l4.1,2.3c0.5,0.3,0.7,1,0.4,1.5c-0.2,0.3-0.6,0.5-0.9,0.5c-0.2,0-0.4-0.1-0.5-0.1
		l-3.5-2c0,0,0,0,0,0c0.3-1.1-0.2-2.2-1.2-2.8c-0.5-0.3-1-0.3-1.5-0.3c0,0,0,0,0,0c-0.2-0.5-0.6-0.9-1.1-1.1c-0.5-0.3-1-0.3-1.5-0.3
		c0,0,0,0,0,0c-0.2-0.5-0.6-0.9-1.1-1.1c-0.5-0.3-1-0.3-1.5-0.3c0,0,0,0,0,0c-0.2-0.5-0.6-0.9-1.1-1.1c-0.7-0.4-1.5-0.4-2.3-0.1h0
		h-1.4C298.8,303.5,298.4,303,298.4,302.5C298.4,302.5,298.4,302.5,298.4,302.5L298.4,302.5z M309.7,312.2c-0.2,0.3-0.5,0.5-0.9,0.5
		c-0.2,0-0.3,0-0.5-0.1c-0.5-0.3-0.7-0.9-0.4-1.4l1-1.8c0.2-0.3,0.5-0.5,0.9-0.5c0.2,0,0.3,0,0.5,0.1c0.2,0.1,0.4,0.3,0.5,0.6
		c0.1,0.3,0,0.5-0.1,0.8L309.7,312.2z M300,307l1-1.8c0.2-0.3,0.5-0.5,0.9-0.5c0.2,0,0.3,0,0.5,0.1c0.5,0.3,0.7,0.9,0.4,1.4l-1,1.8
		c-0.2,0.3-0.5,0.5-0.9,0.5c-0.2,0-0.3,0-0.5-0.1C299.9,308.1,299.7,307.5,300,307C300,307,300,307,300,307L300,307z M302.6,308.4
		l1-1.8c0.2-0.3,0.5-0.5,0.9-0.5c0.2,0,0.3,0,0.5,0.1c0.2,0.1,0.4,0.3,0.5,0.6c0.1,0.3,0,0.5-0.1,0.8l-1,1.8
		c-0.2,0.3-0.5,0.5-0.9,0.5c-0.2,0-0.3,0-0.5-0.1C302.5,309.5,302.4,308.9,302.6,308.4C302.6,308.4,302.6,308.4,302.6,308.4
		L302.6,308.4z M305.3,309.9l1-1.8c0.2-0.3,0.5-0.5,0.9-0.5c0.2,0,0.3,0,0.5,0.1c0.2,0.1,0.4,0.3,0.5,0.6c0.1,0.3,0,0.5-0.1,0.8
		l-0.9,1.8c-0.2,0.3-0.5,0.5-0.9,0.5c-0.2,0-0.3,0-0.5-0.1C305.2,311,305,310.3,305.3,309.9C305.3,309.9,305.3,309.9,305.3,309.9
		L305.3,309.9z M324.8,298.7c0,0.5-0.4,1-1,1l0,0h-5.3c0,0,0,0,0,0l-7.4-4.2c-0.2-0.1-0.4-0.2-0.7-0.2c-0.1,0-0.2,0-0.3,0
		c-1.2,0.3-1.8,1.8-2.4,3.2c-0.2,0.4-0.4,0.8-0.6,1.2c-0.3,0.4-1.3,1.8-2.5,1.6c0-0.2,0.1-0.5,0.2-0.7c0.3-0.8,0.6-1.6,0.9-2.5
		c0.5-1.7,1.1-3.3,1.9-4.8c0.6-0.7,1.3-1.3,2.2-1.7c0.4-0.1,0.8-0.2,1.1-0.2h12.8c0.5,0,1,0.4,1,1l0,0L324.8,298.7z"/>
</g>
</svg>
