<?xml version="1.0" encoding="utf-8"?>
<!-- Generator: Adobe Illustrator 25.0.0, SVG Export Plug-In . SVG Version: 6.00 Build 0)  -->
<svg version="1.1" baseProfile="tiny" id="Layer_1" xmlns="http://www.w3.org/2000/svg" xmlns:xlink="http://www.w3.org/1999/xlink"
	 x="0px" y="0px" viewBox="0 0 28 28" overflow="visible" xml:space="preserve">
<g id="Group_815" transform="translate(-17.391 331.378)">
	<g id="Ellipse_24">
		<path id="Path_317" fill="#359942" d="M31.4-329.4c6.6,0,12,5.4,12,12c0,6.6-5.4,12-12,12c-6.6,0-12-5.4-12-12
			C19.4-324,24.8-329.4,31.4-329.4 M31.4-331.4c-7.7,0-14,6.3-14,14s6.3,14,14,14s14-6.3,14-14S39.1-331.4,31.4-331.4z"/>
	</g>
	<path id="Path_318" fill="#359942" d="M29.4-312.7c-0.3,0-0.5-0.1-0.7-0.3l-3-3c-0.4-0.4-0.4-1,0-1.4c0.4-0.4,1-0.4,1.4,0l2.3,2.3
		l6.3-6.3c0.4-0.4,1-0.4,1.4,0c0.4,0.4,0.4,1,0,1.4l-7,7C29.9-312.8,29.7-312.7,29.4-312.7z"/>
</g>
</svg>
