<?xml version="1.0" encoding="utf-8"?>
<!-- Generator: Adobe Illustrator 24.0.2, SVG Export Plug-In . SVG Version: 6.00 Build 0)  -->
<svg version="1.1" id="Layer_1" xmlns="http://www.w3.org/2000/svg" xmlns:xlink="http://www.w3.org/1999/xlink" x="0px" y="0px"
	 viewBox="0 0 21 21" style="enable-background:new 0 0 21 21;" xml:space="preserve">
<style type="text/css">
	.st0{fill:#333333;}
</style>
<g>
	<path class="st0" d="M10.5,15.5c-0.6,0-1-0.4-1-1v-4c0-0.6,0.4-1,1-1c0.6,0,1,0.4,1,1v4C11.5,15.1,11.1,15.5,10.5,15.5z"/>
	<circle class="st0" cx="10.5" cy="6.5" r="1"/>
</g>
<path class="st0" d="M10.5,0C4.7,0,0,4.7,0,10.5C0,16.3,4.7,21,10.5,21S21,16.3,21,10.5C21,4.7,16.3,0,10.5,0z M10.5,19
	C5.8,19,2,15.2,2,10.5C2,5.8,5.8,2,10.5,2S19,5.8,19,10.5C19,15.2,15.2,19,10.5,19z"/>
</svg>
