<?xml version="1.0" encoding="utf-8"?>
<!-- Generator: Adobe Illustrator 24.0.2, SVG Export Plug-In . SVG Version: 6.00 Build 0)  -->
<svg version="1.1" id="Layer_1" xmlns="http://www.w3.org/2000/svg" xmlns:xlink="http://www.w3.org/1999/xlink" x="0px" y="0px"
	 viewBox="0 0 65 65" style="enable-background:new 0 0 65 65;" xml:space="preserve">
<style type="text/css">
	.st0{fill:#FFFFFF;}
</style>
<g id="Button-Email" transform="translate(-1624 -352)">
	<g id="mail_1_" transform="translate(1825 373)">
		<path class="st0" d="M-176,21c-1.7,0-3-1.3-3-3V6c0-1.7,1.4-3,3-3l0,0h16c1.7,0,3,1.3,3,3v12c0,1.6-1.3,3-3,3H-176z M-176,5
			c-0.6,0-1,0.5-1,1v12c0,0.5,0.5,1,1,1h16c0.5,0,1-0.5,1-1V6c0-0.5-0.5-1-1-1H-176z"/>
		<path class="st0" d="M-168,14c-0.2,0-0.4-0.1-0.6-0.2l-10-7c-0.5-0.3-0.6-0.9-0.2-1.4c0.3-0.5,0.9-0.6,1.4-0.2l9.4,6.6l9.4-6.6
			c0.5-0.3,1.1-0.2,1.4,0.2c0.3,0.5,0.2,1.1-0.2,1.4l-10,7C-167.6,13.9-167.8,14-168,14z"/>
	</g>
</g>
</svg>
