<?xml version="1.0" encoding="utf-8"?>
<!-- Generator: Adobe Illustrator 24.0.2, SVG Export Plug-In . SVG Version: 6.00 Build 0)  -->
<svg version="1.1" id="Layer_1" xmlns="http://www.w3.org/2000/svg" xmlns:xlink="http://www.w3.org/1999/xlink" x="0px" y="0px"
	 viewBox="0 0 60 60" style="enable-background:new 0 0 60 60;" xml:space="preserve">
<style type="text/css">
	.st0{fill:#333333;}
</style>
<g id="Group_407" transform="translate(-38.419 -124.5)">
	<path id="Path_117" class="st0" d="M85.5,163.2c-0.7,0-1.2,0.6-1.2,1.3v11.3c0,0.7-0.6,1.2-1.2,1.3H52.2c-0.7,0-1.2-0.6-1.2-1.3
		v-42.5c0-0.7,0.6-1.2,1.2-1.3H83c0.7,0,1.2,0.6,1.2,1.3v5.3c0,0.7,0.6,1.3,1.3,1.3s1.3-0.6,1.3-1.3v-5.3c0-2.1-1.7-3.7-3.7-3.8
		H52.2c-2.1,0-3.7,1.7-3.7,3.8v42.5c0,2.1,1.7,3.7,3.7,3.8H83c2.1,0,3.7-1.7,3.7-3.8v-11.3C86.7,163.8,86.1,163.2,85.5,163.2z"/>
	<path id="Path_118" class="st0" d="M97.6,144l-4.7-4.7c-1.1-1.1-3-1.1-4.1,0l0,0L77,151.1l0,0c-0.1,0.1-0.2,0.2-0.2,0.3v0.1
		c0,0,0,0,0,0.1l-2.9,10c-0.2,0.7,0.2,1.4,0.8,1.6c0.2,0.1,0.5,0.1,0.7,0l10-2.9l0,0c0.1,0,0.1-0.1,0.2-0.1c0,0,0,0,0.1,0
		s0.2-0.1,0.2-0.2l11.8-11.8C98.7,147,98.7,145.2,97.6,144z M87.3,144.3l5.3,5.3l-7.7,7.7l-5.3-5.3L87.3,144.3z M76.8,160.2l1.7-5.8
		l4.1,4.1L76.8,160.2z M95.8,146.4l-1.5,1.5l-5.3-5.3l1.5-1.5c0.2-0.2,0.4-0.2,0.6,0l4.7,4.7C96,146,96,146.2,95.8,146.4z"/>
	<path id="Path_119" class="st0" d="M56.3,172h22.5c0.7,0,1.3-0.6,1.3-1.3s-0.6-1.3-1.3-1.3H56.3c-0.7,0-1.3,0.6-1.3,1.3
		S55.6,172,56.3,172z"/>
	<path id="Path_120" class="st0" d="M55.1,163.3c0,0.7,0.6,1.2,1.2,1.3l0,0h12.5c0.7,0,1.3-0.6,1.3-1.3s-0.6-1.3-1.3-1.3H56.3
		C55.6,162,55.1,162.6,55.1,163.3L55.1,163.3z"/>
	<path id="Path_121" class="st0" d="M54.7,154c0,0.7,0.6,1.2,1.2,1.3h5.4c0.7,0,1.2-0.6,1.2-1.3v-5.4c0-0.7-0.6-1.2-1.2-1.3h-5.4
		c-0.7,0-1.2,0.6-1.2,1.3V154z M57.2,149.9h2.9v2.9h-2.9V149.9z"/>
	<path id="Path_122" class="st0" d="M72.2,155.3c0.7,0,1.2-0.6,1.2-1.3v-5.4c0-0.7-0.6-1.2-1.2-1.3h-5.4c-0.7,0-1.2,0.6-1.2,1.3v5.4
		c0,0.7,0.6,1.2,1.2,1.3H72.2z M68,149.9h3v2.9h-3V149.9z"/>
	<path id="Path_123" class="st0" d="M61.3,136.6h-5.4c-0.7,0-1.2,0.6-1.2,1.3v5.4c0,0.7,0.6,1.2,1.2,1.3h5.4c0.7,0,1.2-0.6,1.2-1.3
		v-5.4C62.6,137.1,62,136.6,61.3,136.6z M60.1,142h-2.9v-2.9h2.9V142z"/>
	<path id="Path_124" class="st0" d="M72.2,136.6h-5.4c-0.7,0-1.2,0.6-1.2,1.3v5.4c0,0.7,0.6,1.2,1.2,1.3h5.4c0.7,0,1.2-0.6,1.2-1.3
		v-5.4C73.5,137.1,72.9,136.6,72.2,136.6z M71,142h-3v-2.9h3V142z"/>
</g>
</svg>
