<?xml version="1.0" encoding="utf-8"?>
<!-- Generator: Adobe Illustrator 24.0.2, SVG Export Plug-In . SVG Version: 6.00 Build 0)  -->
<svg version="1.1" id="Layer_1" xmlns="http://www.w3.org/2000/svg" xmlns:xlink="http://www.w3.org/1999/xlink" x="0px" y="0px"
	 viewBox="0 0 50 50" style="enable-background:new 0 0 50 50;" xml:space="preserve">
<style type="text/css">
	.st0{fill:#FFFFFF;}
</style>
<g id="Group_407" transform="translate(-38.419 -124.5)">
	<path id="Path_117" class="st0" d="M75.5,158.2c-0.7,0-1.2,0.6-1.2,1.3v11.3c0,0.7-0.6,1.2-1.2,1.3H42.2c-0.7,0-1.2-0.6-1.2-1.3
		v-42.5c0-0.7,0.6-1.2,1.2-1.3H73c0.7,0,1.2,0.6,1.2,1.3v5.3c0,0.7,0.6,1.3,1.3,1.3s1.3-0.6,1.3-1.3v-5.3c0-2.1-1.7-3.7-3.7-3.8
		H42.2c-2.1,0-3.7,1.7-3.7,3.8v42.5c0,2.1,1.7,3.7,3.7,3.8H73c2.1,0,3.7-1.7,3.7-3.8v-11.3C76.7,158.8,76.1,158.2,75.5,158.2z"/>
	<path id="Path_118" class="st0" d="M87.6,139l-4.7-4.7c-1.1-1.1-3-1.1-4.1,0c0,0,0,0,0,0L67,146.1c0,0,0,0,0,0
		c-0.1,0.1-0.2,0.2-0.2,0.3c0,0,0,0.1,0,0.1s0,0,0,0.1l-2.9,10c-0.2,0.7,0.2,1.4,0.8,1.6c0.2,0.1,0.5,0.1,0.7,0l10-2.9c0,0,0,0,0,0
		c0.1,0,0.1-0.1,0.2-0.1c0,0,0,0,0.1,0c0.1,0,0.2-0.1,0.2-0.2l11.8-11.8C88.7,142,88.7,140.2,87.6,139z M77.3,139.3l5.3,5.3
		l-7.7,7.7l-5.3-5.3L77.3,139.3z M66.8,155.2l1.7-5.8l4.1,4.1L66.8,155.2z M85.8,141.4l-1.5,1.5l-5.3-5.3l1.5-1.5
		c0.2-0.2,0.4-0.2,0.6,0l4.7,4.7C86,141,86,141.2,85.8,141.4z"/>
	<path id="Path_119" class="st0" d="M46.3,167h22.5c0.7,0,1.3-0.6,1.3-1.3s-0.6-1.3-1.3-1.3H46.3c-0.7,0-1.3,0.6-1.3,1.3
		S45.6,167,46.3,167z"/>
	<path id="Path_120" class="st0" d="M45.1,158.3c0,0.7,0.6,1.2,1.2,1.3c0,0,0,0,0,0h12.5c0.7,0,1.3-0.6,1.3-1.3s-0.6-1.3-1.3-1.3
		H46.3C45.6,157,45.1,157.6,45.1,158.3L45.1,158.3z"/>
	<path id="Path_121" class="st0" d="M44.7,149c0,0.7,0.6,1.2,1.2,1.3h5.4c0.7,0,1.2-0.6,1.2-1.3v-5.4c0-0.7-0.6-1.2-1.2-1.3h-5.4
		c-0.7,0-1.2,0.6-1.2,1.3V149z M47.2,144.9h2.9v2.9h-2.9L47.2,144.9z"/>
	<path id="Path_122" class="st0" d="M62.2,150.3c0.7,0,1.2-0.6,1.2-1.3v-5.4c0-0.7-0.6-1.2-1.2-1.3h-5.4c-0.7,0-1.2,0.6-1.2,1.3v5.4
		c0,0.7,0.6,1.2,1.2,1.3L62.2,150.3z M58,144.9H61v2.9H58V144.9z"/>
	<path id="Path_123" class="st0" d="M51.3,131.6h-5.4c-0.7,0-1.2,0.6-1.2,1.3v5.4c0,0.7,0.6,1.2,1.2,1.3h5.4c0.7,0,1.2-0.6,1.2-1.3
		v-5.4C52.6,132.1,52,131.6,51.3,131.6z M50.1,137h-2.9v-2.9h2.9L50.1,137z"/>
	<path id="Path_124" class="st0" d="M62.2,131.6h-5.4c-0.7,0-1.2,0.6-1.2,1.3v5.4c0,0.7,0.6,1.2,1.2,1.3h5.4c0.7,0,1.2-0.6,1.2-1.3
		v-5.4C63.5,132.1,62.9,131.6,62.2,131.6z M61,137H58v-2.9H61L61,137z"/>
</g>
</svg>
