<?xml version="1.0" encoding="utf-8"?>
<!-- Generator: Adobe Illustrator 25.2.1, SVG Export Plug-In . SVG Version: 6.00 Build 0)  -->
<svg version="1.1" id="Layer_1" xmlns="http://www.w3.org/2000/svg" xmlns:xlink="http://www.w3.org/1999/xlink" x="0px" y="0px"
	 viewBox="0 0 64 64" style="enable-background:new 0 0 64 64;" xml:space="preserve">
<g>
	<path d="M11.7,33.2c-0.7,0.6-0.7,1.7-0.1,2.3l3.4,3.4c0.6,0.6,1.6,0.6,2.2,0.1c1.7-1.4,3.5-2.6,5.4-3.5l10-10
		C25.2,25.4,17.7,28,11.7,33.2z"/>
	<circle cx="32" cy="48" r="6.4"/>
	<path d="M6.1,27.6C15.5,19,28.2,16,39.9,18.4l6.5-6.5c-15.5-5.1-33.3-1.7-45.9,10c-0.7,0.6-0.7,1.7,0,2.3l3.4,3.4
		C4.5,28.2,5.5,28.2,6.1,27.6z"/>
	<path d="M63.5,21.9c-2.8-2.6-5.9-4.8-9.1-6.6l-6,6c3.4,1.6,6.6,3.7,9.5,6.4c0.6,0.6,1.6,0.6,2.2,0l3.4-3.4
		C64.2,23.5,64.2,22.5,63.5,21.9z"/>
	<path d="M42.3,27.4l-6.5,6.5c3.9,0.7,7.7,2.4,10.9,5.1c0.6,0.6,1.6,0.5,2.2-0.1l3.4-3.4c0.7-0.6,0.6-1.7-0.1-2.3
		C49.3,30.6,45.9,28.6,42.3,27.4z"/>
	<path d="M7,60c-0.8,0-1.5-0.3-2.1-0.9c-1.2-1.2-1.2-3.1,0-4.2l50-50c1.2-1.2,3.1-1.2,4.2,0c1.2,1.2,1.2,3.1,0,4.2l-50,50
		C8.5,59.7,7.8,60,7,60z"/>
</g>
</svg>
