<?xml version="1.0" encoding="utf-8"?>
<!-- Generator: Adobe Illustrator 24.1.1, SVG Export Plug-In . SVG Version: 6.00 Build 0)  -->
<svg version="1.1" id="Layer_1" xmlns="http://www.w3.org/2000/svg" xmlns:xlink="http://www.w3.org/1999/xlink" x="0px" y="0px"
	 viewBox="0 0 60 60" style="enable-background:new 0 0 60 60;" xml:space="preserve">
<style type="text/css">
	.st0{fill:#FFFFFF;}
</style>
<g>
	<path class="st0" d="M40.77,49.97H18.95c-3.01,0-5.45-2.45-5.45-5.45V15.42c0-3.01,2.45-5.45,5.45-5.45h14.55
		c0.48,0,0.94,0.19,1.29,0.53l10.91,10.91c0.34,0.34,0.53,0.8,0.53,1.29v21.82C46.22,47.52,43.77,49.97,40.77,49.97z M18.95,13.6
		c-1,0-1.82,0.82-1.82,1.82v29.09c0,1,0.82,1.82,1.82,1.82h21.82c1,0,1.82-0.81,1.82-1.82V23.45l-9.84-9.84H18.95z"/>
	<path class="st0" d="M44.4,24.51H33.49c-1,0-1.82-0.81-1.82-1.82V11.79c0-1,0.81-1.82,1.82-1.82c1,0,1.82,0.81,1.82,1.82v9.09h9.09
		c1,0,1.82,0.81,1.82,1.82C46.22,23.7,45.41,24.51,44.4,24.51z"/>
	<path class="st0" d="M37.13,33.61H22.58c-1,0-1.82-0.81-1.82-1.82s0.81-1.82,1.82-1.82h14.55c1,0,1.82,0.81,1.82,1.82
		S38.13,33.61,37.13,33.61z"/>
	<path class="st0" d="M37.13,40.88H22.58c-1,0-1.82-0.81-1.82-1.82c0-1,0.81-1.82,1.82-1.82h14.55c1,0,1.82,0.81,1.82,1.82
		C38.95,40.06,38.13,40.88,37.13,40.88z"/>
	<path class="st0" d="M26.22,26.33h-3.64c-1,0-1.82-0.81-1.82-1.82s0.81-1.82,1.82-1.82h3.64c1,0,1.82,0.81,1.82,1.82
		S27.22,26.33,26.22,26.33z"/>
</g>
</svg>
