<?xml version="1.0" encoding="utf-8"?>
<!-- Generator: Adobe Illustrator 23.1.0, SVG Export Plug-In . SVG Version: 6.00 Build 0)  -->
<svg version="1.1" id="Layer_1" xmlns="http://www.w3.org/2000/svg" xmlns:xlink="http://www.w3.org/1999/xlink" x="0px" y="0px"
	 viewBox="0 0 60 60" style="enable-background:new 0 0 60 60;" xml:space="preserve">
<style type="text/css">
	.st0{fill:#333333;}
</style>
<path class="st0" d="M48.21,27.66c-2.31,0-4.19-1.89-4.19-4.2s1.88-4.2,4.19-4.2c2.31,0,4.19,1.89,4.19,4.2S50.52,27.66,48.21,27.66
	z M17.39,37.3c-5.05-0.4-8.38-5.38-9.92-8.31c-0.08-0.15-0.04-0.29-0.01-0.36c0.03-0.07,0.11-0.19,0.28-0.24l3.4-0.85
	c0.18-0.05,0.38,0.03,0.46,0.19c0.99,1.86,3.81,6.14,8.81,6.22v0.01c0.02,0,0.05,0,0.07,0c0.02,0,0.05,0,0.07,0v-0.01
	c5-0.08,7.83-4.37,8.81-6.22c0.08-0.16,0.27-0.24,0.46-0.19l3.4,0.85c0.18,0.04,0.25,0.17,0.29,0.24c0.03,0.07,0.07,0.21-0.01,0.36
	c-1.53,2.93-4.86,7.91-9.92,8.31c-1.07,0.08-1.91,1-1.91,2.09v2.14h-1.12h-0.14H19.3v-2.14C19.3,38.3,18.46,37.38,17.39,37.3z
	 M15.04,7.49c1.16,0,2.1,0.94,2.1,2.1s-0.94,2.1-2.1,2.1c-1.15,0-2.1-0.94-2.1-2.1S13.88,7.49,15.04,7.49z M26,11.69
	c-1.15,0-2.1-0.94-2.1-2.1s0.94-2.1,2.1-2.1s2.1,0.94,2.1,2.1S27.15,11.69,26,11.69z M54.91,23.46c0-3.71-3-6.72-6.7-6.72
	c-3.7,0-6.7,3.01-6.7,6.72c0,3.28,2.35,6.01,5.45,6.6v19.45c0,1.62-1.32,2.94-2.93,2.94H24.74c-1.62,0-2.93-1.32-2.93-2.94v-5.46
	h0.28c1.16,0,2.1-0.94,2.1-2.1v-2.18c6.02-0.7,9.8-6.29,11.53-9.61c0.42-0.8,0.45-1.74,0.08-2.56c-0.37-0.83-1.09-1.43-1.97-1.65
	l-0.23-0.06l2.18-11.49c0.3-1.6-0.12-3.25-1.15-4.5c-1.04-1.26-2.57-1.98-4.2-1.98h-0.15C29.62,6.19,27.95,4.97,26,4.97
	c-2.55,0-4.61,2.07-4.61,4.62s2.06,4.62,4.61,4.62c2.26,0,4.13-1.63,4.53-3.77c0.84,0.03,1.63,0.4,2.17,1.06
	c0.56,0.68,0.79,1.56,0.62,2.43l-2.15,11.35l-0.73-0.18c-1.31-0.33-2.66,0.27-3.29,1.46c-0.96,1.82-3.11,4.85-6.66,4.89
	c-3.55-0.04-5.7-3.08-6.66-4.89c-0.63-1.18-1.98-1.78-3.29-1.45l-0.73,0.18L7.65,13.92c-0.17-0.86,0.06-1.75,0.62-2.43
	c0.55-0.67,1.37-1.06,2.23-1.06c0.4,2.15,2.27,3.78,4.53,3.78c2.55,0,4.61-2.07,4.61-4.62s-2.06-4.62-4.61-4.62
	c-1.95,0-3.62,1.22-4.29,2.94h-0.21c-1.63,0-3.16,0.72-4.2,1.98c-1.04,1.26-1.46,2.9-1.15,4.5l2.18,11.49l-0.23,0.06
	c-0.88,0.22-1.6,0.82-1.97,1.65c-0.37,0.83-0.34,1.76,0.08,2.56c1.74,3.32,5.51,8.91,11.53,9.61v2.18c0,1.16,0.94,2.1,2.1,2.1h0.42
	v5.46c0,3.01,2.44,5.46,5.45,5.46h19.27c3,0,5.45-2.45,5.45-5.46V30.06C52.57,29.47,54.91,26.74,54.91,23.46z"/>
</svg>
