<?xml version="1.0" encoding="utf-8"?>
<!-- Generator: Adobe Illustrator 24.0.2, SVG Export Plug-In . SVG Version: 6.00 Build 0)  -->
<svg version="1.1" id="Layer_1" xmlns="http://www.w3.org/2000/svg" xmlns:xlink="http://www.w3.org/1999/xlink" x="0px" y="0px"
	 viewBox="0 0 60 60" style="enable-background:new 0 0 60 60;" xml:space="preserve">
<style type="text/css">
	.st0{fill:#FFFFFF;}
</style>
<path class="st0" d="M48.2,27.7c-2.3,0-4.2-1.9-4.2-4.2s1.9-4.2,4.2-4.2c2.3,0,4.2,1.9,4.2,4.2S50.5,27.7,48.2,27.7z M17.4,37.3
	C12.3,36.9,9,31.9,7.5,29c-0.1-0.1,0-0.3,0-0.4c0-0.1,0.1-0.2,0.3-0.2l3.4-0.9c0.2,0,0.4,0,0.5,0.2c1,1.9,3.8,6.1,8.8,6.2v0
	c0,0,0,0,0.1,0s0,0,0.1,0v0c5-0.1,7.8-4.4,8.8-6.2c0.1-0.2,0.3-0.2,0.5-0.2l3.4,0.9c0.2,0,0.3,0.2,0.3,0.2c0,0.1,0.1,0.2,0,0.4
	c-1.5,2.9-4.9,7.9-9.9,8.3c-1.1,0.1-1.9,1-1.9,2.1v2.1h-1.1h-0.1h-1.1v-2.1C19.3,38.3,18.5,37.4,17.4,37.3z M15,7.5
	c1.2,0,2.1,0.9,2.1,2.1s-0.9,2.1-2.1,2.1c-1.1,0-2.1-0.9-2.1-2.1S13.9,7.5,15,7.5z M26,11.7c-1.1,0-2.1-0.9-2.1-2.1s0.9-2.1,2.1-2.1
	s2.1,0.9,2.1,2.1S27.1,11.7,26,11.7z M54.9,23.5c0-3.7-3-6.7-6.7-6.7s-6.7,3-6.7,6.7c0,3.3,2.3,6,5.5,6.6v19.5
	c0,1.6-1.3,2.9-2.9,2.9H24.7c-1.6,0-2.9-1.3-2.9-2.9v-5.5h0.3c1.2,0,2.1-0.9,2.1-2.1v-2.2c6-0.7,9.8-6.3,11.5-9.6
	c0.4-0.8,0.5-1.7,0.1-2.6c-0.4-0.8-1.1-1.4-2-1.6l-0.2-0.1l2.2-11.5c0.3-1.6-0.1-3.3-1.2-4.5c-1-1.3-2.6-2-4.2-2h-0.1
	C29.6,6.2,28,5,26,5c-2.5,0-4.6,2.1-4.6,4.6s2.1,4.6,4.6,4.6c2.3,0,4.1-1.6,4.5-3.8c0.8,0,1.6,0.4,2.2,1.1c0.6,0.7,0.8,1.6,0.6,2.4
	l-2.1,11.4l-0.7-0.2c-1.3-0.3-2.7,0.3-3.3,1.5c-1,1.8-3.1,4.9-6.7,4.9c-3.5,0-5.7-3.1-6.7-4.9c-0.6-1.2-2-1.8-3.3-1.5l-0.7,0.2
	L7.7,13.9c-0.2-0.9,0.1-1.8,0.6-2.4c0.6-0.7,1.4-1.1,2.2-1.1c0.4,2.1,2.3,3.8,4.5,3.8c2.5,0,4.6-2.1,4.6-4.6S17.6,5,15,5
	c-1.9,0-3.6,1.2-4.3,2.9h-0.2c-1.6,0-3.2,0.7-4.2,2s-1.5,2.9-1.2,4.5l2.2,11.5l-0.2,0.1c-0.9,0.2-1.6,0.8-2,1.6s-0.3,1.8,0.1,2.6
	c1.7,3.3,5.5,8.9,11.5,9.6v2.2c0,1.2,0.9,2.1,2.1,2.1h0.4v5.5c0,3,2.4,5.5,5.5,5.5H44c3,0,5.5-2.5,5.5-5.5V30.1
	C52.6,29.5,54.9,26.7,54.9,23.5z"/>
</svg>
