<?xml version="1.0" encoding="utf-8"?>
<!-- Generator: Adobe Illustrator 23.1.0, SVG Export Plug-In . SVG Version: 6.00 Build 0)  -->
<svg version="1.1" id="Layer_1" xmlns="http://www.w3.org/2000/svg" xmlns:xlink="http://www.w3.org/1999/xlink" x="0px" y="0px"
	 viewBox="0 0 22 22" style="enable-background:new 0 0 22 22;" xml:space="preserve">
<style type="text/css">
	.st0{fill:#E5E5E5;}
	.st1{fill:#FFFFFF;}
	.st2{fill:#1D75BC;}
</style>
<g id="Group_617" transform="translate(-1939 -71)">
	<g id="Ellipse_18" transform="translate(1939 71)">
		<circle class="st0" cx="11" cy="11" r="10.5"/>
		<path class="st1" d="M11,21.5C5.21,21.5,0.5,16.79,0.5,11C0.5,5.21,5.21,0.5,11,0.5c5.79,0,10.5,4.71,10.5,10.5
			C21.5,16.79,16.79,21.5,11,21.5z M11,1.45c-5.26,0-9.55,4.28-9.55,9.55s4.28,9.54,9.55,9.54s9.55-4.28,9.55-9.54
			S16.26,1.45,11,1.45z"/>
	</g>
	<path id="Path_224" class="st2" d="M1953.44,77.12c-0.52-0.52-1.36-0.52-1.88,0l-5.38,5.38c-0.01,0.01-0.01,0.01-0.01,0.02
		c-0.04,0.04-0.07,0.09-0.1,0.15c-0.01,0.01-0.01,0.02-0.02,0.04c-0.01,0.01-0.01,0.01-0.01,0.02l-1.46,4.45
		c-0.07,0.2-0.01,0.43,0.14,0.58c0.11,0.11,0.25,0.17,0.4,0.17c0.06,0,0.12-0.01,0.18-0.03l4.45-1.46c0.01,0,0.01-0.01,0.02-0.01
		c0.04-0.01,0.07-0.03,0.1-0.05l0.02-0.01c0.03-0.02,0.07-0.05,0.1-0.07l5.38-5.38c0.25-0.25,0.39-0.59,0.39-0.94
		c0-0.35-0.14-0.69-0.39-0.94L1953.44,77.12z M1950.88,79.4l2.19,2.18l-3.5,3.49l-2.19-2.18L1950.88,79.4z M1946.01,86.45l0.82-2.5
		l1.68,1.68L1946.01,86.45z M1954.55,80.11L1954.55,80.11l-0.67,0.67l-2.19-2.18l0.67-0.67c0.07-0.07,0.2-0.07,0.27,0c0,0,0,0,0,0
		l1.92,1.92c0.04,0.04,0.06,0.08,0.06,0.13C1954.61,80.02,1954.58,80.07,1954.55,80.11L1954.55,80.11z"/>
</g>
</svg>
