<?xml version="1.0" encoding="utf-8"?>
<!-- Generator: Adobe Illustrator 23.1.0, SVG Export Plug-In . SVG Version: 6.00 Build 0)  -->
<svg version="1.1" id="Layer_1" xmlns="http://www.w3.org/2000/svg" xmlns:xlink="http://www.w3.org/1999/xlink" x="0px" y="0px"
	 viewBox="0 0 22 22" style="enable-background:new 0 0 22 22;" xml:space="preserve">
<style type="text/css">
	.st0{fill:#F27821;}
	.st1{fill:#FFFFFF;}
	.st2{enable-background:new    ;}
</style>
<g id="Group_612" transform="translate(-1939 -51)">
	<g id="Ellipse_17" transform="translate(1939 51)">
		<circle class="st0" cx="11" cy="11" r="10.5"/>
		<path class="st1" d="M11,21.5C5.21,21.5,0.5,16.79,0.5,11S5.21,0.5,11,0.5S21.5,5.21,21.5,11S16.79,21.5,11,21.5z M11,1.45
			c-5.26,0-9.55,4.28-9.55,9.55c0,5.26,4.28,9.55,9.55,9.55s9.55-4.28,9.55-9.55C20.55,5.74,16.26,1.45,11,1.45z"/>
	</g>
	<g class="st2">
		<path class="st1" d="M1948.96,66.66c0-0.42,0.11-0.73,0.34-0.95s0.55-0.32,0.98-0.32c0.41,0,0.73,0.11,0.96,0.33
			s0.34,0.53,0.34,0.94c0,0.39-0.11,0.7-0.34,0.93c-0.23,0.23-0.55,0.34-0.96,0.34c-0.42,0-0.74-0.11-0.97-0.33
			C1949.08,67.38,1948.96,67.06,1948.96,66.66z M1951.19,64.11h-1.82l-0.38-7.29h2.58L1951.19,64.11z"/>
	</g>
</g>
</svg>
