<?xml version="1.0" encoding="utf-8"?>
<!-- Generator: Adobe Illustrator 24.0.2, SVG Export Plug-In . SVG Version: 6.00 Build 0)  -->
<svg version="1.1" id="Layer_1" xmlns="http://www.w3.org/2000/svg" xmlns:xlink="http://www.w3.org/1999/xlink" x="0px" y="0px"
	 viewBox="0 0 65 65" style="enable-background:new 0 0 65 65;" xml:space="preserve">
<style type="text/css">
	.st0{fill:#FFFFFF;}
</style>
<g id="Button-Print" transform="translate(-1885 -352)">
	<g id="printer" transform="translate(1906 373)">
		<path class="st0" d="M18,10.1c-0.6,0-1-0.4-1-1v-6H7v6c0,0.6-0.4,1-1,1s-1-0.4-1-1v-7c0-0.6,0.4-1,1-1h12c0.6,0,1,0.4,1,1v7
			C19,9.7,18.6,10.1,18,10.1z"/>
		<path class="st0" d="M20,19.1h-2c-0.6,0-1-0.4-1-1s0.4-1,1-1h2c0.6,0,1-0.4,1-1v-5c0-0.6-0.4-1-1-1H4c-0.6,0-1,0.4-1,1v5
			c0,0.6,0.4,1,1,1h2c0.6,0,1,0.4,1,1s-0.4,1-1,1H4c-1.7,0-3-1.3-3-3v-5c0-1.7,1.3-3,3-3h16c1.7,0,3,1.3,3,3v5
			C23,17.8,21.7,19.1,20,19.1z"/>
		<path class="st0" d="M18,23.1H6c-0.6,0-1-0.4-1-1v-8c0-0.6,0.4-1,1-1h12c0.6,0,1,0.4,1,1v8C19,22.7,18.6,23.1,18,23.1z M7,21.1h10
			v-6H7V21.1z"/>
	</g>
</g>
</svg>
