<?xml version="1.0" encoding="utf-8"?>
<!-- Generator: Adobe Illustrator 24.0.2, SVG Export Plug-In . SVG Version: 6.00 Build 0)  -->
<svg version="1.1" id="Layer_1" xmlns="http://www.w3.org/2000/svg" xmlns:xlink="http://www.w3.org/1999/xlink" x="0px" y="0px"
	 viewBox="0 0 60 60" style="enable-background:new 0 0 60 60;" xml:space="preserve">
<style type="text/css">
	.st0{fill:#FFFFFF;}
</style>
<g>
	<g>
		<path class="st0" d="M7.9,25.4c1.8,0,3.4-1.1,4.1-2.7C14.9,15.8,21.7,11,29.6,11c4.3,0,8.3,1.5,11.5,4l-2.5,0.4
			c-0.9,0.1-1.5,0.8-1.6,1.7c-0.1,0.9,0.3,1.7,1.1,2l13.8,6.2c0.6,0.3,1.3,0.2,1.9-0.1c0.6-0.4,0.9-1,0.9-1.6l0.1-15.2
			c0-0.9-0.6-1.6-1.4-1.9c-0.8-0.3-1.7,0.1-2.2,0.8L49.2,10C44.2,5,37.2,2,29.6,2C18,2,8,9,3.8,19.1c-0.6,1.4-0.4,3,0.4,4.3
			C5,24.6,6.4,25.4,7.9,25.4z"/>
		<path class="st0" d="M55,36.6c-0.8-1.3-2.2-2-3.8-2c-1.8,0-3.4,1.1-4.1,2.7C44.2,44.2,37.5,49,29.6,49c-4.3,0-8.3-1.5-11.5-4
			l2.5-0.4c0.9-0.1,1.5-0.8,1.6-1.7c0.1-0.9-0.3-1.7-1.1-2L7.3,34.7c-0.6-0.3-1.3-0.2-1.9,0.1c-0.6,0.4-0.9,1-0.9,1.6L4.5,51.7
			c0,0.9,0.6,1.6,1.4,1.9c0.8,0.3,1.7-0.1,2.2-0.8l1.9-2.9c5.1,5,12,8.1,19.6,8.1c11.6,0,21.5-7.1,25.8-17.1
			C56,39.4,55.8,37.8,55,36.6z"/>
	</g>
</g>
</svg>
