<?xml version="1.0" encoding="utf-8"?>
<!-- Generator: Adobe Illustrator 23.1.0, SVG Export Plug-In . SVG Version: 6.00 Build 0)  -->
<svg version="1.1" id="Layer_1" xmlns="http://www.w3.org/2000/svg" xmlns:xlink="http://www.w3.org/1999/xlink" x="0px" y="0px"
	 viewBox="0 0 50 50" style="enable-background:new 0 0 50 50;" xml:space="preserve">
<style type="text/css">
	.st0{fill:#FFFFFF;}
</style>
<g id="Group_794" transform="translate(330.797 313.08)">
	<g id="Group_793" transform="translate(-330.797 -313.08)">
		<path id="Path_284" class="st0" d="M8,34.3c-0.7,0-1.3,0.5-1.3,1.2l-0.1,2.4c-2.2-3.1-3.5-6.7-3.9-10.4c-0.4-3.9,0.2-7.8,1.7-11.4
			C4.6,15.6,4.4,15,4,14.6c-0.5-0.4-1.3-0.3-1.8,0.2c-0.1,0.1-0.1,0.2-0.2,0.3c-1.7,4-2.4,8.3-1.9,12.6c0.5,4.4,2.1,8.6,4.8,12.2
			l-2.9-0.1c-0.7,0-1.3,0.5-1.3,1.2c0,0,0,0,0,0c0,0.7,0.5,1.3,1.2,1.3c0,0,0,0,0,0l6.9,0.2l0.2-6.9C9.2,34.9,8.7,34.3,8,34.3z"/>
		<path id="Path_285" class="st0" d="M34.3,42c0,0.7,0.5,1.3,1.2,1.3c0,0,0,0,0,0l2.5,0.1c-3.1,2.2-6.7,3.6-10.5,4
			c-3.9,0.4-7.8-0.2-11.4-1.7c-0.5-0.2-1.1-0.1-1.5,0.4c-0.4,0.5-0.3,1.3,0.2,1.8c0.1,0.1,0.2,0.1,0.3,0.2c4,1.7,8.3,2.4,12.6,1.9
			c4.4-0.5,8.6-2.1,12.1-4.7l-0.1,2.8c0,0.7,0.5,1.3,1.2,1.3c0,0,0,0,0,0c0.7,0,1.3-0.5,1.3-1.2c0,0,0,0,0,0l0.2-6.9l-6.9-0.2
			C34.9,40.8,34.3,41.3,34.3,42z"/>
		<path id="Path_286" class="st0" d="M15.7,8c0-0.7-0.5-1.3-1.2-1.3l-2.5-0.1c3.1-2.2,6.7-3.6,10.5-4c3.9-0.4,7.8,0.2,11.4,1.7
			C34.4,4.6,35,4.4,35.4,4c0.4-0.5,0.3-1.3-0.2-1.8c-0.1-0.1-0.2-0.1-0.3-0.2c-4-1.7-8.3-2.4-12.6-1.9c-4.4,0.5-8.6,2.1-12.1,4.8
			l0.1-2.8c0-0.7-0.5-1.3-1.2-1.3c0,0,0,0,0,0C8.3,0.8,7.8,1.3,7.7,2L7.5,9l6.9,0.2C15.1,9.2,15.7,8.7,15.7,8z"/>
		<path id="Path_287" class="st0" d="M49.8,22.3c-0.5-4.4-2.1-8.5-4.7-12.1l2.8,0.1c0.7,0,1.3-0.5,1.3-1.2c0-0.7-0.5-1.3-1.2-1.3
			L41,7.5l-0.2,6.9c0,0.7,0.5,1.3,1.2,1.3c0.7,0,1.3-0.5,1.3-1.2c0,0,0,0,0,0l0.1-2.5c2.2,3.1,3.6,6.7,4,10.5
			c0.4,3.9-0.2,7.8-1.7,11.4c-0.2,0.5-0.1,1.1,0.4,1.5c0.5,0.4,1.3,0.3,1.8-0.2c0.1-0.1,0.1-0.2,0.2-0.3
			C49.7,30.9,50.3,26.6,49.8,22.3z"/>
	</g>
	<path id="Path_288" class="st0" d="M-305.9-291.4c1.8,0,3.3,1.5,3.3,3.3s-1.5,3.3-3.3,3.3s-3.3-1.5-3.3-3.3
		S-307.7-291.4-305.9-291.4 M-305.9-293.9c-3.2,0-5.8,2.6-5.8,5.8s2.6,5.8,5.8,5.8s5.8-2.6,5.8-5.8S-302.7-293.9-305.9-293.9z"/>
	<path id="Path_289" class="st0" d="M-305-301.3v4l1.8,0.5c0.6,0.2,1.1,0.4,1.6,0.6l1.6,0.8l1.3-1.3l1.5-1.5l1.3,1.3l-1.4,1.4
		l-1.3,1.3l0.9,1.6c0.3,0.5,0.5,1.1,0.7,1.6l0.5,1.8h3.8v1.9h-3.8l-0.5,1.8c-0.2,0.6-0.4,1.2-0.7,1.7l-0.9,1.6l1.3,1.3l1.4,1.4
		l-1.3,1.3l-1.4-1.4l-1.3-1.3l-1.6,0.9c-0.5,0.3-1.1,0.5-1.7,0.7l-1.8,0.5v3.8h-1.9v-3.8l-1.7-0.6c-0.6-0.2-1.1-0.4-1.6-0.7
		l-1.6-0.9l-1.3,1.3l-1.4,1.4l-1.3-1.3l1.5-1.5l1.3-1.3l-0.8-1.6c-0.3-0.5-0.5-1-0.6-1.6l-0.5-1.8h-4v-1.9h4l0.5-1.8
		c0.2-0.5,0.4-1.1,0.7-1.5l0.9-1.6l-1.3-1.3l-1.5-1.5l1.3-1.3l1.5,1.5l1.3,1.3l1.6-0.9c0.5-0.3,1-0.5,1.6-0.7l1.7-0.6v-4H-305
		 M-304.2-303.8h-3.4c-1,0-1.7,0.8-1.7,1.7c0,0,0,0,0,0v2.9c-0.7,0.2-1.3,0.5-2,0.8l-2.1-2.1c-0.3-0.3-0.8-0.5-1.2-0.5
		c-0.5,0-0.9,0.2-1.2,0.5l-2.4,2.4c-0.7,0.7-0.7,1.8,0,2.5l2.1,2.1c-0.3,0.6-0.6,1.3-0.8,2h-2.9c-1,0-1.7,0.8-1.7,1.7c0,0,0,0,0,0
		v3.4c0,1,0.8,1.7,1.7,1.7c0,0,0,0,0,0h2.9c0.2,0.7,0.5,1.4,0.8,2l-2,2c-0.7,0.7-0.7,1.8,0,2.5l2.4,2.4c0.3,0.3,0.8,0.5,1.2,0.5
		c0.5,0,0.9-0.2,1.2-0.5l2-2c0.7,0.4,1.4,0.7,2.1,0.9v2.7c0,1,0.8,1.7,1.7,1.7l0,0h3.4c1,0,1.7-0.8,1.7-1.7v-2.7
		c0.7-0.2,1.5-0.5,2.1-0.9l1.9,1.9c0.3,0.3,0.8,0.5,1.2,0.5c0.5,0,0.9-0.2,1.2-0.5l2.4-2.4c0.7-0.7,0.7-1.8,0-2.5c0,0,0,0,0,0
		l-1.9-1.9c0.4-0.7,0.7-1.4,0.9-2.2h2.7c1,0,1.7-0.8,1.7-1.7c0,0,0,0,0,0v-3.4c0-1-0.8-1.7-1.7-1.7c0,0,0,0,0,0h-2.7
		c-0.2-0.7-0.5-1.4-0.9-2.1l1.9-1.9c0.7-0.7,0.7-1.8,0-2.5c0,0,0,0,0,0l-2.4-2.4c-0.3-0.3-0.8-0.5-1.2-0.5c-0.5,0-0.9,0.2-1.2,0.5
		l-2,2c-0.7-0.3-1.3-0.6-2-0.8v-2.9C-302.4-303.1-303.2-303.8-304.2-303.8C-304.2-303.8-304.2-303.8-304.2-303.8L-304.2-303.8z"/>
</g>
</svg>
