<?xml version="1.0" encoding="utf-8"?>
<!-- Generator: Adobe Illustrator 24.0.2, SVG Export Plug-In . SVG Version: 6.00 Build 0)  -->
<svg version="1.1" id="Layer_1" xmlns="http://www.w3.org/2000/svg" xmlns:xlink="http://www.w3.org/1999/xlink" x="0px" y="0px"
	 viewBox="0 0 60 60" style="enable-background:new 0 0 60 60;" xml:space="preserve">
<style type="text/css">
	.st0{fill:#FFFFFF;}
</style>
<g>
	<path class="st0" d="M48.7,19.7c-0.4,0-0.7-0.2-1-0.4L35.9,7.5c-0.3-0.3-0.4-0.6-0.4-1s0.2-0.7,0.4-1l5-5c0.6-0.6,1.5-0.6,2,0
		l11.8,11.8c0.6,0.6,0.6,1.5,0,2l-5,5C49.4,19.5,49.1,19.7,48.7,19.7z M38.9,6.5l9.7,9.7l3-3L42,3.4L38.9,6.5z"/>
	<path class="st0" d="M20.1,36.5c-0.4,0-0.7-0.1-1-0.4c-0.4-0.4-0.5-0.9-0.4-1.3l5.9-24.4c0.1-0.5,0.6-1,1.1-1.1l12.6-2.5
		c0.5-0.1,1,0.1,1.3,0.4l8.4,8.4c0.3,0.3,0.5,0.8,0.4,1.3l-2.5,12.6c-0.1,0.5-0.5,1-1.1,1.1l-24.4,5.9
		C20.3,36.5,20.2,36.5,20.1,36.5z M27.2,11.9L22,33.1L43.3,28l2.2-11l-7.3-7.3L27.2,11.9z"/>
	<path class="st0" d="M20.1,36.5c-0.4,0-0.7-0.1-1-0.4c-0.6-0.6-0.6-1.5,0-2l12.8-12.8c0.6-0.6,1.5-0.6,2,0c0.6,0.6,0.6,1.5,0,2
		L21.1,36.1C20.8,36.3,20.5,36.5,20.1,36.5z"/>
	<path class="st0" d="M35.2,24.7c-0.6,0-1.2-0.1-1.8-0.4c-0.6-0.2-1.1-0.6-1.6-1c-0.4-0.4-0.8-1-1-1.6c-0.2-0.6-0.4-1.2-0.4-1.8
		c0-0.6,0.1-1.3,0.4-1.8c0.2-0.6,0.6-1.1,1-1.6c0.4-0.4,1-0.8,1.6-1c1.2-0.5,2.5-0.5,3.7,0c0.6,0.2,1.1,0.6,1.6,1
		c0.4,0.4,0.8,1,1,1.6c0.2,0.6,0.4,1.2,0.4,1.8c0,0.6-0.1,1.3-0.4,1.8c-0.2,0.6-0.6,1.1-1,1.6c-0.4,0.4-1,0.8-1.6,1
		C36.5,24.6,35.9,24.7,35.2,24.7z M35.2,18c-0.3,0-0.5,0-0.7,0.1c-0.2,0.1-0.4,0.2-0.6,0.4c-0.2,0.2-0.3,0.4-0.4,0.6
		c-0.1,0.2-0.1,0.5-0.1,0.7c0,0.3,0,0.5,0.1,0.7c0.1,0.2,0.2,0.4,0.4,0.6c0.2,0.2,0.4,0.3,0.6,0.4c0.5,0.2,1,0.2,1.5,0
		c0.2-0.1,0.4-0.2,0.6-0.4c0.2-0.2,0.3-0.4,0.4-0.6c0.1-0.2,0.1-0.5,0.1-0.7c0-0.3,0-0.5-0.1-0.7c-0.1-0.2-0.2-0.4-0.4-0.6
		c-0.2-0.2-0.4-0.3-0.6-0.4C35.7,18,35.5,18,35.2,18z"/>
	<path class="st0" d="M12.7,60c-1.5,0-2.8-0.2-4-0.7c-1.7-0.7-3-1.9-3.7-3.7C1.5,47.5,10.6,40.3,11,40c0.6-0.5,1.5-0.4,2,0.3
		c0.5,0.6,0.4,1.5-0.3,2c-0.1,0.1-7.8,6.1-5.2,12.2c0.4,1,1.1,1.7,2.2,2.1c4.7,1.9,14.5-2.3,19.2-4.3c5.8-2.5,16.5-7.1,26.9,0.1
		c0.6,0.5,0.8,1.3,0.4,2c-0.4,0.6-1.3,0.8-2,0.4c-8.4-5.8-16.9-3-24.2,0.1C24.2,57.5,17.8,60,12.7,60z"/>
</g>
</svg>
