<?xml version="1.0" encoding="utf-8"?>
<!-- Generator: Adobe Illustrator 24.0.2, SVG Export Plug-In . SVG Version: 6.00 Build 0)  -->
<svg version="1.1" id="Layer_1" xmlns="http://www.w3.org/2000/svg" xmlns:xlink="http://www.w3.org/1999/xlink" x="0px" y="0px"
	 viewBox="0 0 60 60" style="enable-background:new 0 0 60 60;" xml:space="preserve">
<style type="text/css">
	.st0{fill:#333333;}
</style>
<g id="Group_458">
	<path id="Path_135" class="st0" d="M27.9,16.7H15.4c-0.7,0-1.3,0.6-1.3,1.3c0,0.7,0.6,1.3,1.3,1.3h12.5c0.7,0,1.3-0.6,1.3-1.3
		C29.2,17.2,28.6,16.7,27.9,16.7z"/>
	<path id="Path_136" class="st0" d="M45,13.3L40,18.2l-1.6-1.6c-0.5-0.5-1.3-0.5-1.8,0c-0.5,0.5-0.5,1.3,0,1.8c0,0,0,0,0,0l2.5,2.5
		c0.5,0.5,1.3,0.5,1.8,0c0,0,0,0,0,0l5.8-5.8c0.5-0.5,0.5-1.3,0-1.8C46.2,12.8,45.4,12.8,45,13.3z"/>
	<path id="Path_137" class="st0" d="M27.9,29.6H15.4c-0.7,0-1.3,0.6-1.3,1.3s0.6,1.3,1.3,1.3h12.5c0.7,0,1.3-0.6,1.3-1.3
		S28.6,29.6,27.9,29.6z"/>
	<path id="Path_138" class="st0" d="M45,26.2L40,31.1l-1.6-1.6c-0.5-0.5-1.3-0.5-1.8,0c-0.5,0.5-0.5,1.3,0,1.8c0,0,0,0,0,0l2.5,2.5
		c0.5,0.5,1.3,0.5,1.8,0c0,0,0,0,0,0l5.8-5.8c0.5-0.5,0.5-1.3,0-1.8C46.2,25.7,45.4,25.7,45,26.2z"/>
	<path id="Path_139" class="st0" d="M27.9,42.5H15.4c-0.7,0-1.3,0.6-1.3,1.3s0.6,1.3,1.3,1.3h12.5c0.7,0,1.3-0.6,1.3-1.3
		S28.6,42.5,27.9,42.5z"/>
	<path id="Path_140" class="st0" d="M45,39.1l-4.9,5l-1.6-1.6c-0.5-0.5-1.3-0.5-1.8,0s-0.5,1.3,0,1.8l2.5,2.5c0.5,0.5,1.3,0.5,1.8,0
		c0,0,0,0,0,0l5.8-5.8c0.5-0.5,0.5-1.3,0-1.8C46.2,38.6,45.4,38.6,45,39.1L45,39.1z"/>
	<path id="Path_141" class="st0" d="M50.8,5H9.2C6.9,5,5,6.9,5,9.2v41.7C5,53.1,6.9,55,9.2,55h41.7c2.3,0,4.2-1.9,4.2-4.2V9.2
		C55,6.9,53.1,5,50.8,5z M52.5,50.8c0,0.9-0.7,1.7-1.7,1.7H9.2c-0.9,0-1.7-0.7-1.7-1.7V9.2c0-0.9,0.7-1.7,1.7-1.7h41.7
		c0.9,0,1.7,0.7,1.7,1.7V50.8z"/>
</g>
</svg>
