<?xml version="1.0" encoding="utf-8"?>
<!-- Generator: Adobe Illustrator 24.0.2, SVG Export Plug-In . SVG Version: 6.00 Build 0)  -->
<svg version="1.1" id="Layer_1" xmlns="http://www.w3.org/2000/svg" xmlns:xlink="http://www.w3.org/1999/xlink" x="0px" y="0px"
	 viewBox="0 0 50 50" style="enable-background:new 0 0 50 50;" xml:space="preserve">
<style type="text/css">
	.st0{fill:#FFFFFF;}
</style>
<g>
	<path id="Path_135" class="st0" d="M22.9,11.7H10.4c-0.7,0-1.3,0.6-1.3,1.3s0.6,1.3,1.3,1.3h12.5c0.7,0,1.3-0.6,1.3-1.3
		S23.6,11.7,22.9,11.7z"/>
	<path id="Path_136" class="st0" d="M40,8.3L35,13.2l-1.6-1.6c-0.5-0.5-1.3-0.5-1.8,0c-0.5,0.5-0.5,1.3,0,1.8c0,0,0,0,0,0l2.5,2.5
		c0.5,0.5,1.3,0.5,1.8,0c0,0,0,0,0,0l5.8-5.8c0.5-0.5,0.5-1.3,0-1.8C41.2,7.8,40.4,7.8,40,8.3z"/>
	<path id="Path_137" class="st0" d="M22.9,24.6H10.4c-0.7,0-1.3,0.6-1.3,1.3s0.6,1.3,1.3,1.3h12.5c0.7,0,1.3-0.6,1.3-1.3
		S23.6,24.6,22.9,24.6z"/>
	<path id="Path_138" class="st0" d="M40,21.2L35,26.1l-1.6-1.6c-0.5-0.5-1.3-0.5-1.8,0c-0.5,0.5-0.5,1.3,0,1.8c0,0,0,0,0,0l2.5,2.5
		c0.5,0.5,1.3,0.5,1.8,0c0,0,0,0,0,0l5.8-5.8c0.5-0.5,0.5-1.3,0-1.8C41.2,20.7,40.4,20.7,40,21.2z"/>
	<path id="Path_139" class="st0" d="M22.9,37.5H10.4c-0.7,0-1.3,0.6-1.3,1.3S9.7,40,10.4,40h12.5c0.7,0,1.3-0.6,1.3-1.3
		S23.6,37.5,22.9,37.5z"/>
	<path id="Path_140" class="st0" d="M40,34.1l-4.9,5l-1.6-1.6c-0.5-0.5-1.3-0.5-1.8,0s-0.5,1.3,0,1.8l2.5,2.5c0.5,0.5,1.3,0.5,1.8,0
		c0,0,0,0,0,0l5.8-5.8c0.5-0.5,0.5-1.3,0-1.8C41.2,33.6,40.4,33.6,40,34.1L40,34.1z"/>
	<path id="Path_141" class="st0" d="M45.8,0H4.2C1.9,0,0,1.9,0,4.2v41.7C0,48.1,1.9,50,4.2,50h41.7c2.3,0,4.2-1.9,4.2-4.2V4.2
		C50,1.9,48.1,0,45.8,0z M47.5,45.8c0,0.9-0.7,1.7-1.7,1.7H4.2c-0.9,0-1.7-0.7-1.7-1.7V4.2c0-0.9,0.7-1.7,1.7-1.7h41.7
		c0.9,0,1.7,0.7,1.7,1.7V45.8z"/>
</g>
</svg>
