<svg width="0" height="0" class="hidden">
  <symbol xmlns="http://www.w3.org/2000/svg" viewBox="0 0 40 40" id="close-icon">
    <path d="M33 35.4c-.5 0-1-.2-1.4-.6L5.5 8.7c-.7-.7-.7-2 0-2.7.8-.8 2-.8 2.8 0l26.1 26.1c.8.8.8 2 0 2.8-.4.3-.9.5-1.4.5z"></path>
    <path d="M6.9 35.4c-.5 0-1-.2-1.4-.6-.8-.8-.8-2 0-2.8L31.6 6c.8-.8 2-.8 2.8 0 .8.8.8 2 0 2.8l-26.1 26c-.4.4-.9.6-1.4.6z"></path>
  </symbol>
  <symbol xmlns="http://www.w3.org/2000/svg" viewBox="0 0 40 40" id="close-icon-white">
    <path d="M33 35.4c-.5 0-1-.2-1.4-.6L5.5 8.7c-.7-.7-.7-2 0-2.7.8-.8 2-.8 2.8 0l26.1 26.1c.8.8.8 2 0 2.8-.4.3-.9.5-1.4.5z"></path>
    <path d="M6.9 35.4c-.5 0-1-.2-1.4-.6-.8-.8-.8-2 0-2.8L31.6 6c.8-.8 2-.8 2.8 0 .8.8.8 2 0 2.8l-26.1 26c-.4.4-.9.6-1.4.6z"></path>
  </symbol>
  <symbol xmlns="http://www.w3.org/2000/svg" viewBox="0 0 50 50" id="dashboard">
    <path d="M19.1 2.5c.9 0 1.7.7 1.7 1.7v9.2c0 .9-.7 1.7-1.7 1.7h-15c-.9 0-1.7-.7-1.7-1.7V4.2c0-.9.7-1.7 1.7-1.7h15m0-2.5h-15C1.8 0 0 1.9 0 4.2v9.2c0 2.3 1.9 4.2 4.2 4.2h15c2.3 0 4.2-1.9 4.2-4.2V4.2c-.1-2.3-2-4.2-4.3-4.2zm26.7 35c.9 0 1.7.7 1.7 1.7v9.2c0 .9-.7 1.7-1.7 1.7h-15c-.9 0-1.7-.7-1.7-1.7v-9.2c0-.9.7-1.7 1.7-1.7h15m0-2.5h-15c-2.3 0-4.2 1.9-4.2 4.2v9.2c0 2.3 1.9 4.2 4.2 4.2h15c2.3 0 4.2-1.9 4.2-4.2v-9.2c0-2.3-1.9-4.2-4.2-4.2zm-26.7-9.2c.9 0 1.7.7 1.7 1.7v20.8c0 .9-.7 1.7-1.7 1.7h-15c-.9 0-1.7-.7-1.7-1.7V25c0-.9.7-1.7 1.7-1.7h15m0-2.5h-15C1.8 20.8 0 22.7 0 25v20.8C0 48.1 1.8 50 4.1 50h15c2.3 0 4.2-1.9 4.2-4.2V25c0-2.3-1.9-4.2-4.2-4.2zM45.8 2.5c.9 0 1.7.7 1.7 1.7V25c0 .9-.7 1.7-1.7 1.7h-15c-.9 0-1.7-.7-1.7-1.7V4.2c0-.9.7-1.7 1.7-1.7h15m0-2.5h-15c-2.3 0-4.2 1.9-4.2 4.2V25c0 2.3 1.9 4.2 4.2 4.2h15c2.3 0 4.2-1.9 4.2-4.2V4.2C50 1.9 48.1 0 45.8 0z"></path>
  </symbol>
  <symbol xmlns="http://www.w3.org/2000/svg" viewBox="0 0 65 65" id="download">
    <path d="M40.1 41.1h-14c-1.7 0-3-1.3-3-3v-4c0-.6.4-1 1-1s1 .4 1 1v4c0 .6.4 1 1 1h14c.6 0 1-.4 1-1v-4c0-.6.4-1 1-1s1 .4 1 1v4c0 1.7-1.4 3-3 3z"></path>
    <path d="M33.1 35.1c-.3 0-.5-.1-.7-.3l-5-5c-.4-.4-.4-1 0-1.4.4-.4 1-.4 1.4 0l4.3 4.3 4.3-4.3c.4-.4 1-.4 1.4 0s.4 1 0 1.4l-5 5c-.2.2-.5.3-.7.3z"></path>
    <path d="M33.1 35.1c-.6 0-1-.4-1-1v-12c0-.6.4-1 1-1s1 .4 1 1v12c0 .6-.5 1-1 1z"></path>
  </symbol>
  <symbol xmlns="http://www.w3.org/2000/svg" viewBox="0 0 40 40" id="draghandle">
    <path d="M27 23H13c-.3 0-.5-.2-.5-.5s.2-.5.5-.5h14c.3 0 .5.2.5.5s-.2.5-.5.5zm0-5H13c-.3 0-.5-.2-.5-.5s.2-.5.5-.5h14c.3 0 .5.2.5.5s-.2.5-.5.5z"></path>
  </symbol>
  <symbol xmlns="http://www.w3.org/2000/svg" viewBox="0 0 40 40" id="edit">
    <path d="M30.8 40.021H5.4c-3 0-5.4-2.4-5.4-5.4v-25.4c0-3 2.4-5.4 5.4-5.4h12.7c1 0 1.8.8 1.8 1.8s-.8 1.8-1.8 1.8H5.4c-1 0-1.8.8-1.8 1.8v25.3c0 1 .8 1.8 1.8 1.8h25.3c1 0 1.8-.8 1.8-1.8v-12.6c0-1 .8-1.8 1.8-1.8s1.8.8 1.8 1.8v12.7c.1 2.9-2.3 5.4-5.3 5.4z"></path>
    <path d="M12.7 29.121c-.5 0-.9-.2-1.3-.5-.5-.5-.6-1.1-.5-1.7l1.8-7.2c.1-.3.2-.6.5-.8l17.2-17.3c2.3-2.2 5.8-2.1 8 .2 2.1 2.2 2.1 5.6 0 7.8l-17.2 17.2c-.2.2-.5.4-.8.5l-7.3 1.8h-.4zm3.4-8.1l-1 3.8 3.8-.9 16.9-16.9c.7-.8.7-2 0-2.8-.8-.8-2-.8-2.8-.1l-16.9 16.9z"></path>
  </symbol>
  <symbol xmlns="http://www.w3.org/2000/svg" viewBox="0 0 40 40" id="edit-white">
    <path d="M30.8 40.021H5.4c-3 0-5.4-2.4-5.4-5.4v-25.4c0-3 2.4-5.4 5.4-5.4h12.7c1 0 1.8.8 1.8 1.8s-.8 1.8-1.8 1.8H5.4c-1 0-1.8.8-1.8 1.8v25.3c0 1 .8 1.8 1.8 1.8h25.3c1 0 1.8-.8 1.8-1.8v-12.6c0-1 .8-1.8 1.8-1.8s1.8.8 1.8 1.8v12.7c.1 2.9-2.3 5.4-5.3 5.4z"></path>
    <path d="M12.7 29.121c-.5 0-.9-.2-1.3-.5-.5-.5-.6-1.1-.5-1.7l1.8-7.2c.1-.3.2-.6.5-.8l17.2-17.3c2.3-2.2 5.8-2.1 8 .2 2.1 2.2 2.1 5.6 0 7.8l-17.2 17.2c-.2.2-.5.4-.8.5l-7.3 1.8h-.4zm3.4-8.1l-1 3.8 3.8-.9 16.9-16.9c.7-.8.7-2 0-2.8-.8-.8-2-.8-2.8-.1l-16.9 16.9z"></path>
  </symbol>
  <symbol xmlns="http://www.w3.org/2000/svg" viewBox="0 0 50 50" id="endorsement">
    <path d="M-247.8-393.4c9.5 0 10.5 7.9 10.5 11.3 0 6.8-2.1 9.2-2.2 9.2-.5.5-.5 1.3 0 1.8s1.3.5 1.8 0c.3-.3 2.9-3.1 2.9-11 0-8.6-5-13.9-13-13.9-7.7 0-13 5.7-13 13.9 0 4.7 2.4 9 4.2 12.5 1.3 2.3 2.5 4.6 2.5 6 0 2.9-6.8 5.4-13.2 6.3-5.3.8-5.3 9.3-5.3 9.7 0 .7.6 1.3 1.3 1.3.7 0 1.3-.6 1.3-1.3 0-1.7.6-6.8 3.1-7.1 2.6-.4 15.4-2.5 15.4-8.8 0-2.1-1.3-4.5-2.8-7.2-1.8-3.4-3.9-7.2-3.9-11.3-.2-5.5 3.1-11.4 10.4-11.4zm13.8 24.8c-6.3 0-11.3 5.1-11.3 11.3 0 6.3 5.1 11.3 11.3 11.3s11.3-5.1 11.3-11.3c.1-6.3-5-11.3-11.3-11.3zm0 20.1c-4.9 0-8.8-3.9-8.8-8.8s3.9-8.8 8.8-8.8 8.8 3.9 8.8 8.8-3.9 8.8-8.8 8.8z"></path>
    <path d="M-230.3-361.1l-5 5-1.6-1.6c-.5-.5-1.3-.5-1.8 0s-.5 1.3 0 1.8l2.5 2.5c.5.5 1.3.5 1.8 0l5.9-5.9c.5-.5.5-1.3 0-1.8s-1.3-.5-1.8 0zM24.8 3C34 3 35 10.7 35 14.1c0 6.7-2.1 9-2.1 9-.5.5-.5 1.3 0 1.7.5.5 1.3.5 1.7 0 .3-.3 2.8-3.1 2.8-10.8C37.4 5.6 32.5.4 24.6.4 17.2.5 12 6.1 12 14.1c0 4.6 2.3 8.8 4.2 12.2 1.2 2.3 2.4 4.5 2.4 5.9 0 2.8-6.7 5.3-12.9 6.2-5.2.7-5.2 9.1-5.2 9.5 0 .7.6 1.2 1.2 1.2.7 0 1.2-.6 1.2-1.2 0-1.7.5-6.6 3.1-7s15-2.5 15-8.7c0-2.1-1.3-4.4-2.7-7.1-1.8-3.3-3.9-7.1-3.9-11C14.5 8.7 17.7 3 24.8 3zm13.5 24.3c-6.1 0-11.1 5-11.1 11.1s5 11.1 11.1 11.1 11.1-5 11.1-11.1c.1-6.2-4.9-11.1-11.1-11.1zm0 19.7c-4.8 0-8.6-3.9-8.6-8.6 0-4.8 3.9-8.6 8.6-8.6 4.8 0 8.6 3.9 8.6 8.6.1 4.8-3.8 8.6-8.6 8.6z"></path>
    <path d="M42 34.6l-4.9 4.9-1.6-1.6c-.5-.5-1.3-.5-1.7 0-.5.5-.5 1.3 0 1.7l2.5 2.5c.5.5 1.3.5 1.7 0l5.8-5.8c.5-.5.5-1.3 0-1.7-.5-.5-1.3-.5-1.8 0z"></path>
  </symbol>
  <symbol xmlns="http://www.w3.org/2000/svg" viewBox="0 0 60 60" id="endorsement-gray">
    <path d="M29.8 7.5c9.5 0 10.5 7.9 10.5 11.3 0 6.8-2.1 9.2-2.2 9.2-.5.5-.5 1.3 0 1.8s1.3.5 1.8 0c.3-.3 2.9-3.1 2.9-11 0-8.6-5-13.9-13-13.9-7.7 0-13 5.7-13 13.9 0 4.7 2.4 9 4.2 12.5 1.3 2.3 2.5 4.6 2.5 6 0 2.9-6.8 5.4-13.2 6.3C5 44.4 5 52.9 5 53.3c0 .7.6 1.3 1.3 1.3.7 0 1.3-.6 1.3-1.3 0-1.7.6-6.8 3.1-7.2 2.6-.4 15.4-2.5 15.4-8.8 0-2.1-1.3-4.5-2.8-7.2-1.8-3.4-3.9-7.2-3.9-11.3-.1-5.4 3.2-11.3 10.4-11.3zm13.9 24.8c-6.3 0-11.3 5.1-11.3 11.3s5.1 11.3 11.3 11.3C50 54.9 55 49.8 55 43.6c0-6.2-5.1-11.3-11.3-11.3zm0 20.2c-4.9 0-8.8-3.9-8.8-8.8s3.9-8.8 8.8-8.8 8.8 3.9 8.8 8.8c0 4.8-4 8.8-8.8 8.8z"></path>
    <path d="M47.4 39.8l-5 5-1.6-1.6c-.5-.5-1.3-.5-1.8 0s-.5 1.3 0 1.8l2.5 2.5c.5.5 1.3.5 1.8 0l5.9-5.9c.5-.5.5-1.3 0-1.8s-1.3-.5-1.8 0z"></path>
  </symbol>
  <symbol xmlns="http://www.w3.org/2000/svg" viewBox="0 0 60 60" id="feedback">
    <path d="M50.8 5.015H9.1c-2.3 0-4.2 1.9-4.2 4.2v35c0 2.3 1.9 4.2 4.2 4.2h14.6c.3 0 .5.1.7.3l4.3 5.7c.3.4.8.7 1.3.7s1-.3 1.3-.7l4.3-5.7c.2-.2.4-.3.7-.3h14.6c2.3 0 4.2-1.9 4.2-4.2v-35c-.1-2.4-2-4.2-4.3-4.2zm1.7 39.1c0 .9-.7 1.7-1.7 1.7H36.2c-1 0-2 .5-2.7 1.3l-3.6 4.7-3.6-4.7c-.6-.8-1.6-1.3-2.7-1.3H9c-.9 0-1.7-.7-1.7-1.7v-35c0-.9.7-1.7 1.7-1.7h41.7c.9 0 1.7.7 1.7 1.7l.1 35z"></path>
    <g transform="translate(11 7)">
      <circle cx="19" cy="19" r="14" fill="none"></circle>
      <path d="M19 33c-7.7 0-14-6.3-14-14S11.3 5 19 5s14 6.3 14 14-6.3 14-14 14zm0-25.5C12.7 7.5 7.5 12.7 7.5 19S12.7 30.5 19 30.5 30.5 25.3 30.5 19 25.3 7.5 19 7.5z"></path>
    </g>
    <g transform="translate(9794.8 16081)">
      <circle cx="-9764.8" cy="-16059.8" r="1.3"></circle>
      <path d="M-9764.7-16048.8c-.7 0-1.3-.6-1.3-1.3v-5c0-.7.6-1.3 1.3-1.3s1.3.6 1.3 1.3v5c-.1.8-.6 1.3-1.3 1.3z"></path>
    </g>
  </symbol>
  <symbol xmlns="http://www.w3.org/2000/svg" viewBox="0 0 30 30" id="filter">
    <path d="M17.7 28.6c-.2 0-.4 0-.6-.1l-5.5-2.7c-.5-.2-.8-.7-.8-1.2v-8.4L.3 3.6c-.3-.4-.4-1-.2-1.4.2-.5.7-.8 1.2-.8h27.3c.5 0 1 .3 1.2.8s.1 1-.2 1.5L19.1 16.1v11.1c0 .5-.2.9-.6 1.2-.3.2-.5.2-.8.2zm-4.1-4.9l2.7 1.4v-9.4c0-.3.1-.6.3-.9l9-10.7H4.3l9 10.7c.2.2.3.6.3.9v8z" fill="#333"></path>
  </symbol>
  <symbol xmlns="http://www.w3.org/2000/svg" viewBox="0 0 27 21.999" id="icon--arrows">
    <path d="M4 10.944v10.055h6l.084-10.052 2.916.087L7 .999l-6 9.945zm13 5v5.055h6l.084-5.052 2.916.087-6-10.035-6 9.945z" fill="none" stroke="#fff" stroke-linejoin="round" stroke-width="2"></path>
  </symbol>
  <symbol xmlns="http://www.w3.org/2000/svg" viewBox="0 0 28 28" id="icon--blocked">
    <path d="M13.991 1.978c6.6 0 12 5.4 12 12s-5.4 12-12 12-12-5.4-12-12 5.4-12 12-12m0-2c-7.7 0-14 6.3-14 14s6.3 14 14 14 14-6.3 14-14-6.3-14-14-14z"></path>
    <path d="M8.991 12.778h10v2.5h-10z"></path>
  </symbol>
  <symbol xmlns="http://www.w3.org/2000/svg" viewBox="0 0 50 50" id="icon--calendar">
    <g transform="translate(-375.241 -934.241)">
      <rect width="50" height="50" rx="6" transform="translate(375.241 934.241)" fill="#f37820"></rect>
      <g fill="none" stroke="#fff">
        <g transform="translate(389.241 949.241)" stroke-width="2">
          <rect width="23" height="22" rx="3" stroke="none"></rect>
          <rect x="1" y="1" width="21" height="20" rx="2"></rect>
        </g>
        <path stroke-linecap="round" stroke-width="2" d="M395.741 947.741v5m10-5v5"></path>
        <path d="M390.741 956.741h20"></path>
        <path stroke-linecap="round" stroke-width="2" d="M393.741 959.741h2m-2 3h2m-2 3h2m3.738-6h2m-2 3h2m-2 3h2m3.738-6h2m-2 3h2m-2 3h2"></path>
      </g>
    </g>
  </symbol>
  <symbol baseProfile="tiny" xmlns="http://www.w3.org/2000/svg" overflow="visible" viewBox="0 0 28 28" id="icon--checked">
    <path fill="#359942" d="M14.009 1.978c6.6 0 12 5.4 12 12s-5.4 12-12 12-12-5.4-12-12 5.4-12 12-12m0-2c-7.7 0-14 6.3-14 14s6.3 14 14 14 14-6.3 14-14-6.3-14-14-14z"></path>
    <path fill="#359942" d="M12.009 18.678c-.3 0-.5-.1-.7-.3l-3-3c-.4-.4-.4-1 0-1.4.4-.4 1-.4 1.4 0l2.3 2.3 6.3-6.3c.4-.4 1-.4 1.4 0 .4.4.4 1 0 1.4l-7 7c-.2.2-.4.3-.7.3z"></path>
  </symbol>
  <symbol xmlns="http://www.w3.org/2000/svg" viewBox="0 0 50 50" id="icon--checkmark">
    <g transform="translate(-375.241 -934.241)">
      <rect width="50" height="50" rx="6" transform="translate(375.241 934.241)" fill="#6ebd44"></rect>
      <path d="M409.741 952.741l-12.375 13-5.625-5.909" fill="none" stroke="#fff" stroke-linecap="round" stroke-linejoin="round" stroke-width="2"></path>
    </g>
  </symbol>
  <symbol baseProfile="tiny" xmlns="http://www.w3.org/2000/svg" overflow="visible" viewBox="0 0 28 28" id="icon--clock">
    <path d="M13.972 1.978c6.6 0 12 5.4 12 12s-5.4 12-12 12-12-5.4-12-12 5.4-12 12-12m0-2c-7.7 0-14 6.3-14 14s6.3 14 14 14 14-6.3 14-14-6.2-14-14-14z"></path>
    <path d="M19.972 15.178h-6c-.6 0-1-.4-1-1v-8.9c0-.6.4-1 1-1s1 .4 1 1v7.9h5c.6 0 1 .4 1 1s-.5 1-1 1z"></path>
  </symbol>
  <symbol xmlns="http://www.w3.org/2000/svg" viewBox="0 0 28 28" id="icon--dots">
    <path d="M13.991 1.978c6.6 0 12 5.4 12 12s-5.4 12-12 12-12-5.4-12-12 5.4-12 12-12m0-2c-7.7 0-14 6.3-14 14s6.3 14 14 14 14-6.3 14-14-6.3-14-14-14z"></path>
    <g transform="translate(-105.009 331.378)">
      <circle cx="115.5" cy="-317.4" r="1"></circle>
      <circle cx="119" cy="-317.4" r="1"></circle>
      <circle cx="122.5" cy="-317.4" r="1"></circle>
    </g>
  </symbol>
  <symbol xmlns="http://www.w3.org/2000/svg" viewBox="0 0 22.189 22" id="icon--edit">
    <g fill="none" stroke="#888b8d" stroke-linecap="round" stroke-linejoin="round" stroke-width="2">
      <path d="M9.946 3.109H2.988A1.988 1.988 0 001 5.097v13.912a1.988 1.988 0 001.988 1.988H16.9a1.988 1.988 0 001.991-1.988v-6.954"></path>
      <path d="M17.401 1.621a2.109 2.109 0 012.982 2.982l-9.443 9.443-3.976.99.994-3.976z"></path>
    </g>
  </symbol>
  <symbol xmlns="http://www.w3.org/2000/svg" viewBox="0 0 50 50" id="icon--eye">
    <g transform="translate(-945 -1092)">
      <rect width="50" height="50" rx="6" transform="translate(945 1092)" fill="#6ebd44"></rect>
      <path d="M955.143 1117.572s7.571-8 15-8 14.714 8 14.714 8-7.285 7.143-14.714 7.143-15-7.143-15-7.143z" fill="none" stroke="#fff" stroke-linecap="round" stroke-width="2"></path>
      <circle cx="3" cy="3" r="3" transform="translate(967 1114)" fill="#fff"></circle>
    </g>
  </symbol>
  <symbol xmlns="http://www.w3.org/2000/svg" viewBox="0 0 24.525 22.201" id="icon--home">
    <g fill="none">
      <path d="M7.262 22.2a3 3 0 01-3-3v-6H3.005a3 3 0 01-1.843-5.368l9.258-7.2a3 3 0 013.683 0l9.255 7.2a3 3 0 01-1.84 5.368h-1.256v6a3 3 0 01-3 3z"></path>
      <path d="M17.26 20.201c.553 0 1.002-.45 1.002-1.001v-7.999h3.257c.644 0 .876-.473.946-.676.07-.203.176-.718-.334-1.114l-9.255-7.2a.997.997 0 00-1.227 0l-9.259 7.2c-.507.395-.4.91-.33 1.113.07.204.301.677.946.677h3.257V19.2a1 1 0 00.998 1.001h10m0 2h-10A3 3 0 014.263 19.2v-5.999H3.006c-2.857 0-4.097-3.616-1.843-5.368l9.258-7.2a2.996 2.996 0 013.683 0l9.255 7.2c2.257 1.752 1.017 5.368-1.84 5.368h-1.257V19.2a3 3 0 01-3.001 3.001z" fill="#fff"></path>
    </g>
  </symbol>
  <symbol xmlns="http://www.w3.org/2000/svg" viewBox="0 0 50 50" id="icon--info-fail">
    <path d="M5.959-.041h38c3.3 0 6 2.7 6 6v38c0 3.3-2.7 6-6 6h-38c-3.3 0-6-2.7-6-6v-38c0-3.3 2.7-6 6-6z" fill="#f37820"></path>
    <path d="M33.453 34.908l2.8-2.8c.4-.4.4-1 0-1.4-.4-.4-1-.4-1.4 0l-2.8 2.8-2.8-2.8c-.4-.4-1-.4-1.4 0-.4.4-.4 1 0 1.4l2.8 2.8-2.8 2.8c-.4.4-.4 1 0 1.4.2.2.4.3.7.3.3 0 .5-.1.7-.3l2.8-2.8 2.8 2.8c.2.2.4.3.7.3.3 0 .5-.1.7-.3.4-.4.4-1 0-1.4l-2.8-2.8z"></path>
    <path d="M24.153 37.008c-6.4-.5-11.3-6-11.1-12.4.3-6.2 5.3-11.2 11.5-11.5 6.6-.3 12.2 4.9 12.5 11.5v.4c0 .9-.1 1.9-.3 2.8-.1.5.2 1 .7 1.2.5.1 1.1-.2 1.2-.7.5-2.2.5-4.5 0-6.7-1.4-5.4-5.8-9.5-11.4-10.4-7.6-1.2-14.8 4-16 11.6-.1.7-.2 1.5-.2 2.2 0 7.3 5.6 13.4 12.9 14 .6 0 1-.4 1.1-.9v-.1c-.1-.6-.4-1-.9-1z"></path>
    <g transform="translate(-314.647 382.208)">
      <circle cx="339.7" cy="-362.4" r="1.4"></circle>
      <path d="M339.8-350.7c-.6 0-1-.4-1-1v-5.5c0-.6.4-1 1-1s1 .4 1 1v5.5c0 .5-.5 1-1 1z"></path>
    </g>
  </symbol>
  <symbol xmlns="http://www.w3.org/2000/svg" viewBox="0 0 50 50" id="icon--info-success">
    <path d="M5.959-.041h38c3.3 0 6 2.7 6 6v38c0 3.3-2.7 6-6 6h-38c-3.3 0-6-2.7-6-6v-38c0-3.3 2.7-6 6-6z" fill="#70bf44"></path>
    <path d="M24.1 37.008c-6.4-.5-11.3-6-11.1-12.4.3-6.2 5.3-11.2 11.5-11.5 6.6-.3 12.2 4.9 12.5 11.5v.5c0 .9-.1 1.9-.3 2.8-.1.5.2 1 .7 1.2.5.1 1.1-.2 1.2-.7.5-2.2.5-4.5 0-6.7-1.4-5.4-5.8-9.5-11.4-10.4-7.6-1.2-14.8 4-16 11.6-.1.7-.2 1.5-.2 2.2 0 7.3 5.6 13.4 12.9 14 .6 0 1-.4 1.1-.9v-.1c0-.7-.4-1.1-.9-1.1z"></path>
    <g transform="translate(-154.5 1631.208)">
      <circle cx="179.6" cy="-1611.4" r="1.4"></circle>
      <path d="M179.6-1599.7c-.6 0-1-.4-1-1v-5.5c0-.6.4-1 1-1s1 .4 1 1v5.5c0 .5-.4 1-1 1z"></path>
    </g>
    <path d="M30.4 40.008c-.3 0-.5-.1-.7-.3l-3-3c-.4-.4-.4-1 0-1.4.4-.4 1-.4 1.4 0l2.3 2.3 6.3-6.3c.4-.4 1-.4 1.4 0 .4.4.4 1 0 1.4l-7 7c-.2.2-.5.3-.7.3z"></path>
  </symbol>
  <symbol xmlns="http://www.w3.org/2000/svg" viewBox="0 0 50 50" id="icon--list-check">
    <rect width="50" height="50" rx="6" fill="#6ebd44"></rect>
    <g fill="#fff">
      <path d="M31 11H17a5 5 0 00-5 5v18a5 5 0 005 5h7.618a.991.991 0 00.964-1.212l-.005-.02a.986.986 0 00-.963-.768H17a3 3 0 01-3-3V16a3 3 0 013-3h14a3 3 0 013 3v3.927a.989.989 0 00.818.971h.02A.984.984 0 0036 19.927v-3.931A5 5 0 0031 11z"></path>
      <path d="M29.244 19.103H18.756a1 1 0 01-1-1 1 1 0 011-1h10.488a1 1 0 011 1 1 1 0 01-1 1zm-6.876 5.196h-3.611a1 1 0 01-1-1 1 1 0 011-1h3.611a1 1 0 011 1 1 1 0 01-1 1zm0 5.422h-3.611a1 1 0 01-1-1 1 1 0 011-1h3.611a1 1 0 011 1 1 1 0 01-1 1zm10.8-5.134a6.22 6.22 0 016.213 6.213 6.22 6.22 0 01-6.213 6.213 6.22 6.22 0 01-6.212-6.213 6.22 6.22 0 016.212-6.213m0-2a8.213 8.213 0 00-8.212 8.213 8.213 8.213 0 008.212 8.213 8.213 8.213 0 008.213-8.213 8.213 8.213 0 00-8.213-8.213z"></path>
      <path d="M32.253 33.928a1 1 0 01-.707-.293l-1.825-1.825a1 1 0 010-1.414 1 1 0 011.414 0l1.118 1.118 3.551-3.551a1 1 0 011.414 0 1 1 0 010 1.414l-4.258 4.258a1 1 0 01-.707.293z"></path>
    </g>
  </symbol>
  <symbol xmlns="http://www.w3.org/2000/svg" viewBox="0 0 50 50" id="icon--list-send">
    <rect width="50" height="50" rx="6" fill="#6ebd44"></rect>
    <g fill="#fff">
      <path d="M35.628 34.257a.972.972 0 00-.785.656A2.988 2.988 0 0132 37H18a3 3 0 01-3-3V16a3 3 0 013-3h14a3 3 0 013 3v6.57a.988.988 0 00.554.885l.02.01A.987.987 0 0037 22.58V16a5 5 0 00-5-5H18a5 5 0 00-5 5v18a5 5 0 005 5h14a5 5 0 004.759-3.472 1 1 0 00-1.111-1.274z"></path>
      <path d="M30.244 19.103H19.756a1 1 0 01-1-1 1 1 0 011-1h10.488a1 1 0 011 1 1 1 0 01-1 1zm-6.877 5.196h-3.611a1 1 0 01-1-1 1 1 0 011-1h3.611a1 1 0 011 1 1 1 0 01-1 1zm0 5.422h-3.611a1 1 0 01-1-1 1 1 0 011-1h3.611a1 1 0 011 1 1 1 0 01-1 1zm4.355-5.417l11.192 4.375-11.192 4.565 2.153-4.47-2.153-4.47m0-2a2 2 0 00-1.468.641 2 2 0 00-.335 2.227l1.735 3.6-1.735 3.6a2 2 0 00.345 2.237 2 2 0 001.458.63 2 2 0 00.755-.148l11.191-4.565a2 2 0 001.245-1.866 2 2 0 00-1.272-1.849L28.45 22.436a2.011 2.011 0 00-.728-.137z"></path>
    </g>
  </symbol>
  <symbol xmlns="http://www.w3.org/2000/svg" viewBox="0 0 50 50" id="icon--message">
    <path d="M5.959-.041h38c3.3 0 6 2.7 6 6v38c0 3.3-2.7 6-6 6h-38c-3.3 0-6-2.7-6-6v-38c0-3.3 2.7-6 6-6z" fill="#70bf44"></path>
    <path d="M35.2 15.008c.5 0 .9.4.9.9v13.5c0 .5-.4.9-.9.9H21.6c-1.1 0-2.2.4-3.1 1.1l-4.2 3.4c-.1.1-.3.2-.5.2-.5 0-.9-.4-.9-.9v-18.2c0-.5.4-.9.9-.9h21.4m0-2H13.9c-1.6 0-2.9 1.3-2.9 2.9v18.2c0 1.6 1.3 2.9 2.9 2.9.7 0 1.3-.2 1.8-.6l4.2-3.4c.5-.4 1.1-.6 1.8-.6h13.6c1.6 0 2.9-1.3 2.9-2.9v-13.5c-.2-1.7-1.4-3-3-3z"></path>
    <path d="M27.3 20.208H17.2c-.6 0-1-.4-1-1s.4-1 1-1h10.1c.6 0 1 .4 1 1s-.4 1-1 1zm0 4.2H17.2c-.6 0-1-.4-1-1s.4-1 1-1h10.1c.6 0 1 .4 1 1s-.4 1-1 1z"></path>
  </symbol>
  <symbol xmlns="http://www.w3.org/2000/svg" viewBox="0 0 50 50" id="icon--message-edit">
    <path d="M5.959-.041h38c3.3 0 6 2.7 6 6v38c0 3.3-2.7 6-6 6h-38c-3.3 0-6-2.7-6-6v-38c0-3.3 2.7-6 6-6z" fill="#70bf44"></path>
    <path d="M36.19 10.967h-21.3c-1.6 0-2.9 1.3-2.9 2.9v18.1c0 1.6 1.3 2.9 2.9 2.9.7 0 1.3-.2 1.8-.6l4.2-3.4c.3-.2.7-.4 1.1-.4.6-.1.9-.7.8-1.3v-.1c-.2-.5-.7-.8-1.2-.7-.7.2-1.3.5-1.9.9l-4.2 3.4c-.1.1-.3.2-.5.2-.5 0-.9-.4-.9-.8v-18.1c0-.5.4-.9.9-.9h21.3c.5 0 .9.4.9.9v13.5c0 .5-.4.9-.9.9s-.8.4-.8.8c0 .2.1.4.3.6.1.1-.1-.1 0 0 .2.2.4.3.7.3 1.4.3 2.7-1.2 2.7-2.7v-13.5c-.2-1.6-1.5-2.9-3-2.9z"></path>
    <path d="M38.09 33.967l-7.2-7.2c-.1-.1-.2-.1-.3-.2h-.1l-6.6-2c-.4-.1-.7 0-1 .3-.3.3-.4.6-.3 1l2 6.6v.2c0 .1.1.2.2.3l7.2 7.2c.6.6 1.3.9 2.1.9s1.6-.3 2.1-.9l1.9-1.9c.6-.6.9-1.3.9-2.1 0-.9-.3-1.6-.9-2.2zm-9.8-6l-2.3 2.3-1-3.3 3.3 1zm1.9 1l4.8 4.8-3.3 3.3-4.8-4.8 3.3-3.3zm6.5 7.8l-1.9 1.9c-.4.4-1 .4-1.4 0l-.2-.2 3.3-3.3.2.2c.2.2.3.4.3.7 0 .3-.1.6-.3.7zm-8.4-18.6h-10.1c-.6 0-1-.4-1-1s.4-1 1-1h10.1c.6 0 1 .4 1 1s-.4 1-1 1zm0 4.2h-10.1c-.6 0-1-.4-1-1s.4-1 1-1h10.1c.6 0 1 .4 1 1s-.4 1-1 1z"></path>
  </symbol>
  <symbol xmlns="http://www.w3.org/2000/svg" viewBox="0 0 50 50" id="icon--message-edit-orange">
    <path d="M5.959-.041h38c3.3 0 6 2.7 6 6v38c0 3.3-2.7 6-6 6h-38c-3.3 0-6-2.7-6-6v-38c0-3.3 2.7-6 6-6z" fill="#f37921"></path>
    <path d="M36.19 10.967h-21.3c-1.6 0-2.9 1.3-2.9 2.9v18.1c0 1.6 1.3 2.9 2.9 2.9.7 0 1.3-.2 1.8-.6l4.2-3.4c.3-.2.7-.4 1.1-.4.6-.1.9-.7.8-1.3v-.1c-.2-.5-.7-.8-1.2-.7-.7.2-1.3.5-1.9.9l-4.2 3.4c-.1.1-.3.2-.5.2-.5 0-.9-.4-.9-.8v-18.1c0-.5.4-.9.9-.9h21.3c.5 0 .9.4.9.9v13.5c0 .5-.4.9-.9.9s-.8.4-.8.8c0 .2.1.4.3.6.1.1-.1-.1 0 0 .2.2.4.3.7.3 1.4.3 2.7-1.2 2.7-2.7v-13.5c-.2-1.6-1.5-2.9-3-2.9z"></path>
    <path d="M38.09 33.967l-7.2-7.2c-.1-.1-.2-.1-.3-.2h-.1l-6.6-2c-.4-.1-.7 0-1 .3-.3.3-.4.6-.3 1l2 6.6v.2c0 .1.1.2.2.3l7.2 7.2c.6.6 1.3.9 2.1.9s1.6-.3 2.1-.9l1.9-1.9c.6-.6.9-1.3.9-2.1 0-.9-.3-1.6-.9-2.2zm-9.8-6l-2.3 2.3-1-3.3 3.3 1zm1.9 1l4.8 4.8-3.3 3.3-4.8-4.8 3.3-3.3zm6.5 7.8l-1.9 1.9c-.4.4-1 .4-1.4 0l-.2-.2 3.3-3.3.2.2c.2.2.3.4.3.7 0 .3-.1.6-.3.7zm-8.4-18.6h-10.1c-.6 0-1-.4-1-1s.4-1 1-1h10.1c.6 0 1 .4 1 1s-.4 1-1 1zm0 4.2h-10.1c-.6 0-1-.4-1-1s.4-1 1-1h10.1c.6 0 1 .4 1 1s-.4 1-1 1z"></path>
  </symbol>
  <symbol xmlns="http://www.w3.org/2000/svg" viewBox="0 0 50 50" id="icon--message-orange">
    <path d="M5.959-.041h38c3.3 0 6 2.7 6 6v38c0 3.3-2.7 6-6 6h-38c-3.3 0-6-2.7-6-6v-38c0-3.3 2.7-6 6-6z" fill="#f37921"></path>
    <path d="M35.2 15.008c.5 0 .9.4.9.9v13.5c0 .5-.4.9-.9.9H21.6c-1.1 0-2.2.4-3.1 1.1l-4.2 3.4c-.1.1-.3.2-.5.2-.5 0-.9-.4-.9-.9v-18.2c0-.5.4-.9.9-.9h21.4m0-2H13.9c-1.6 0-2.9 1.3-2.9 2.9v18.2c0 1.6 1.3 2.9 2.9 2.9.7 0 1.3-.2 1.8-.6l4.2-3.4c.5-.4 1.1-.6 1.8-.6h13.6c1.6 0 2.9-1.3 2.9-2.9v-13.5c-.2-1.7-1.4-3-3-3z"></path>
    <path d="M27.3 20.208H17.2c-.6 0-1-.4-1-1s.4-1 1-1h10.1c.6 0 1 .4 1 1s-.4 1-1 1zm0 4.2H17.2c-.6 0-1-.4-1-1s.4-1 1-1h10.1c.6 0 1 .4 1 1s-.4 1-1 1z"></path>
  </symbol>
  <symbol xmlns="http://www.w3.org/2000/svg" viewBox="0 0 50 50" id="icon--message-success">
    <path d="M5.959-.041h38c3.3 0 6 2.7 6 6v38c0 3.3-2.7 6-6 6h-38c-3.3 0-6-2.7-6-6v-38c0-3.3 2.7-6 6-6z" fill="#70bf44"></path>
    <path d="M30.887 25.667c3.4 0 6.2 2.8 6.2 6.2 0 3.4-2.8 6.2-6.2 6.2-3.4 0-6.2-2.8-6.2-6.2 0-3.4 2.8-6.2 6.2-6.2m0-2c-4.5 0-8.2 3.7-8.2 8.2 0 4.5 3.7 8.2 8.2 8.2 4.5 0 8.2-3.7 8.2-8.2 0-4.5-3.6-8.2-8.2-8.2z"></path>
    <path d="M29.987 34.967c-.3 0-.5-.1-.7-.3l-1.8-1.8c-.4-.4-.4-1 0-1.4.4-.4 1-.4 1.4 0l1.1 1.1 3.6-3.6c.4-.4 1-.4 1.4 0 .4.4.4 1 0 1.4l-4.3 4.3c-.2.2-.4.3-.7.3zm-8.4-6.9c-.2-.5-.7-.8-1.2-.7-.7.2-1.3.5-1.9.9l-4.2 3.4c-.1.1-.3.2-.5.2-.5 0-.9-.4-.9-.8v-18.1c0-.5.4-.9.9-.9h21.3c.5 0 .9.4.9.9v9.7c0 .5.4 1 1 1 .5 0 1-.5 1-1v-9.7c0-1.6-1.3-2.9-2.9-2.9h-21.2c-1.6 0-2.9 1.3-2.9 2.9v18.1c0 1.6 1.3 2.9 2.9 2.9.7 0 1.3-.2 1.8-.6l4.2-3.4c.3-.2.7-.4 1.1-.4.5-.3.8-.9.6-1.5.1.1.1 0 0 0z"></path>
    <path d="M27.287 17.167h-10.1c-.6 0-1-.4-1-1s.4-1 1-1h10.1c.6 0 1 .4 1 1s-.4 1-1 1zm0 4.2h-10.1c-.6 0-1-.4-1-1s.4-1 1-1h10.1c.6 0 1 .4 1 1s-.4 1-1 1z"></path>
  </symbol>
  <symbol xmlns="http://www.w3.org/2000/svg" viewBox="0 0 50 50" id="icon--shake">
    <path d="M5.959-.041h38c3.3 0 6 2.7 6 6v38c0 3.3-2.7 6-6 6h-38c-3.3 0-6-2.7-6-6v-38c0-3.3 2.7-6 6-6z" fill="#70bf44"></path>
    <path d="M37.559 12.959h-12.8c-.7 0-1.3.1-1.9.4-1.2.6-2.2 1.4-3 2.4-.3.3-.5.7-.7 1.1h-6.1c-1.7 0-3.1 1.4-3.1 3.1v6.4c0 1.6 1.2 2.9 2.8 3l-.3.5c-.6 1.1-.3 2.5.6 3.4.5.4 1.2.5 1.8.4.2.5.6.9 1.1 1.1.5.3 1 .3 1.5.3.2.5.6.9 1.1 1.1.5.3 1 .3 1.5.3.3.6.8 1.1 1.4 1.3 1.2.4 2.5-.2 3.2-1.3l.4-.8 3.3 1.9c.4.2.8.3 1.3.3.9 0 1.8-.5 2.2-1.3.2-.3.3-.7.3-1.1.8-.1 1.6-.5 2-1.3.2-.3.3-.7.3-1.1.1 0 .3 0 .4-.1.7-.2 1.2-.6 1.6-1.2.2-.4.4-.9.3-1.3.6-.2 1.1-.5 1.5-1 .8-1.3.4-2.9-.8-3.7-.1 0-.1-.1-.2-.1l-.6-.4h.6c1.7 0 3.1-1.4 3.1-3.1v-6.3c.3-1.5-1-2.9-2.8-2.9zm-18.6 4.5c0-.1.1-.2.1-.2s-.1.1-.1.2zm-6.8 8.8v-6.3c0-.5.4-1 1-1h5.3c-.2.7-.5 1.4-.8 2.2-.3.9-.6 1.8-.8 2.2-.5.8-.5 1.7-.2 2.5.3.6.8 1 1.5 1.1.2 0 .5.1.7.1 1.7-.1 3.2-1.1 4-2.6.3-.5.5-1 .7-1.5.3-.7.6-1.3 1-1.9.1-.2.4-.3.6-.4.4 0 .8.1 1.1.3l10.8 6.2c.3.1.4.4.5.7.1.3 0 .6-.1.8-.2.3-.6.5-.9.5-.2 0-.4-.1-.5-.1l-5.3-3.1c-.1 0-.2-.1-.2-.1-.2 0-.3.1-.4.2-.1.1-.1.3-.1.4 0 .1.1.3.2.3l5 2.9c.2.1.4.4.5.7.1.3 0 .6-.1.8-.1.3-.4.4-.7.5h-.3c-.2 0-.4-.1-.5-.1l-5.2-3c-.1 0-.2-.1-.2-.1-.2 0-.3.1-.4.2-.1.1-.1.2-.1.4 0 .1.1.2.2.3l4.5 2.6c.5.3.7 1 .4 1.5-.2.3-.6.5-.9.5-.2 0-.4-.1-.5-.1l-4.8-2.7c-.1 0-.2-.1-.3-.1-.2 0-.3.1-.4.2-.1.1-.1.3-.1.4 0 .1.1.3.3.3l4.1 2.3c.5.3.7 1 .4 1.5-.2.3-.6.5-.9.5-.2 0-.4-.1-.5-.1l-3.5-2c.3-1.1-.2-2.2-1.2-2.8-.5-.3-1-.3-1.5-.3-.2-.5-.6-.9-1.1-1.1-.5-.3-1-.3-1.5-.3-.2-.5-.6-.9-1.1-1.1-.5-.3-1-.3-1.5-.3-.2-.5-.6-.9-1.1-1.1-.7-.4-1.5-.4-2.3-.1h-1.4c-1 .2-1.4-.3-1.4-.8zm11.3 9.7c-.2.3-.5.5-.9.5-.2 0-.3 0-.5-.1-.5-.3-.7-.9-.4-1.4l1-1.8c.2-.3.5-.5.9-.5.2 0 .3 0 .5.1s.4.3.5.6c.1.3 0 .5-.1.8l-1 1.8zm-9.7-5.2l1-1.8c.2-.3.5-.5.9-.5.2 0 .3 0 .5.1.5.3.7.9.4 1.4l-1 1.8c-.2.3-.5.5-.9.5-.2 0-.3 0-.5-.1-.5-.3-.7-.9-.4-1.4zm2.6 1.4l1-1.8c.2-.3.5-.5.9-.5.2 0 .3 0 .5.1s.4.3.5.6c.1.3 0 .5-.1.8l-1 1.8c-.2.3-.5.5-.9.5-.2 0-.3 0-.5-.1-.5-.3-.6-.9-.4-1.4zm2.7 1.5l1-1.8c.2-.3.5-.5.9-.5.2 0 .3 0 .5.1s.4.3.5.6c.1.3 0 .5-.1.8l-.9 1.8c-.2.3-.5.5-.9.5-.2 0-.3 0-.5-.1-.6-.3-.8-1-.5-1.4zm19.5-11.2c0 .5-.4 1-1 1h-5.3l-7.4-4.2c-.2-.1-.4-.2-.7-.2h-.3c-1.2.3-1.8 1.8-2.4 3.2l-.6 1.2c-.3.4-1.3 1.8-2.5 1.6 0-.2.1-.5.2-.7.3-.8.6-1.6.9-2.5.5-1.7 1.1-3.3 1.9-4.8.6-.7 1.3-1.3 2.2-1.7.4-.1.8-.2 1.1-.2h12.8c.5 0 1 .4 1 1l.1 6.3z" fill="#fff"></path>
  </symbol>
  <symbol xmlns="http://www.w3.org/2000/svg" viewBox="0 0 50 50" id="icon--shake-orange">
    <path d="M5.959-.041h38c3.3 0 6 2.7 6 6v38c0 3.3-2.7 6-6 6h-38c-3.3 0-6-2.7-6-6v-38c0-3.3 2.7-6 6-6z" fill="#f37921"></path>
    <path d="M37.559 12.959h-12.8c-.7 0-1.3.1-1.9.4-1.2.6-2.2 1.4-3 2.4-.3.3-.5.7-.7 1.1h-6.1c-1.7 0-3.1 1.4-3.1 3.1v6.4c0 1.6 1.2 2.9 2.8 3l-.3.5c-.6 1.1-.3 2.5.6 3.4.5.4 1.2.5 1.8.4.2.5.6.9 1.1 1.1.5.3 1 .3 1.5.3.2.5.6.9 1.1 1.1.5.3 1 .3 1.5.3.3.6.8 1.1 1.4 1.3 1.2.4 2.5-.2 3.2-1.3l.4-.8 3.3 1.9c.4.2.8.3 1.3.3.9 0 1.8-.5 2.2-1.3.2-.3.3-.7.3-1.1.8-.1 1.6-.5 2-1.3.2-.3.3-.7.3-1.1.1 0 .3 0 .4-.1.7-.2 1.2-.6 1.6-1.2.2-.4.4-.9.3-1.3.6-.2 1.1-.5 1.5-1 .8-1.3.4-2.9-.8-3.7-.1 0-.1-.1-.2-.1l-.6-.4h.6c1.7 0 3.1-1.4 3.1-3.1v-6.3c.3-1.5-1-2.9-2.8-2.9zm-18.6 4.5c0-.1.1-.2.1-.2s-.1.1-.1.2zm-6.8 8.8v-6.3c0-.5.4-1 1-1h5.3c-.2.7-.5 1.4-.8 2.2-.3.9-.6 1.8-.8 2.2-.5.8-.5 1.7-.2 2.5.3.6.8 1 1.5 1.1.2 0 .5.1.7.1 1.7-.1 3.2-1.1 4-2.6.3-.5.5-1 .7-1.5.3-.7.6-1.3 1-1.9.1-.2.4-.3.6-.4.4 0 .8.1 1.1.3l10.8 6.2c.3.1.4.4.5.7.1.3 0 .6-.1.8-.2.3-.6.5-.9.5-.2 0-.4-.1-.5-.1l-5.3-3.1c-.1 0-.2-.1-.2-.1-.2 0-.3.1-.4.2-.1.1-.1.3-.1.4 0 .1.1.3.2.3l5 2.9c.2.1.4.4.5.7.1.3 0 .6-.1.8-.1.3-.4.4-.7.5h-.3c-.2 0-.4-.1-.5-.1l-5.2-3c-.1 0-.2-.1-.2-.1-.2 0-.3.1-.4.2-.1.1-.1.2-.1.4 0 .1.1.2.2.3l4.5 2.6c.5.3.7 1 .4 1.5-.2.3-.6.5-.9.5-.2 0-.4-.1-.5-.1l-4.8-2.7c-.1 0-.2-.1-.3-.1-.2 0-.3.1-.4.2-.1.1-.1.3-.1.4 0 .1.1.3.3.3l4.1 2.3c.5.3.7 1 .4 1.5-.2.3-.6.5-.9.5-.2 0-.4-.1-.5-.1l-3.5-2c.3-1.1-.2-2.2-1.2-2.8-.5-.3-1-.3-1.5-.3-.2-.5-.6-.9-1.1-1.1-.5-.3-1-.3-1.5-.3-.2-.5-.6-.9-1.1-1.1-.5-.3-1-.3-1.5-.3-.2-.5-.6-.9-1.1-1.1-.7-.4-1.5-.4-2.3-.1h-1.4c-1 .2-1.4-.3-1.4-.8zm11.3 9.7c-.2.3-.5.5-.9.5-.2 0-.3 0-.5-.1-.5-.3-.7-.9-.4-1.4l1-1.8c.2-.3.5-.5.9-.5.2 0 .3 0 .5.1s.4.3.5.6c.1.3 0 .5-.1.8l-1 1.8zm-9.7-5.2l1-1.8c.2-.3.5-.5.9-.5.2 0 .3 0 .5.1.5.3.7.9.4 1.4l-1 1.8c-.2.3-.5.5-.9.5-.2 0-.3 0-.5-.1-.5-.3-.7-.9-.4-1.4zm2.6 1.4l1-1.8c.2-.3.5-.5.9-.5.2 0 .3 0 .5.1s.4.3.5.6c.1.3 0 .5-.1.8l-1 1.8c-.2.3-.5.5-.9.5-.2 0-.3 0-.5-.1-.5-.3-.6-.9-.4-1.4zm2.7 1.5l1-1.8c.2-.3.5-.5.9-.5.2 0 .3 0 .5.1s.4.3.5.6c.1.3 0 .5-.1.8l-.9 1.8c-.2.3-.5.5-.9.5-.2 0-.3 0-.5-.1-.6-.3-.8-1-.5-1.4zm19.5-11.2c0 .5-.4 1-1 1h-5.3l-7.4-4.2c-.2-.1-.4-.2-.7-.2h-.3c-1.2.3-1.8 1.8-2.4 3.2l-.6 1.2c-.3.4-1.3 1.8-2.5 1.6 0-.2.1-.5.2-.7.3-.8.6-1.6.9-2.5.5-1.7 1.1-3.3 1.9-4.8.6-.7 1.3-1.3 2.2-1.7.4-.1.8-.2 1.1-.2h12.8c.5 0 1 .4 1 1l.1 6.3z" fill="#fff"></path>
  </symbol>
  <symbol xmlns="http://www.w3.org/2000/svg" viewBox="0 0 50 50" id="icon--stripes">
    <g transform="translate(-375.241 -934.241)">
      <rect width="50" height="50" rx="6" transform="translate(375.241 934.241)" fill="#00a0df"></rect>
      <path fill="#fff" d="M397.241 954.241h7v30h-7z"></path>
      <g fill="#f37820" stroke="#fff">
        <path d="M385.241 947.241h30v7h-30z" stroke="none"></path>
        <path fill="none" d="M385.741 947.741h29v6h-29z"></path>
      </g>
    </g>
  </symbol>
  <symbol xmlns="http://www.w3.org/2000/svg" viewBox="0 0 50 50" id="icon--ten">
    <rect width="50" height="50" rx="6" fill="#fff"></rect><text transform="translate(25 34)" fill="#333" font-size="23" font-family="OpenSans, Open Sans">
      <tspan x="-13.151" y="0">10</tspan>
    </text>
  </symbol>
  <symbol xmlns="http://www.w3.org/2000/svg" viewBox="0 0 21 21" id="info">
    <path d="M10.5 15.5c-.6 0-1-.4-1-1v-4c0-.6.4-1 1-1s1 .4 1 1v4c0 .6-.4 1-1 1z"></path>
    <circle cx="10.5" cy="6.5" r="1"></circle>
    <path d="M10.5 0C4.7 0 0 4.7 0 10.5S4.7 21 10.5 21 21 16.3 21 10.5 16.3 0 10.5 0zm0 19C5.8 19 2 15.2 2 10.5S5.8 2 10.5 2 19 5.8 19 10.5 15.2 19 10.5 19z"></path>
  </symbol>
  <symbol xmlns="http://www.w3.org/2000/svg" preserveAspectRatio="xMidYMid" display="block" viewBox="0 0 100 100" id="loading">
    <circle cx="50" cy="50" fill="none" stroke="#e15b64" stroke-width="10" r="35" stroke-dasharray="164.93361431346415 56.97787143782138">
      <animateTransform attributeName="transform" type="rotate" repeatCount="indefinite" dur="1s" values="0 50 50;360 50 50" keyTimes="0;1"></animateTransform>
    </circle>
  </symbol>
  <symbol xmlns="http://www.w3.org/2000/svg" viewBox="0 0 65 65" id="mail">
    <path d="M25 42c-1.7 0-3-1.3-3-3V27c0-1.7 1.4-3 3-3h16c1.7 0 3 1.3 3 3v12c0 1.6-1.3 3-3 3H25zm0-16c-.6 0-1 .5-1 1v12c0 .5.5 1 1 1h16c.5 0 1-.5 1-1V27c0-.5-.5-1-1-1H25z"></path>
    <path d="M33 35c-.2 0-.4-.1-.6-.2l-10-7c-.5-.3-.6-.9-.2-1.4.3-.5.9-.6 1.4-.2l9.4 6.6 9.4-6.6c.5-.3 1.1-.2 1.4.2.3.5.2 1.1-.2 1.4l-10 7c-.2.1-.4.2-.6.2z"></path>
  </symbol>
  <symbol xmlns="http://www.w3.org/2000/svg" viewBox="0 0 50 50" id="mapping">
    <path d="M37.081 33.7c-.7 0-1.2.6-1.2 1.3v11.3c0 .7-.6 1.2-1.2 1.3h-30.9c-.7 0-1.2-.6-1.2-1.3V3.8c0-.7.6-1.2 1.2-1.3h30.8c.7 0 1.2.6 1.2 1.3v5.3c0 .7.6 1.3 1.3 1.3s1.3-.6 1.3-1.3V3.8c0-2.1-1.7-3.7-3.7-3.8h-30.9c-2.1 0-3.7 1.7-3.7 3.8v42.5c0 2.1 1.7 3.7 3.7 3.8h30.8c2.1 0 3.7-1.7 3.7-3.8V35c0-.7-.6-1.3-1.2-1.3z"></path>
    <path d="M49.181 14.5l-4.7-4.7c-1.1-1.1-3-1.1-4.1 0l-11.8 11.8c-.1.1-.2.2-.2.3v.2l-2.9 10c-.2.7.2 1.4.8 1.6.2.1.5.1.7 0l10-2.9c.1 0 .1-.1.2-.1h.1c.1 0 .2-.1.2-.2l11.8-11.8c1-1.2 1-3-.1-4.2zm-10.3.3l5.3 5.3-7.7 7.7-5.3-5.3 7.7-7.7zm-10.5 15.9l1.7-5.8 4.1 4.1-5.8 1.7zm19-13.8l-1.5 1.5-5.3-5.3 1.5-1.5c.2-.2.4-.2.6 0l4.7 4.7c.2.2.2.4 0 .6zm-39.5 25.6h22.5c.7 0 1.3-.6 1.3-1.3s-.6-1.3-1.3-1.3h-22.5c-.7 0-1.3.6-1.3 1.3s.6 1.3 1.3 1.3zm-1.2-8.7c0 .7.6 1.2 1.2 1.3h12.5c.7 0 1.3-.6 1.3-1.3s-.6-1.3-1.3-1.3h-12.5c-.7 0-1.2.6-1.2 1.3zm-.4-9.3c0 .7.6 1.2 1.2 1.3h5.4c.7 0 1.2-.6 1.2-1.3v-5.4c0-.7-.6-1.2-1.2-1.3h-5.4c-.7 0-1.2.6-1.2 1.3v5.4zm2.5-4.1h2.9v2.9h-2.9v-2.9zm15 5.4c.7 0 1.2-.6 1.2-1.3v-5.4c0-.7-.6-1.2-1.2-1.3h-5.4c-.7 0-1.2.6-1.2 1.3v5.4c0 .7.6 1.2 1.2 1.3h5.4zm-4.2-5.4h3v2.9h-3v-2.9zm-6.7-13.3h-5.4c-.7 0-1.2.6-1.2 1.3v5.4c0 .7.6 1.2 1.2 1.3h5.4c.7 0 1.2-.6 1.2-1.3V8.4c.1-.8-.5-1.3-1.2-1.3zm-1.2 5.4h-2.9V9.6h2.9v2.9zm12.1-5.4h-5.4c-.7 0-1.2.6-1.2 1.3v5.4c0 .7.6 1.2 1.2 1.3h5.4c.7 0 1.2-.6 1.2-1.3V8.4c.1-.8-.5-1.3-1.2-1.3zm-1.2 5.4h-3V9.6h3v2.9z"></path>
  </symbol>
  <symbol xmlns="http://www.w3.org/2000/svg" viewBox="0 0 60 60" id="mapping-gray">
    <path d="M47.081 38.7c-.7 0-1.2.6-1.2 1.3v11.3c0 .7-.6 1.2-1.2 1.3h-30.9c-.7 0-1.2-.6-1.2-1.3V8.8c0-.7.6-1.2 1.2-1.3h30.8c.7 0 1.2.6 1.2 1.3v5.3c0 .7.6 1.3 1.3 1.3s1.3-.6 1.3-1.3V8.8c0-2.1-1.7-3.7-3.7-3.8h-30.9c-2.1 0-3.7 1.7-3.7 3.8v42.5c0 2.1 1.7 3.7 3.7 3.8h30.8c2.1 0 3.7-1.7 3.7-3.8V40c0-.7-.6-1.3-1.2-1.3z"></path>
    <path d="M59.181 19.5l-4.7-4.7c-1.1-1.1-3-1.1-4.1 0l-11.8 11.8c-.1.1-.2.2-.2.3v.2l-2.9 10c-.2.7.2 1.4.8 1.6.2.1.5.1.7 0l10-2.9c.1 0 .1-.1.2-.1h.1c.1 0 .2-.1.2-.2l11.8-11.8c1-1.2 1-3-.1-4.2zm-10.3.3l5.3 5.3-7.7 7.7-5.3-5.3 7.7-7.7zm-10.5 15.9l1.7-5.8 4.1 4.1-5.8 1.7zm19-13.8l-1.5 1.5-5.3-5.3 1.5-1.5c.2-.2.4-.2.6 0l4.7 4.7c.2.2.2.4 0 .6zm-39.5 25.6h22.5c.7 0 1.3-.6 1.3-1.3s-.6-1.3-1.3-1.3h-22.5c-.7 0-1.3.6-1.3 1.3s.6 1.3 1.3 1.3zm-1.2-8.7c0 .7.6 1.2 1.2 1.3h12.5c.7 0 1.3-.6 1.3-1.3s-.6-1.3-1.3-1.3h-12.5c-.7 0-1.2.6-1.2 1.3zm-.4-9.3c0 .7.6 1.2 1.2 1.3h5.4c.7 0 1.2-.6 1.2-1.3v-5.4c0-.7-.6-1.2-1.2-1.3h-5.4c-.7 0-1.2.6-1.2 1.3v5.4zm2.5-4.1h2.9v2.9h-2.9v-2.9zm15 5.4c.7 0 1.2-.6 1.2-1.3v-5.4c0-.7-.6-1.2-1.2-1.3h-5.4c-.7 0-1.2.6-1.2 1.3v5.4c0 .7.6 1.2 1.2 1.3h5.4zm-4.2-5.4h3v2.9h-3v-2.9zm-6.7-13.3h-5.4c-.7 0-1.2.6-1.2 1.3v5.4c0 .7.6 1.2 1.2 1.3h5.4c.7 0 1.2-.6 1.2-1.3v-5.4c.1-.8-.5-1.3-1.2-1.3zm-1.2 5.4h-2.9v-2.9h2.9v2.9zm12.1-5.4h-5.4c-.7 0-1.2.6-1.2 1.3v5.4c0 .7.6 1.2 1.2 1.3h5.4c.7 0 1.2-.6 1.2-1.3v-5.4c.1-.8-.5-1.3-1.2-1.3zm-1.2 5.4h-3v-2.9h3v2.9z"></path>
  </symbol>
  <symbol xmlns="http://www.w3.org/2000/svg" viewBox="0 0 32 32" id="minus">
    <path d="M26.8 17.2H5.2c-.7 0-1.2-.6-1.2-1.2s.6-1.2 1.2-1.2h21.6c.6 0 1.2.6 1.2 1.2s-.4 1.2-1.2 1.2z" fill="#fff"></path>
  </symbol>
  <symbol xmlns="http://www.w3.org/2000/svg" viewBox="0 0 60 60" id="notes">
    <path d="M40.77 49.97H18.95c-3.01 0-5.45-2.45-5.45-5.45v-29.1c0-3.01 2.45-5.45 5.45-5.45H33.5c.48 0 .94.19 1.29.53L45.7 21.41c.34.34.53.8.53 1.29v21.82c-.01 3-2.46 5.45-5.46 5.45zM18.95 13.6c-1 0-1.82.82-1.82 1.82v29.09c0 1 .82 1.82 1.82 1.82h21.82c1 0 1.82-.81 1.82-1.82V23.45l-9.84-9.84h-13.8z"></path>
    <path d="M44.4 24.51H33.49c-1 0-1.82-.81-1.82-1.82v-10.9a1.82 1.82 0 013.64 0v9.09h9.09c1 0 1.82.81 1.82 1.82 0 1-.81 1.81-1.82 1.81zm-7.27 9.1H22.58a1.82 1.82 0 010-3.64h14.55a1.82 1.82 0 010 3.64zm0 7.27H22.58a1.82 1.82 0 010-3.64h14.55c1 0 1.82.81 1.82 1.82 0 1-.82 1.82-1.82 1.82zM26.22 26.33h-3.64a1.82 1.82 0 010-3.64h3.64a1.82 1.82 0 010 3.64z"></path>
  </symbol>
  <symbol xmlns="http://www.w3.org/2000/svg" viewBox="0 0 60 60" id="nub">
    <path d="M48.2 27.7c-2.3 0-4.2-1.9-4.2-4.2s1.9-4.2 4.2-4.2c2.3 0 4.2 1.9 4.2 4.2s-1.9 4.2-4.2 4.2zm-30.8 9.6c-5.1-.4-8.4-5.4-9.9-8.3-.1-.1 0-.3 0-.4 0-.1.1-.2.3-.2l3.4-.9c.2 0 .4 0 .5.2 1 1.9 3.8 6.1 8.8 6.2h.2c5-.1 7.8-4.4 8.8-6.2.1-.2.3-.2.5-.2l3.4.9c.2 0 .3.2.3.2 0 .1.1.2 0 .4-1.5 2.9-4.9 7.9-9.9 8.3-1.1.1-1.9 1-1.9 2.1v2.1h-2.3v-2.1c-.3-1.1-1.1-2-2.2-2.1zM15 7.5c1.2 0 2.1.9 2.1 2.1s-.9 2.1-2.1 2.1c-1.1 0-2.1-.9-2.1-2.1s1-2.1 2.1-2.1zm11 4.2c-1.1 0-2.1-.9-2.1-2.1s.9-2.1 2.1-2.1 2.1.9 2.1 2.1-1 2.1-2.1 2.1zm28.9 11.8a6.7 6.7 0 00-13.4 0c0 3.3 2.3 6 5.5 6.6v19.5c0 1.6-1.3 2.9-2.9 2.9H24.7c-1.6 0-2.9-1.3-2.9-2.9v-5.5h.3c1.2 0 2.1-.9 2.1-2.1v-2.2c6-.7 9.8-6.3 11.5-9.6.4-.8.5-1.7.1-2.6-.4-.8-1.1-1.4-2-1.6l-.2-.1 2.2-11.5c.3-1.6-.1-3.3-1.2-4.5-1-1.3-2.6-2-4.2-2h-.1C29.6 6.2 28 5 26 5c-2.5 0-4.6 2.1-4.6 4.6s2.1 4.6 4.6 4.6c2.3 0 4.1-1.6 4.5-3.8.8 0 1.6.4 2.2 1.1.6.7.8 1.6.6 2.4l-2.1 11.4-.7-.2c-1.3-.3-2.7.3-3.3 1.5-1 1.8-3.1 4.9-6.7 4.9-3.5 0-5.7-3.1-6.7-4.9-.6-1.2-2-1.8-3.3-1.5l-.7.2-2.1-11.4c-.2-.9.1-1.8.6-2.4.6-.7 1.4-1.1 2.2-1.1.4 2.1 2.3 3.8 4.5 3.8 2.5 0 4.6-2.1 4.6-4.6S17.6 5 15 5c-1.9 0-3.6 1.2-4.3 2.9h-.2c-1.6 0-3.2.7-4.2 2s-1.5 2.9-1.2 4.5l2.2 11.5-.2.1c-.9.2-1.6.8-2 1.6s-.3 1.8.1 2.6c1.7 3.3 5.5 8.9 11.5 9.6V42c0 1.2.9 2.1 2.1 2.1h.4v5.5c0 3 2.4 5.5 5.5 5.5H44c3 0 5.5-2.5 5.5-5.5V30.1c3.1-.6 5.4-3.4 5.4-6.6z" fill="#fff"></path>
  </symbol>
  <symbol xmlns="http://www.w3.org/2000/svg" viewBox="0 0 60 60" id="nub-gray">
    <path d="M48.21 27.66c-2.31 0-4.19-1.89-4.19-4.2s1.88-4.2 4.19-4.2c2.31 0 4.19 1.89 4.19 4.2s-1.88 4.2-4.19 4.2zM17.39 37.3c-5.05-.4-8.38-5.38-9.92-8.31a.41.41 0 01-.01-.36c.03-.07.11-.19.28-.24l3.4-.85c.18-.05.38.03.46.19.99 1.86 3.81 6.14 8.81 6.22v.01h.14v-.01c5-.08 7.83-4.37 8.81-6.22.08-.16.27-.24.46-.19l3.4.85c.18.04.25.17.29.24.03.07.07.21-.01.36-1.53 2.93-4.86 7.91-9.92 8.31-1.07.08-1.91 1-1.91 2.09v2.14H19.3v-2.14c0-1.09-.84-2.01-1.91-2.09zM15.04 7.49a2.1 2.1 0 110 4.2 2.1 2.1 0 010-4.2zM26 11.69a2.1 2.1 0 110-4.2 2.1 2.1 0 010 4.2zm28.91 11.77c0-3.71-3-6.72-6.7-6.72s-6.7 3.01-6.7 6.72a6.72 6.72 0 005.45 6.6v19.45c0 1.62-1.32 2.94-2.93 2.94H24.74c-1.62 0-2.93-1.32-2.93-2.94v-5.46h.28a2.1 2.1 0 002.1-2.1v-2.18c6.02-.7 9.8-6.29 11.53-9.61.42-.8.45-1.74.08-2.56a2.917 2.917 0 00-1.97-1.65l-.23-.06 2.18-11.49c.3-1.6-.12-3.25-1.15-4.5a5.426 5.426 0 00-4.2-1.98h-.15A4.58 4.58 0 0026 4.97c-2.55 0-4.61 2.07-4.61 4.62s2.06 4.62 4.61 4.62c2.26 0 4.13-1.63 4.53-3.77.84.03 1.63.4 2.17 1.06.56.68.79 1.56.62 2.43l-2.15 11.35-.73-.18c-1.31-.33-2.66.27-3.29 1.46-.96 1.82-3.11 4.85-6.66 4.89-3.55-.04-5.7-3.08-6.66-4.89a2.912 2.912 0 00-3.29-1.45l-.73.18-2.16-11.37c-.17-.86.06-1.75.62-2.43.55-.67 1.37-1.06 2.23-1.06.4 2.15 2.27 3.78 4.53 3.78 2.55 0 4.61-2.07 4.61-4.62s-2.06-4.62-4.61-4.62a4.61 4.61 0 00-4.29 2.94h-.21c-1.63 0-3.16.72-4.2 1.98a5.426 5.426 0 00-1.15 4.5l2.18 11.49-.23.06c-.88.22-1.6.82-1.97 1.65-.37.83-.34 1.76.08 2.56 1.74 3.32 5.51 8.91 11.53 9.61v2.18c0 1.16.94 2.1 2.1 2.1h.42v5.46c0 3.01 2.44 5.46 5.45 5.46h19.27c3 0 5.45-2.45 5.45-5.46V30.06a6.711 6.711 0 005.45-6.6z" fill="#333"></path>
  </symbol>
  <symbol xmlns="http://www.w3.org/2000/svg" viewBox="0 0 22 22" id="orb-notes">
    <circle cx="11" cy="11" r="10.5" fill="#e5e5e5"></circle>
    <path d="M11 21.5C5.21 21.5.5 16.79.5 11S5.21.5 11 .5 21.5 5.21 21.5 11 16.79 21.5 11 21.5zm0-20.05c-5.26 0-9.55 4.28-9.55 9.55s4.28 9.54 9.55 9.54 9.55-4.28 9.55-9.54S16.26 1.45 11 1.45z" fill="#fff"></path>
    <path d="M14.44 6.12c-.52-.52-1.36-.52-1.88 0L7.18 11.5c-.01.01-.01.01-.01.02a.56.56 0 00-.1.15c-.01.01-.01.02-.02.04-.01.01-.01.01-.01.02l-1.46 4.45c-.07.2-.01.43.14.58a.56.56 0 00.58.14l4.45-1.46c.01 0 .01-.01.02-.01.04-.01.07-.03.1-.05l.02-.01.1-.07 5.38-5.38c.25-.25.39-.59.39-.94s-.14-.69-.39-.94l-1.93-1.92zM11.88 8.4l2.19 2.18-3.5 3.49-2.19-2.18 3.5-3.49zm-4.87 7.05l.82-2.5 1.68 1.68-2.5.82zm8.54-6.34l-.67.67-2.19-2.18.67-.67a.2.2 0 01.27 0l1.92 1.92c.04.04.06.08.06.13 0 .04-.03.09-.06.13z" fill="#1d75bc"></path>
  </symbol>
  <symbol xmlns="http://www.w3.org/2000/svg" viewBox="0 0 22 22" id="orb-tasks-orange">
    <circle cx="11" cy="11" r="10.5" fill="#f27821"></circle>
    <path d="M11 21.5C5.21 21.5.5 16.79.5 11S5.21.5 11 .5 21.5 5.21 21.5 11 16.79 21.5 11 21.5zm0-20.05c-5.26 0-9.55 4.28-9.55 9.55 0 5.26 4.28 9.55 9.55 9.55s9.55-4.28 9.55-9.55c0-5.26-4.29-9.55-9.55-9.55z"></path>
    <path d="M9.96 15.66c0-.42.11-.73.34-.95s.55-.32.98-.32c.41 0 .73.11.96.33s.34.53.34.94c0 .39-.11.7-.34.93-.23.23-.55.34-.96.34-.42 0-.74-.11-.97-.33-.23-.22-.35-.54-.35-.94zm2.23-2.55h-1.82l-.38-7.29h2.58l-.38 7.29z"></path>
  </symbol>
  <symbol xmlns="http://www.w3.org/2000/svg" viewBox="0 0 22 22" id="orb-tasks-yellow">
    <circle cx="11" cy="11" r="10.5" fill="#f4ac23"></circle>
    <path d="M11 21.5C5.21 21.5.5 16.79.5 11S5.21.5 11 .5 21.5 5.21 21.5 11 16.79 21.5 11 21.5zm0-20.05c-5.26 0-9.55 4.28-9.55 9.55 0 5.26 4.28 9.55 9.55 9.55s9.55-4.28 9.55-9.55c0-5.26-4.29-9.55-9.55-9.55z"></path>
    <path d="M9.96 15.66c0-.42.11-.73.34-.95s.55-.32.98-.32c.41 0 .73.11.96.33s.34.53.34.94c0 .39-.11.7-.34.93-.23.23-.55.34-.96.34-.42 0-.74-.11-.97-.33-.23-.22-.35-.54-.35-.94zm2.23-2.55h-1.82l-.38-7.29h2.58l-.38 7.29z"></path>
  </symbol>
  <symbol xmlns="http://www.w3.org/2000/svg" viewBox="0 0 65 65" id="print">
    <path d="M39 31.1c-.6 0-1-.4-1-1v-6H28v6c0 .6-.4 1-1 1s-1-.4-1-1v-7c0-.6.4-1 1-1h12c.6 0 1 .4 1 1v7c0 .6-.4 1-1 1z"></path>
    <path d="M41 40.1h-2c-.6 0-1-.4-1-1s.4-1 1-1h2c.6 0 1-.4 1-1v-5c0-.6-.4-1-1-1H25c-.6 0-1 .4-1 1v5c0 .6.4 1 1 1h2c.6 0 1 .4 1 1s-.4 1-1 1h-2c-1.7 0-3-1.3-3-3v-5c0-1.7 1.3-3 3-3h16c1.7 0 3 1.3 3 3v5c0 1.7-1.3 3-3 3z"></path>
    <path d="M39 44.1H27c-.6 0-1-.4-1-1v-8c0-.6.4-1 1-1h12c.6 0 1 .4 1 1v8c0 .6-.4 1-1 1zm-11-2h10v-6H28v6z"></path>
  </symbol>
  <symbol xmlns="http://www.w3.org/2000/svg" viewBox="0 0 60 60" id="refresh">
    <path d="M7.9 25.4c1.8 0 3.4-1.1 4.1-2.7C14.9 15.8 21.7 11 29.6 11c4.3 0 8.3 1.5 11.5 4l-2.5.4c-.9.1-1.5.8-1.6 1.7-.1.9.3 1.7 1.1 2l13.8 6.2c.6.3 1.3.2 1.9-.1.6-.4.9-1 .9-1.6l.1-15.2c0-.9-.6-1.6-1.4-1.9-.8-.3-1.7.1-2.2.8l-2 2.7c-5-5-12-8-19.6-8C18 2 8 9 3.8 19.1c-.6 1.4-.4 3 .4 4.3.8 1.2 2.2 2 3.7 2zM55 36.6c-.8-1.3-2.2-2-3.8-2-1.8 0-3.4 1.1-4.1 2.7C44.2 44.2 37.5 49 29.6 49c-4.3 0-8.3-1.5-11.5-4l2.5-.4c.9-.1 1.5-.8 1.6-1.7.1-.9-.3-1.7-1.1-2L7.3 34.7c-.6-.3-1.3-.2-1.9.1-.6.4-.9 1-.9 1.6v15.3c0 .9.6 1.6 1.4 1.9.8.3 1.7-.1 2.2-.8l1.9-2.9c5.1 5 12 8.1 19.6 8.1 11.6 0 21.5-7.1 25.8-17.1.6-1.5.4-3.1-.4-4.3z"></path>
  </symbol>
  <symbol xmlns="http://www.w3.org/2000/svg" viewBox="0 0 50 50" id="rmp">
    <path d="M8 34.3c-.7 0-1.3.5-1.3 1.2l-.1 2.4c-2.2-3.1-3.5-6.7-3.9-10.4-.4-3.9.2-7.8 1.7-11.4.2-.5 0-1.1-.4-1.5-.5-.4-1.3-.3-1.8.2-.1.1-.1.2-.2.3-1.7 4-2.4 8.3-1.9 12.6.5 4.4 2.1 8.6 4.8 12.2L2 39.8c-.7 0-1.3.5-1.3 1.2s.5 1.3 1.2 1.3l6.9.2.2-6.9c.2-.7-.3-1.3-1-1.3zM34.3 42c0 .7.5 1.3 1.2 1.3l2.5.1c-3.1 2.2-6.7 3.6-10.5 4-3.9.4-7.8-.2-11.4-1.7-.5-.2-1.1-.1-1.5.4-.4.5-.3 1.3.2 1.8.1.1.2.1.3.2 4 1.7 8.3 2.4 12.6 1.9 4.4-.5 8.6-2.1 12.1-4.7l-.1 2.8c0 .7.5 1.3 1.2 1.3s1.3-.5 1.3-1.2l.2-6.9-6.9-.2c-.6-.3-1.2.2-1.2.9zM15.7 8c0-.7-.5-1.3-1.2-1.3L12 6.6c3.1-2.2 6.7-3.6 10.5-4 3.9-.4 7.8.2 11.4 1.7.5.3 1.1.1 1.5-.3.4-.5.3-1.3-.2-1.8-.1-.1-.2-.1-.3-.2C30.9.3 26.6-.4 22.3.1c-4.4.5-8.6 2.1-12.1 4.8l.1-2.8c0-.7-.5-1.3-1.2-1.3-.8 0-1.3.5-1.4 1.2l-.2 7 6.9.2c.7 0 1.3-.5 1.3-1.2zm34.1 14.3c-.5-4.4-2.1-8.5-4.7-12.1l2.8.1c.7 0 1.3-.5 1.3-1.2s-.5-1.3-1.2-1.3l-7-.3-.2 6.9c0 .7.5 1.3 1.2 1.3s1.3-.5 1.3-1.2l.1-2.5c2.2 3.1 3.6 6.7 4 10.5.4 3.9-.2 7.8-1.7 11.4-.2.5-.1 1.1.4 1.5.5.4 1.3.3 1.8-.2.1-.1.1-.2.2-.3 1.6-4 2.2-8.3 1.7-12.6zm-24.903-.62c1.8 0 3.3 1.5 3.3 3.3s-1.5 3.3-3.3 3.3-3.3-1.5-3.3-3.3 1.5-3.3 3.3-3.3m0-2.5c-3.2 0-5.8 2.6-5.8 5.8s2.6 5.8 5.8 5.8 5.8-2.6 5.8-5.8-2.6-5.8-5.8-5.8z"></path>
    <path d="M25.797 11.78v4l1.8.5c.6.2 1.1.4 1.6.6l1.6.8 1.3-1.3 1.5-1.5 1.3 1.3-1.4 1.4-1.3 1.3.9 1.6c.3.5.5 1.1.7 1.6l.5 1.8h3.8v1.9h-3.8l-.5 1.8c-.2.6-.4 1.2-.7 1.7l-.9 1.6 1.3 1.3 1.4 1.4-1.3 1.3-1.4-1.4-1.3-1.3-1.6.9c-.5.3-1.1.5-1.7.7l-1.8.5v3.8h-1.9v-3.8l-1.7-.6c-.6-.2-1.1-.4-1.6-.7l-1.6-.9-1.3 1.3-1.4 1.4-1.3-1.3 1.5-1.5 1.3-1.3-.8-1.6c-.3-.5-.5-1-.6-1.6l-.5-1.8h-4v-1.9h4l.5-1.8c.2-.5.4-1.1.7-1.5l.9-1.6-1.3-1.3-1.5-1.5 1.3-1.3 1.5 1.5 1.3 1.3 1.6-.9c.5-.3 1-.5 1.6-.7l1.7-.6v-4h1.6m.8-2.1h-3.4c-1 0-1.7.8-1.7 1.7v2.9c-.7.2-1.3.5-2 .8l-2.1-2.1c-.3-.3-.8-.5-1.2-.5-.5 0-.9.2-1.2.5l-2.4 2.4c-.7.7-.7 1.8 0 2.5l2.1 2.1c-.3.6-.6 1.3-.8 2h-2.9c-1 0-1.7.8-1.7 1.7v3.4c0 1 .8 1.7 1.7 1.7h2.9c.2.7.5 1.4.8 2l-2 2c-.7.7-.7 1.8 0 2.5l2.4 2.4c.3.3.8.5 1.2.5.5 0 .9-.2 1.2-.5l2-2c.7.4 1.4.7 2.1.9v2.7c0 1 .8 1.7 1.7 1.7h3.4c1 0 1.7-.8 1.7-1.7v-2.7c.7-.2 1.5-.5 2.1-.9l1.9 1.9c.3.3.8.5 1.2.5.5 0 .9-.2 1.2-.5l2.4-2.4c.7-.7.7-1.8 0-2.5l-1.9-1.9c.4-.7.7-1.4.9-2.2h2.7c1 0 1.7-.8 1.7-1.7v-3.4c0-1-.8-1.7-1.7-1.7h-2.7c-.2-.7-.5-1.4-.9-2.1l1.9-1.9c.7-.7.7-1.8 0-2.5l-2.4-2.4c-.3-.3-.8-.5-1.2-.5-.5 0-.9.2-1.2.5l-2 2c-.7-.3-1.3-.6-2-.8v-2.9c0-.8-.8-1.5-1.8-1.5z"></path>
  </symbol>
  <symbol xmlns="http://www.w3.org/2000/svg" viewBox="0 0 60 60" id="rmp-gray">
    <path d="M13 39.3c-.7 0-1.3.5-1.3 1.2l-.1 2.4c-2.2-3.1-3.5-6.7-3.9-10.4-.4-3.9.2-7.8 1.7-11.4.2-.5 0-1.1-.4-1.5-.5-.4-1.3-.3-1.8.2-.1.1-.1.2-.2.3-1.7 4-2.4 8.3-1.9 12.6.5 4.4 2.1 8.6 4.8 12.2L7 44.8c-.7 0-1.3.5-1.3 1.2s.5 1.3 1.2 1.3l6.9.2.2-6.9c.2-.7-.3-1.3-1-1.3zM39.3 47c0 .7.5 1.3 1.2 1.3l2.5.1c-3.1 2.2-6.7 3.6-10.5 4-3.9.4-7.8-.2-11.4-1.7-.5-.2-1.1-.1-1.5.4-.4.5-.3 1.3.2 1.8.1.1.2.1.3.2 4 1.7 8.3 2.4 12.6 1.9 4.4-.5 8.6-2.1 12.1-4.7l-.1 2.8c0 .7.5 1.3 1.2 1.3s1.3-.5 1.3-1.2l.2-6.9-6.9-.2c-.6-.3-1.2.2-1.2.9zM20.7 13c0-.7-.5-1.3-1.2-1.3l-2.5-.1c3.1-2.2 6.7-3.6 10.5-4 3.9-.4 7.8.2 11.4 1.7.5.3 1.1.1 1.5-.3.4-.5.3-1.3-.2-1.8-.1-.1-.2-.1-.3-.2-4-1.7-8.3-2.4-12.6-1.9-4.4.5-8.6 2.1-12.1 4.8l.1-2.8c0-.7-.5-1.3-1.2-1.3s-1.3.5-1.3 1.2l-.3 7 6.9.2c.7 0 1.3-.5 1.3-1.2zm34.1 14.3c-.5-4.4-2.1-8.5-4.7-12.1l2.8.1c.7 0 1.3-.5 1.3-1.2s-.5-1.3-1.2-1.3l-7-.3-.2 6.9c0 .7.5 1.3 1.2 1.3s1.3-.5 1.3-1.2l.1-2.5c2.2 3.1 3.6 6.7 4 10.5.4 3.9-.2 7.8-1.7 11.4-.2.5-.1 1.1.4 1.5.5.4 1.3.3 1.8-.2.1-.1.1-.2.2-.3 1.6-4 2.2-8.3 1.7-12.6zm-24.903-.62c1.8 0 3.3 1.5 3.3 3.3s-1.5 3.3-3.3 3.3-3.3-1.5-3.3-3.3 1.5-3.3 3.3-3.3m0-2.5c-3.2 0-5.8 2.6-5.8 5.8s2.6 5.8 5.8 5.8 5.8-2.6 5.8-5.8-2.6-5.8-5.8-5.8z"></path>
    <path d="M30.797 16.78v4l1.8.5c.6.2 1.1.4 1.6.6l1.6.8 1.3-1.3 1.5-1.5 1.3 1.3-1.4 1.4-1.3 1.3.9 1.6c.3.5.5 1.1.7 1.6l.5 1.8h3.8v1.9h-3.8l-.5 1.8c-.2.6-.4 1.2-.7 1.7l-.9 1.6 1.3 1.3 1.4 1.4-1.3 1.3-1.4-1.4-1.3-1.3-1.6.9c-.5.3-1.1.5-1.7.7l-1.8.5v3.8h-1.9v-3.8l-1.7-.6c-.6-.2-1.1-.4-1.6-.7l-1.6-.9-1.3 1.3-1.4 1.4-1.3-1.3 1.5-1.5 1.3-1.3-.8-1.6c-.3-.5-.5-1-.6-1.6l-.5-1.8h-4v-1.9h4l.5-1.8c.2-.5.4-1.1.7-1.5l.9-1.6-1.3-1.3-1.5-1.5 1.3-1.3 1.5 1.5 1.3 1.3 1.6-.9c.5-.3 1-.5 1.6-.7l1.7-.6v-4h1.6m.8-2.1h-3.4c-1 0-1.7.8-1.7 1.7v2.9c-.7.2-1.3.5-2 .8l-2.1-2.1c-.3-.3-.8-.5-1.2-.5-.5 0-.9.2-1.2.5l-2.4 2.4c-.7.7-.7 1.8 0 2.5l2.1 2.1c-.3.6-.6 1.3-.8 2h-2.9c-1 0-1.7.8-1.7 1.7v3.4c0 1 .8 1.7 1.7 1.7h2.9c.2.7.5 1.4.8 2l-2 2c-.7.7-.7 1.8 0 2.5l2.4 2.4c.3.3.8.5 1.2.5.5 0 .9-.2 1.2-.5l2-2c.7.4 1.4.7 2.1.9v2.7c0 1 .8 1.7 1.7 1.7h3.4c1 0 1.7-.8 1.7-1.7v-2.7c.7-.2 1.5-.5 2.1-.9l1.9 1.9c.3.3.8.5 1.2.5.5 0 .9-.2 1.2-.5l2.4-2.4c.7-.7.7-1.8 0-2.5l-1.9-1.9c.4-.7.7-1.4.9-2.2h2.7c1 0 1.7-.8 1.7-1.7v-3.4c0-1-.8-1.7-1.7-1.7h-2.7c-.2-.7-.5-1.4-.9-2.1l1.9-1.9c.7-.7.7-1.8 0-2.5l-2.4-2.4c-.3-.3-.8-.5-1.2-.5-.5 0-.9.2-1.2.5l-2 2c-.7-.3-1.3-.6-2-.8v-2.9c0-.8-.8-1.5-1.8-1.5z"></path>
  </symbol>
  <symbol xmlns="http://www.w3.org/2000/svg" viewBox="0 0 60 60" id="scratch">
    <path d="M48.7 19.7c-.4 0-.7-.2-1-.4L35.9 7.5c-.3-.3-.4-.6-.4-1s.2-.7.4-1l5-5c.6-.6 1.5-.6 2 0l11.8 11.8c.6.6.6 1.5 0 2l-5 5c-.3.2-.6.4-1 .4zM38.9 6.5l9.7 9.7 3-3L42 3.4l-3.1 3.1z"></path>
    <path d="M20.1 36.5c-.4 0-.7-.1-1-.4-.4-.4-.5-.9-.4-1.3l5.9-24.4c.1-.5.6-1 1.1-1.1l12.6-2.5c.5-.1 1 .1 1.3.4l8.4 8.4c.3.3.5.8.4 1.3l-2.5 12.6c-.1.5-.5 1-1.1 1.1l-24.4 5.9h-.3zm7.1-24.6L22 33.1 43.3 28l2.2-11-7.3-7.3-11 2.2z"></path>
    <path d="M20.1 36.5c-.4 0-.7-.1-1-.4-.6-.6-.6-1.5 0-2l12.8-12.8c.6-.6 1.5-.6 2 0 .6.6.6 1.5 0 2L21.1 36.1c-.3.2-.6.4-1 .4z"></path>
    <path d="M35.2 24.7c-.6 0-1.2-.1-1.8-.4-.6-.2-1.1-.6-1.6-1-.4-.4-.8-1-1-1.6-.2-.6-.4-1.2-.4-1.8 0-.6.1-1.3.4-1.8.2-.6.6-1.1 1-1.6.4-.4 1-.8 1.6-1 1.2-.5 2.5-.5 3.7 0 .6.2 1.1.6 1.6 1 .4.4.8 1 1 1.6.2.6.4 1.2.4 1.8 0 .6-.1 1.3-.4 1.8-.2.6-.6 1.1-1 1.6-.4.4-1 .8-1.6 1-.6.3-1.2.4-1.9.4zm0-6.7c-.3 0-.5 0-.7.1-.2.1-.4.2-.6.4-.2.2-.3.4-.4.6-.1.2-.1.5-.1.7 0 .3 0 .5.1.7.1.2.2.4.4.6.2.2.4.3.6.4.5.2 1 .2 1.5 0 .2-.1.4-.2.6-.4.2-.2.3-.4.4-.6.1-.2.1-.5.1-.7 0-.3 0-.5-.1-.7-.1-.2-.2-.4-.4-.6-.2-.2-.4-.3-.6-.4-.3-.1-.5-.1-.8-.1zM12.7 60c-1.5 0-2.8-.2-4-.7-1.7-.7-3-1.9-3.7-3.7-3.5-8.1 5.6-15.3 6-15.6.6-.5 1.5-.4 2 .3.5.6.4 1.5-.3 2-.1.1-7.8 6.1-5.2 12.2.4 1 1.1 1.7 2.2 2.1 4.7 1.9 14.5-2.3 19.2-4.3 5.8-2.5 16.5-7.1 26.9.1.6.5.8 1.3.4 2-.4.6-1.3.8-2 .4-8.4-5.8-16.9-3-24.2.1-5.8 2.6-12.2 5.1-17.3 5.1z"></path>
  </symbol>
  <symbol xmlns="http://www.w3.org/2000/svg" viewBox="0 0 50 50" id="soc">
    <path d="M22.9 11.7H10.4c-.7 0-1.3.6-1.3 1.3s.6 1.3 1.3 1.3h12.5c.7 0 1.3-.6 1.3-1.3s-.6-1.3-1.3-1.3zM40 8.3l-5 4.9-1.6-1.6c-.5-.5-1.3-.5-1.8 0s-.5 1.3 0 1.8l2.5 2.5c.5.5 1.3.5 1.8 0l5.8-5.8c.5-.5.5-1.3 0-1.8s-1.3-.5-1.7 0zM22.9 24.6H10.4c-.7 0-1.3.6-1.3 1.3s.6 1.3 1.3 1.3h12.5c.7 0 1.3-.6 1.3-1.3s-.6-1.3-1.3-1.3zM40 21.2l-5 4.9-1.6-1.6c-.5-.5-1.3-.5-1.8 0s-.5 1.3 0 1.8l2.5 2.5c.5.5 1.3.5 1.8 0l5.8-5.8c.5-.5.5-1.3 0-1.8s-1.3-.5-1.7 0zM22.9 37.5H10.4c-.7 0-1.3.6-1.3 1.3s.6 1.2 1.3 1.2h12.5c.7 0 1.3-.6 1.3-1.3s-.6-1.2-1.3-1.2zM40 34.1l-4.9 5-1.6-1.6c-.5-.5-1.3-.5-1.8 0s-.5 1.3 0 1.8l2.5 2.5c.5.5 1.3.5 1.8 0l5.8-5.8c.5-.5.5-1.3 0-1.8-.6-.6-1.4-.6-1.8-.1z"></path>
    <path d="M45.8 0H4.2C1.9 0 0 1.9 0 4.2v41.7C0 48.1 1.9 50 4.2 50h41.7c2.3 0 4.2-1.9 4.2-4.2V4.2C50 1.9 48.1 0 45.8 0zm1.7 45.8c0 .9-.7 1.7-1.7 1.7H4.2c-.9 0-1.7-.7-1.7-1.7V4.2c0-.9.7-1.7 1.7-1.7h41.7c.9 0 1.7.7 1.7 1.7v41.6z"></path>
  </symbol>
  <symbol xmlns="http://www.w3.org/2000/svg" viewBox="0 0 60 60" id="soc-gray">
    <path d="M27.9 16.7H15.4c-.7 0-1.3.6-1.3 1.3 0 .7.6 1.3 1.3 1.3h12.5c.7 0 1.3-.6 1.3-1.3 0-.8-.6-1.3-1.3-1.3zM45 13.3l-5 4.9-1.6-1.6c-.5-.5-1.3-.5-1.8 0s-.5 1.3 0 1.8l2.5 2.5c.5.5 1.3.5 1.8 0l5.8-5.8c.5-.5.5-1.3 0-1.8s-1.3-.5-1.7 0zM27.9 29.6H15.4c-.7 0-1.3.6-1.3 1.3s.6 1.3 1.3 1.3h12.5c.7 0 1.3-.6 1.3-1.3s-.6-1.3-1.3-1.3zM45 26.2l-5 4.9-1.6-1.6c-.5-.5-1.3-.5-1.8 0s-.5 1.3 0 1.8l2.5 2.5c.5.5 1.3.5 1.8 0l5.8-5.8c.5-.5.5-1.3 0-1.8s-1.3-.5-1.7 0zM27.9 42.5H15.4c-.7 0-1.3.6-1.3 1.3s.6 1.3 1.3 1.3h12.5c.7 0 1.3-.6 1.3-1.3s-.6-1.3-1.3-1.3zM45 39.1l-4.9 5-1.6-1.6c-.5-.5-1.3-.5-1.8 0s-.5 1.3 0 1.8l2.5 2.5c.5.5 1.3.5 1.8 0l5.8-5.8c.5-.5.5-1.3 0-1.8-.6-.6-1.4-.6-1.8-.1z"></path>
    <path d="M50.8 5H9.2C6.9 5 5 6.9 5 9.2v41.7C5 53.1 6.9 55 9.2 55h41.7c2.3 0 4.2-1.9 4.2-4.2V9.2C55 6.9 53.1 5 50.8 5zm1.7 45.8c0 .9-.7 1.7-1.7 1.7H9.2c-.9 0-1.7-.7-1.7-1.7V9.2c0-.9.7-1.7 1.7-1.7h41.7c.9 0 1.7.7 1.7 1.7v41.6z"></path>
  </symbol>
  <symbol xmlns="http://www.w3.org/2000/svg" viewBox="0 0 50 50" id="stakeholders">
    <path d="M46 16.7h-8.5V4c0-2.2-1.8-4-4-4H3.9C1.7 0 0 1.8 0 4v25.3c0 2.2 1.8 4 4 4 .9 0 1.8-.3 2.5-.9l5.8-4.7c.1-.1.2-.1.3-.2v12c0 2.2 1.8 4 4 4h18.8c.9 0 1.8.3 2.5.9l5.8 4.7c.7.6 1.6.9 2.5.9 2.2 0 4-1.8 4-4V20.7c-.2-2.2-2-4-4.2-4zm-33.5 8c-.7.2-1.3.6-1.8 1l-5.8 4.7c-.3.2-.6.3-.9.3-.8 0-1.5-.6-1.5-1.5V4c0-.8.7-1.5 1.5-1.5h29.6c.7 0 1.4.7 1.4 1.5v18.8c0 .8-.7 1.5-1.5 1.5H14.7c-.8 0-1.5.1-2.2.4zm35 21.3c0 .8-.7 1.5-1.5 1.5-.3 0-.6-.1-.9-.3l-5.8-4.7c-1.2-.9-2.6-1.5-4.1-1.5H16.4c-.8 0-1.5-.7-1.5-1.5V26.8h18.5c2.2 0 4-1.8 4-4v-3.5H46c.8 0 1.5.7 1.5 1.5V46z"></path>
    <path d="M22.1 34.3h18.3c.7 0 1.3.6 1.3 1.3 0 .7-.6 1.3-1.3 1.3H22.1c-.7 0-1.3-.6-1.3-1.3 0-.7.6-1.3 1.3-1.3zm0-5h18.3c.7 0 1.3.6 1.3 1.3 0 .7-.6 1.3-1.3 1.3H22.1c-.7 0-1.3-.6-1.3-1.3 0-.8.6-1.3 1.3-1.3z"></path>
    <circle cx="18.7" cy="19.7" r="1.3"></circle>
    <path d="M24.1 10.5c0-2.9-1.9-4.7-5-4.7s-5 1.8-5 4.7c0 .7.6 1.3 1.3 1.3s1.3-.6 1.3-1.3c0-.9.3-2.2 2.5-2.2s2.5 1.2 2.5 2.2c0 .5 0 2.1-2.9 2.1-.7 0-1.3.6-1.3 1.3v1.7c0 .7.6 1.3 1.3 1.3s1.3-.6 1.3-1.3V15c2.5-.4 4-2.1 4-4.5z"></path>
  </symbol>
  <symbol xmlns="http://www.w3.org/2000/svg" viewBox="0 0 60 60" id="stakeholders-gray">
    <path d="M51 21.7h-8.5V9c0-2.2-1.8-4-4-4H8.9C6.7 5 5 6.8 5 9v25.3c0 2.2 1.8 4 4 4 .9 0 1.8-.3 2.5-.9l5.8-4.7c.1-.1.2-.1.3-.2v12c0 2.2 1.8 4 4 4h18.8c.9 0 1.8.3 2.5.9l5.8 4.7c.7.6 1.6.9 2.5.9 2.2 0 4-1.8 4-4V25.7c-.2-2.2-2-4-4.2-4zm-33.5 8c-.7.2-1.3.6-1.8 1l-5.8 4.7c-.3.2-.6.3-.9.3-.8 0-1.5-.6-1.5-1.5V9c0-.8.7-1.5 1.5-1.5h29.6c.7 0 1.4.7 1.4 1.5v18.8c0 .8-.7 1.5-1.5 1.5H19.7c-.8 0-1.5.1-2.2.4zm35 21.3c0 .8-.7 1.5-1.5 1.5-.3 0-.6-.1-.9-.3l-5.8-4.7c-1.2-.9-2.6-1.5-4.1-1.5H21.4c-.8 0-1.5-.7-1.5-1.5V31.8h18.5c2.2 0 4-1.8 4-4v-3.5H51c.8 0 1.5.7 1.5 1.5V51z"></path>
    <path d="M27.1 39.3h18.3c.7 0 1.3.6 1.3 1.3 0 .7-.6 1.3-1.3 1.3H27.1c-.7 0-1.3-.6-1.3-1.3 0-.7.6-1.3 1.3-1.3zm0-5h18.3c.7 0 1.3.6 1.3 1.3 0 .7-.6 1.3-1.3 1.3H27.1c-.7 0-1.3-.6-1.3-1.3 0-.8.6-1.3 1.3-1.3z"></path>
    <circle cx="23.7" cy="24.7" r="1.3"></circle>
    <path d="M29.1 15.5c0-2.9-1.9-4.7-5-4.7s-5 1.8-5 4.7c0 .7.6 1.3 1.3 1.3.7 0 1.3-.6 1.3-1.3 0-.9.3-2.2 2.5-2.2s2.5 1.2 2.5 2.2c0 .5 0 2.1-2.9 2.1-.7 0-1.3.6-1.3 1.3v1.7c0 .7.6 1.3 1.3 1.3s1.3-.6 1.3-1.3V20c2.5-.4 4-2.1 4-4.5z"></path>
  </symbol>
  <symbol xmlns="http://www.w3.org/2000/svg" viewBox="0 0 50 50" id="star-filled">
    <path d="M27.8 2.8l6 12.2 13.5 2c1.7.2 2.9 1.8 2.6 3.5-.1.7-.4 1.3-.9 1.8l-9.8 9.5 2.3 13.4c.3 1.7-.8 3.3-2.5 3.6-.7.1-1.4 0-2-.3l-12-6.3-12.1 6.3c-1.5.8-3.4.2-4.2-1.3-.3-.6-.4-1.3-.3-2l2.3-13.4-9.8-9.5c-1.2-1.2-1.3-3.2-.1-4.4.6-.5 1.2-.8 1.9-.9l13.5-2 6-12.2c.8-1.5 2.6-2.2 4.2-1.4.6.3 1.1.8 1.4 1.4z" fill="#fff"></path>
  </symbol>
  <symbol baseProfile="tiny" xmlns="http://www.w3.org/2000/svg" overflow="visible" viewBox="0 0 29.3 28" id="star-filled-blue">
    <g fill="#00A0DF">
      <path d="M22.545 26.991c-.1 0-.3 0-.4-.1l-7.1-3.7-.5-.2-.5.2-7.1 3.7c-.1.1-.3.1-.4.1-.2 0-.5-.1-.6-.3-.1-.1-.2-.3-.2-.7l1.3-7.9.1-.5-.4-.4-5.7-5.6c-.3-.3-.3-.7-.2-.8 0-.1.2-.5.7-.6l7.9-1.1.5-.1.2-.5 3.5-7.2c.2-.4.6-.5.7-.5s.5 0 .7.5l3.5 7.2.2.5.5.1 7.9 1.1c.5.1.6.4.7.6 0 .1.1.5-.2.8l-5.7 5.6-.4.4.1.5 1.3 7.9c.1.3-.1.5-.2.7.3.2 0 .3-.2.3z"></path>
      <path d="M14.645 2.191l-3.4 6.8-.5.9-1 .2-7.5 1.1 5.5 5.3.8.7-.2 1-1.3 7.5 6.7-3.5.9-.5.9.5 6.7 3.5-1.3-7.5-.2-1 .8-.7 5.5-5.3-7.5-1.1-1-.2-.5-.9-3.4-6.8m0-2.2c.6 0 1.3.3 1.6 1l3.5 7.2 7.9 1.1c1.5.2 2.1 2.1 1 3.1l-5.7 5.6 1.3 7.9c.2 1.2-.7 2.1-1.8 2.1-.3 0-.6-.1-.8-.2l-7.1-3.7-7.1 3.7c-.3.1-.6.2-.8.2-1.1 0-2-1-1.8-2.1l1.3-7.9-5.7-5.6c-1.1-1.1-.5-2.9 1-3.1l7.9-1.1 3.5-7.2c.5-.7 1.1-1 1.8-1z"></path>
    </g>
  </symbol>
  <symbol xmlns="http://www.w3.org/2000/svg" viewBox="0 0 50 50" id="star-outline">
    <path d="M25 8l4.5 9.2 1.1 2.3 2.5.4 10.1 1.5-7.3 7.2-1.8 1.8.4 2.5L36.2 43l-9-5-2.2-1.2-2.2 1.2-9.1 4.8 1.7-10.1.4-2.5-1.8-1.8-7.3-7.2 10.2-1.5 2.5-.4 1.1-2.3L25 8m0-6.9c-1.2 0-2.3.7-2.8 1.7l-6 12.2-13.5 2C1 17.2-.2 18.8 0 20.5c.1.7.4 1.3.9 1.8l9.8 9.5-2.3 13.5c-.3 1.7.8 3.3 2.5 3.6h.5c.5 0 1-.1 1.5-.4L25 42.2l12.1 6.3c.4.2.9.4 1.5.4 1.7 0 3.1-1.4 3.1-3.1v-.5l-2.3-13.4 9.8-9.5c1.2-1.2 1.3-3.2.1-4.4-.5-.5-1.1-.8-1.8-.9l-13.5-2-6-12.2c-.7-1.2-1.8-1.8-3-1.8z" fill="#fff"></path>
  </symbol>
  <symbol baseProfile="tiny" xmlns="http://www.w3.org/2000/svg" overflow="visible" viewBox="0 0 50 50" id="star-outline-gray">
    <path fill="#888B8D" d="M25 8l4.5 9.2 1.1 2.3 2.5.4 10.1 1.5-7.3 7.2-1.8 1.8.4 2.5L36.2 43l-9-5-2.2-1.2-2.2 1.2-9.1 4.8 1.7-10.1.4-2.5-1.8-1.8-7.3-7.2 10.2-1.5 2.5-.4 1.1-2.3L25 8m0-6.9c-1.2 0-2.3.7-2.8 1.7l-6 12.2-13.5 2C1 17.2-.2 18.8 0 20.5c.1.7.4 1.3.9 1.8l9.8 9.5-2.3 13.5c-.3 1.7.8 3.3 2.5 3.6h.5c.5 0 1-.1 1.5-.4L25 42.2l12.1 6.3c.4.2.9.4 1.5.4 1.7 0 3.1-1.4 3.1-3.1v-.5l-2.3-13.4 9.8-9.5c1.2-1.2 1.3-3.2.1-4.4-.5-.5-1.1-.8-1.8-.9l-13.5-2-6-12.2c-.7-1.2-1.8-1.8-3-1.8z"></path>
  </symbol>
  <symbol xmlns="http://www.w3.org/2000/svg" viewBox="0 0 56 80" id="tab-next">
    <path d="M1751 629h44c3.3 0 6 2.7 6 6v68c0 3.3-2.7 6-6 6h-44c-3.3 0-6-2.7-6-6v-68c0-3.3 2.7-6 6-6z" fill="#e5e5e5"></path>
    <path d="M1765 690.7c-.4 0-.9-.1-1.2-.4-.9-.7-1-1.9-.4-2.8l15-19.6-15-17.9c-.7-.8-.6-2.1.2-2.8.8-.7 2.1-.6 2.8.2l17 20.3-17 22.2c-.2.5-.8.8-1.4.8z" fill="#1d75bc"></path>
  </symbol>
  <symbol xmlns="http://www.w3.org/2000/svg" viewBox="0 0 56 80" id="tab-prev">
    <path d="M50 80H6c-3.3 0-6-2.7-6-6V6c0-3.3 2.7-6 6-6h44c3.3 0 6 2.7 6 6v68c0 3.3-2.7 6-6 6z" fill="#e5e5e5"></path>
    <path d="M36 18.3c.4 0 .9.1 1.2.4.9.7 1 1.9.4 2.8l-15 19.6 15 17.9c.7.8.6 2.1-.2 2.8-.8.7-2.1.6-2.8-.2l-17-20.3 17-22.2c.2-.5.8-.8 1.4-.8z" fill="#1d75bc"></path>
  </symbol>
  <symbol xmlns="http://www.w3.org/2000/svg" viewBox="0 0 6.6 13.1" id="to">
    <path d="M1 0c.3 0 .6.1.8.4l4.8 6.2-4.8 6.1c-.3.4-1 .5-1.4.2-.4-.3-.5-1-.2-1.4L4 6.6l-3.8-5C-.1 1.2 0 .5.4.2.6.1.8 0 1 0z" fill="#1c75bc"></path>
  </symbol>
  <symbol xmlns="http://www.w3.org/2000/svg" viewBox="0 0 50 50" id="training">
    <path d="M38.3 22.4l-4.9 4.9-1.6-1.6c-.5-.5-1.3-.5-1.8 0s-.5 1.3 0 1.8l2.5 2.5c.5.5 1.3.5 1.8 0l5.8-5.8c.5-.5.5-1.3 0-1.8-.5-.4-1.3-.4-1.8 0zm-24.5-4.9h25c.7 0 1.3-.6 1.3-1.3s-.7-1.2-1.3-1.2h-25c-.7 0-1.3.6-1.3 1.3s.6 1.2 1.3 1.2zm0 13.3h10c.7 0 1.3-.6 1.3-1.3s-.6-1.3-1.3-1.3h-10c-.7 0-1.3.6-1.3 1.3s.6 1.3 1.3 1.3zm0-6.6h10c.7 0 1.3-.6 1.3-1.3s-.6-1.3-1.3-1.3h-10c-.7 0-1.3.6-1.3 1.3s.6 1.3 1.3 1.3zM27.1 40c-.7 0-1.3.6-1.3 1.3v7.5c0 .7.6 1.3 1.3 1.3.7 0 1.3-.6 1.3-1.3v-7.5c-.1-.7-.6-1.3-1.3-1.3zm5.9.4c-.5-.5-1.3-.5-1.8 0s-.5 1.3 0 1.8l7 7c.5.5 1.3.5 1.8-.1.5-.5.5-1.2 0-1.7l-7-7zm-11.8 0l-7 7c-.5.5-.5 1.3.1 1.8.5.5 1.2.5 1.7 0l7-7c.5-.5.5-1.3 0-1.8s-1.3-.5-1.8 0z"></path>
    <path d="M50 5.4c0-3-2.4-5.4-5.4-5.4H5.4C2.4 0 0 2.4 0 5.4v22.1C0 28.9 1.1 30 2.5 30h3.3v3.3c0 2.3 1.9 4.2 4.2 4.2h32.5c2.3 0 4.2-1.9 4.2-4.2V10.4c2-.8 3.3-2.8 3.3-5zM5.8 27.5H3.4c-.5 0-.9-.4-.9-.9V5.5c0-1.4.9-2.6 2.3-2.9 1.6-.3 3.1.7 3.5 2.2 0 .2.1.4.1.6 0 .8-.3 1.6-1 2.2-.9.8-1.5 2-1.5 3.2v16.7zm38.4 5.8c0 .9-.7 1.7-1.7 1.7H10c-.9 0-1.7-.7-1.7-1.7V10.8h35.8l.1 22.5zm.4-25H10c.5-.8.8-1.7.9-2.6.1-1.1-.3-2.3-.9-3.2h34.7c1.6 0 2.9 1.3 3 2.9 0 1.6-1.3 2.9-2.9 3l-.2-.1z"></path>
  </symbol>
  <symbol xmlns="http://www.w3.org/2000/svg" viewBox="0 0 60 60" id="training-gray">
    <path d="M43.3 27.4l-4.9 4.9-1.6-1.6c-.5-.5-1.3-.5-1.8 0s-.5 1.3 0 1.8l2.5 2.5c.5.5 1.3.5 1.8 0l5.8-5.8c.5-.5.5-1.3 0-1.8-.5-.4-1.3-.4-1.8 0zm-24.6-4.9h25c.7 0 1.3-.6 1.3-1.3s-.6-1.3-1.3-1.3h-25c-.7 0-1.3.6-1.3 1.3s.7 1.3 1.3 1.3zm0 13.3h10c.7 0 1.3-.6 1.3-1.3s-.6-1.3-1.3-1.3h-10c-.7 0-1.3.6-1.3 1.3s.7 1.3 1.3 1.3zm0-6.6h10c.7 0 1.3-.6 1.3-1.3s-.6-1.3-1.3-1.3h-10c-.7 0-1.3.6-1.3 1.3s.7 1.3 1.3 1.3zM32.1 45c-.7 0-1.3.6-1.3 1.3v7.5c0 .7.6 1.3 1.3 1.3s1.3-.6 1.3-1.3v-7.5c-.1-.7-.6-1.3-1.3-1.3zm5.9.4c-.5-.5-1.3-.5-1.8 0s-.5 1.3 0 1.8l7 7c.5.5 1.3.5 1.8-.1.5-.5.5-1.2 0-1.7l-7-7zm-11.8 0l-7 7c-.5.5-.5 1.3.1 1.8.5.5 1.2.5 1.7 0l7-7c.5-.5.5-1.3 0-1.8s-1.3-.5-1.8 0z"></path>
    <path d="M55 10.4c0-3-2.4-5.4-5.4-5.4H10.4C7.4 5 5 7.4 5 10.4v22.1C5 33.9 6.1 35 7.5 35h3.3v3.3c0 2.3 1.9 4.2 4.2 4.2h32.5c2.3 0 4.2-1.9 4.2-4.2V15.4c2-.8 3.3-2.8 3.3-5zM10.8 32.5H8.3c-.5 0-.9-.4-.9-.9V10.5c0-1.4.9-2.6 2.3-2.9 1.6-.3 3.1.7 3.5 2.2 0 .2.1.4.1.6 0 .8-.3 1.6-1 2.2-.9.8-1.5 2-1.5 3.2v16.7zm38.4 5.8c0 .9-.7 1.7-1.7 1.7H15c-.9 0-1.7-.7-1.7-1.7V15.8h35.8l.1 22.5zm.4-25H15c.5-.8.8-1.7.9-2.6.1-1.1-.3-2.3-.9-3.2h34.7c1.6 0 2.9 1.3 3 2.9 0 1.6-1.3 2.9-2.9 3l-.2-.1z"></path>
  </symbol>
  <symbol xmlns="http://www.w3.org/2000/svg" viewBox="0 0 10 30" id="triangle-indicator">
    <path d="M0 15L10 0v30L0 15z" fill="#fff"></path>
  </symbol>
  <symbol xmlns="http://www.w3.org/2000/svg" viewBox="0 0 10 30" id="triangle-indicator-tinted">
    <path d="M0 15L10 0v30L0 15z" fill="#f4fbff"></path>
  </symbol>
  <symbol xmlns="http://www.w3.org/2000/svg" viewBox="0 0 10 18" id="triangle-navigation-left">
    <path d="M.6 9.7c-.4-.4-.4-1-.1-1.4 0 0 0-.1.1-.1l7.5-6.8c.4-.4 1-.3 1.4.1.2.3.3.5.3.7v13.5c0 .6-.4 1-1 1-.2 0-.5-.1-.7-.3L.6 9.7z" fill="#1d75bc"></path>
  </symbol>
  <symbol xmlns="http://www.w3.org/2000/svg" viewBox="0 0 10 18" id="triangle-navigation-right">
    <path d="M9.4 8.3c.4.4.4 1 .1 1.4 0 0 0 .1-.1.1l-7.5 6.8c-.4.4-1 .3-1.4-.1-.2-.2-.3-.4-.3-.7V2.2c0-.6.4-1 1-1 .2 0 .5.1.7.3l7.5 6.8z" fill="#1d75bc"></path>
  </symbol>
  <symbol xmlns="http://www.w3.org/2000/svg" viewBox="0 0 30 30" id="warning">
    <path d="M3.585 28.103c-.6 0-1.2-.2-1.8-.5-.8-.5-1.4-1.3-1.7-2.2-.3-.9-.1-1.9.4-2.8l11.4-19v-.1c.3-.5.7-.9 1.2-1.2 1.7-1 3.9-.5 5 1.2l11.4 19c.3.6.5 1.2.5 1.8 0 1-.4 1.9-1 2.6-.7.7-1.6 1.1-2.6 1.1h-22.8zm9.9-23.5l-11.4 19c-.2.4-.3.9-.2 1.3.1.5.4.8.8 1.1.3.2.6.2.9.2h22.8c.5 0 .9-.2 1.2-.5.3-.3.5-.8.5-1.2 0-.3-.1-.6-.2-.9l-11.4-19c-.5-.8-1.6-1.1-2.4-.6-.2.1-.4.3-.6.6z"></path>
    <path d="M14.985 17.303c-.5 0-.9-.4-.9-.9v-5.4c0-.5.4-.9.9-.9s.9.4.9.9v5.4c.1.5-.4.9-.9.9zm0 5.4c-.5 0-.9-.4-.9-.9s.4-.9.9-.9.9.4.9.9-.4.9-.9.9z"></path>
  </symbol>
  <symbol xmlns="http://www.w3.org/2000/svg" viewBox="0 0 32 32" id="add">
    <path d="M26.8 17.2H5.2c-.7 0-1.2-.6-1.2-1.2s.6-1.2 1.2-1.2h21.6c.6 0 1.2.6 1.2 1.2s-.4 1.2-1.2 1.2z"></path>
    <path d="M16 28c-.6 0-1.2-.6-1.2-1.2V5.2c0-.7.6-1.2 1.2-1.2s1.2.6 1.2 1.2v21.6c0 .8-.6 1.2-1.2 1.2z"></path>
  </symbol>
  <symbol xmlns="http://www.w3.org/2000/svg" viewBox="0 0 32 32" id="add-gray">
    <path d="M26.8 17.2H5.2c-.7 0-1.2-.6-1.2-1.2s.6-1.2 1.2-1.2h21.6c.6 0 1.2.6 1.2 1.2s-.4 1.2-1.2 1.2z"></path>
    <path d="M16 28c-.6 0-1.2-.6-1.2-1.2V5.2c0-.7.6-1.2 1.2-1.2s1.2.6 1.2 1.2v21.6c0 .8-.6 1.2-1.2 1.2z"></path>
  </symbol>
  <symbol xmlns="http://www.w3.org/2000/svg" viewBox="0 0 32.1 28" id="alert-triangle">
    <path d="M13.537 2.4l-12.1 20.3c-.8 1.4-.3 3.1 1 3.9.5.3.9.4 1.4.4h24.3c1.6 0 2.9-1.3 2.8-2.9 0-.5-.1-1-.4-1.4l-12-20.3c-.8-1.4-2.6-1.8-3.9-1-.5.3-.8.6-1.1 1zm2.5 7.4v5.7"></path>
  </symbol>
  <symbol xmlns="http://www.w3.org/2000/svg" viewBox="0 0 46.983 50" id="ap">
    <path d="M14.059 26.256h3.109a6.434 6.434 0 006.3 5.169 6.434 6.434 0 006.3-5.169h2.87a10.521 10.521 0 0010.125-7.727l3.875-3.874a1.19 1.19 0 000-1.683 1.19 1.19 0 00-1.683 0l-1.852 1.851a10.521 10.521 0 00-10.465-9.589h-2.86A6.43 6.43 0 0023.47 0a6.431 6.431 0 00-6.309 5.234H4.805a1.19 1.19 0 00-1.19 1.19 1.19 1.19 0 001.19 1.19h12.356a6.431 6.431 0 006.309 5.233 6.431 6.431 0 006.308-5.233h2.86a8.135 8.135 0 018.055 7.086l-1.729-1.729a1.19 1.19 0 00-1.683 0 1.19 1.19 0 000 1.683l3.2 3.2a8.137 8.137 0 01-7.842 6.02h-2.85a6.429 6.429 0 00-6.318-5.3 6.43 6.43 0 00-6.319 5.3h-3.089a10.461 10.461 0 00-10.386 9.331l-1.64-1.64a1.19 1.19 0 00-1.683 0 1.19 1.19 0 000 1.683l3.579 3.58a10.457 10.457 0 0010.13 7.939h3.1A6.431 6.431 0 0023.472 50a6.431 6.431 0 006.308-5.233h12.181a1.191 1.191 0 001.19-1.19 1.19 1.19 0 00-1.19-1.19H29.78a6.43 6.43 0 00-6.308-5.233 6.431 6.431 0 00-6.309 5.233h-3.1a8.078 8.078 0 01-7.727-5.764l3.375-3.374a1.19 1.19 0 000-1.683 1.19 1.19 0 00-1.683 0l-1.991 1.991a8.074 8.074 0 018.022-7.301zm9.408-15.789a4.047 4.047 0 01-4.043-4.042 4.047 4.047 0 014.043-4.044 4.047 4.047 0 014.042 4.044 4.047 4.047 0 01-4.042 4.042zm0 10.491A4.047 4.047 0 0127.509 25a4.048 4.048 0 01-4.042 4.044A4.048 4.048 0 0119.424 25a4.047 4.047 0 014.043-4.042zm0 18.576a4.047 4.047 0 014.042 4.043 4.047 4.047 0 01-4.042 4.042 4.047 4.047 0 01-4.043-4.042 4.047 4.047 0 014.043-4.043z" fill="#fff"></path>
  </symbol>
  <symbol xmlns="http://www.w3.org/2000/svg" viewBox="0 0 32.888 35" id="ap-gray">
    <path d="M9.838 18.374h2.176a4.5 4.5 0 004.409 3.618 4.5 4.5 0 004.415-3.618h2.009a7.364 7.364 0 007.087-5.409l2.712-2.712a.833.833 0 000-1.178.833.833 0 00-1.178 0l-1.3 1.3a7.365 7.365 0 00-7.325-6.712h-2a4.5 4.5 0 00-4.416-3.664 4.5 4.5 0 00-4.416 3.664H3.362a.833.833 0 00-.833.833.833.833 0 00.833.833h8.649a4.5 4.5 0 004.416 3.663 4.5 4.5 0 004.416-3.663h2a5.7 5.7 0 015.638 4.96L27.27 9.078a.833.833 0 00-1.178 0 .833.833 0 000 1.178l2.24 2.24a5.7 5.7 0 01-5.489 4.214h-1.995a4.5 4.5 0 00-4.423-3.708 4.5 4.5 0 00-4.423 3.708H9.838a7.322 7.322 0 00-7.27 6.532L1.42 22.094a.833.833 0 00-1.178 0 .833.833 0 000 1.178l2.506 2.506a7.32 7.32 0 007.091 5.557h2.169a4.5 4.5 0 004.416 3.663 4.5 4.5 0 004.416-3.663h8.527a.834.834 0 00.833-.833.833.833 0 00-.833-.833h-8.529a4.5 4.5 0 00-4.416-3.663 4.5 4.5 0 00-4.416 3.663H9.838a5.654 5.654 0 01-5.409-4.035l2.362-2.362a.833.833 0 000-1.178.833.833 0 00-1.178 0l-1.394 1.394a5.652 5.652 0 015.619-5.114zm6.586-11.052a2.833 2.833 0 01-2.83-2.829 2.833 2.833 0 012.83-2.831 2.833 2.833 0 012.829 2.831 2.833 2.833 0 01-2.826 2.834zm0 7.344a2.833 2.833 0 012.829 2.829 2.833 2.833 0 01-2.829 2.831 2.834 2.834 0 01-2.83-2.831 2.833 2.833 0 012.833-2.821zm0 13a2.833 2.833 0 012.829 2.83 2.833 2.833 0 01-2.829 2.829 2.833 2.833 0 01-2.83-2.829 2.833 2.833 0 012.833-2.822z"></path>
  </symbol>
  <symbol xmlns="http://www.w3.org/2000/svg" viewBox="0 0 30 30" id="arrow-left">
    <path d="M17.5 9.4c.1 0 .3.1.4.2.2.2.2.5 0 .7l-4.6 4.4 4.7 4.9c.2.2.2.5 0 .7-.2.2-.5.2-.7 0l-5-5.2c-.3-.2-.3-.4-.3-.5 0-.1.1-.3.2-.4l5-4.8h.3z" fill="#fff"></path>
  </symbol>
  <symbol xmlns="http://www.w3.org/2000/svg" viewBox="0 0 30 30" id="arrow-right">
    <path d="M12.5 20.4c-.1 0-.3-.1-.4-.2-.2-.2-.2-.5 0-.7l4.6-4.4-4.7-4.9c-.2-.2-.2-.5 0-.7.2-.2.5-.2.7 0l5 5.2c.3.1.3.3.3.4 0 .1-.1.3-.2.4l-5 4.8c-.1 0-.2.1-.3.1z" fill="#fff"></path>
  </symbol>
  <symbol xmlns="http://www.w3.org/2000/svg" viewBox="0 0 6.6 13.1" id="back">
    <path d="M5.6 13.1c-.3 0-.6-.1-.8-.4L0 6.5 4.8.4c.3-.4 1-.5 1.4-.2.4.3.5 1 .2 1.4L2.6 6.5l3.8 5c.3.4.3 1.1-.2 1.4-.2.1-.4.2-.6.2z" fill="#1c75bc"></path>
  </symbol>
  <symbol xmlns="http://www.w3.org/2000/svg" viewBox="0 0 25 25" id="calendar">
    <path d="M21 24.7H4c-1.7 0-3-1.3-3-3v-16c0-1.7 1.3-3 3-3h17c1.7 0 3 1.3 3 3v16c0 1.7-1.3 3-3 3zM4 4.8c-.6 0-1 .4-1 1v16c0 .6.4 1 1 1h17c.6 0 1-.4 1-1v-16c0-.6-.4-1-1-1H4z"></path>
    <path d="M7.5 7.3c-.6 0-1-.4-1-1v-5c0-.6.4-1 1-1s1 .4 1 1v5c0 .5-.4 1-1 1zm10 0c-.6 0-1-.4-1-1v-5c0-.6.4-1 1-1s1 .4 1 1v5c0 .5-.4 1-1 1zm-15 2.5h20v1h-20zm5 4.4h-2c-.6 0-1-.4-1-1s.4-1 1-1h2c.6 0 1 .4 1 1s-.4 1-1 1zm0 3h-2c-.6 0-1-.4-1-1s.4-1 1-1h2c.6 0 1 .4 1 1s-.4 1-1 1zm0 3h-2c-.6 0-1-.4-1-1s.4-1 1-1h2c.6 0 1 .4 1 1s-.4 1-1 1zm5.7-6h-2c-.6 0-1-.4-1-1s.4-1 1-1h2c.6 0 1 .4 1 1s-.4 1-1 1zm0 3h-2c-.6 0-1-.4-1-1s.4-1 1-1h2c.6 0 1 .4 1 1s-.4 1-1 1zm0 3h-2c-.6 0-1-.4-1-1s.4-1 1-1h2c.6 0 1 .4 1 1s-.4 1-1 1zm5.8-6h-2c-.6 0-1-.4-1-1s.4-1 1-1h2c.6 0 1 .4 1 1s-.5 1-1 1zm0 3h-2c-.6 0-1-.4-1-1s.4-1 1-1h2c.6 0 1 .4 1 1s-.5 1-1 1zm0 3h-2c-.6 0-1-.4-1-1s.4-1 1-1h2c.6 0 1 .4 1 1s-.5 1-1 1z"></path>
  </symbol>
  <symbol xmlns="http://www.w3.org/2000/svg" viewBox="0 0 32.722 34" id="chart">
    <path d="M24.783 34a1.777 1.777 0 01-1.775-1.775v-6.163a1.777 1.777 0 011.775-1.775h2.059v-6.519a.385.385 0 00-.383-.383h-9.075v6.9h2.059a1.777 1.777 0 011.775 1.775v6.163a1.777 1.777 0 01-1.775 1.775h-6.164a1.777 1.777 0 01-1.775-1.775V26.06a1.777 1.777 0 011.775-1.775h2.059v-6.9H6.263a.385.385 0 00-.384.383v6.519h2.059a1.777 1.777 0 011.775 1.775v6.163A1.777 1.777 0 017.938 34H1.774a1.777 1.777 0 01-1.775-1.775v-6.163a1.777 1.777 0 011.775-1.775h2.059v-7.172a1.777 1.777 0 011.775-1.775h9.728V9.716h-2.059a1.777 1.777 0 01-1.775-1.775V1.778A1.777 1.777 0 0113.277.003h6.164a1.777 1.777 0 011.775 1.775v6.163a1.777 1.777 0 01-1.775 1.775h-2.059v5.624h9.728a1.777 1.777 0 011.775 1.775v7.172h2.059a1.777 1.777 0 011.775 1.775v6.163A1.777 1.777 0 0130.944 34zm.651-7.669a.382.382 0 00-.381.381v4.862a.382.382 0 00.381.381H30.3a.382.382 0 00.381-.381v-4.862a.382.382 0 00-.381-.381zm-11.493 0a.392.392 0 00-.391.391v4.842a.391.391 0 00.391.391h4.842a.392.392 0 00.391-.391v-4.842a.393.393 0 00-.391-.391zm-11.517 0a.379.379 0 00-.378.378v4.867a.379.379 0 00.378.378h4.867a.379.379 0 00.378-.378v-4.867a.379.379 0 00-.378-.378zM13.932 2.045a.382.382 0 00-.382.382v4.86a.382.382 0 00.382.382h4.86a.382.382 0 00.382-.382v-4.86a.382.382 0 00-.382-.382z" fill="#fff"></path>
  </symbol>
  <symbol xmlns="http://www.w3.org/2000/svg" viewBox="0 0 45 45" id="checkbox-check">
    <path d="M6 0h33c3.3 0 6 2.7 6 6v33c0 3.3-2.7 6-6 6H6c-3.3 0-6-2.7-6-6V6c0-3.3 2.7-6 6-6z" fill="#1d75bc"></path>
    <path d="M19.1 29.5c-.3 0-.5-.1-.7-.3l-5.6-5.9c-.4-.4-.4-1 0-1.4.4-.4 1-.4 1.4 0l4.9 5.1 11.7-12.2c.4-.4 1-.4 1.4 0 .4.4.4 1 0 1.4l-12.4 13c-.1.2-.4.3-.7.3z" fill="#fff"></path>
  </symbol>
  <symbol xmlns="http://www.w3.org/2000/svg" viewBox="0 0 45 45" id="checkmark-green">
    <path d="M6 0h33c3.3 0 6 2.7 6 6v33c0 3.3-2.7 6-6 6H6c-3.3 0-6-2.7-6-6V6c0-3.3 2.7-6 6-6z" fill="#369946"></path>
    <path d="M19.9 29c-.4 0-.8-.2-1.1-.5L14.4 24c-.6-.6-.6-1.5 0-2.1.6-.6 1.5-.6 2.1 0l3.3 3.4 8.5-8.9c.6-.6 1.5-.6 2.1 0 .6.6.6 1.5 0 2.1l-9.6 10c-.1.3-.5.5-.9.5z" fill="#fff"></path>
  </symbol>
  <symbol xmlns="http://www.w3.org/2000/svg" viewBox="0 0 45 45" id="checkmark-green-round">
    <circle cx="22.5" cy="22.5" r="22.5" fill="#369946"></circle>
    <path d="M19.9 29c-.4 0-.8-.2-1.1-.5L14.4 24c-.6-.6-.6-1.5 0-2.1.6-.6 1.5-.6 2.1 0l3.3 3.4 8.5-8.9c.6-.6 1.5-.6 2.1 0 .6.6.6 1.5 0 2.1l-9.6 10c-.1.3-.5.5-.9.5z" fill="#fff"></path>
  </symbol>
  <symbol xmlns="http://www.w3.org/2000/svg" viewBox="0 0 45 45" id="checkmark-orange-round">
    <path d="M22.5 0C34.9 0 45 10.1 45 22.5S34.9 45 22.5 45 0 34.9 0 22.5 10.1 0 22.5 0z" fill="#f37820"></path>
    <path d="M16.393 30.775c-.5 0-.9-.2-1.3-.5-.7-.7-.8-1.9-.1-2.7l12.3-12.8c.7-.7 1.9-.8 2.7-.1.7.7.8 1.9.1 2.7l-12.4 12.8c-.3.4-.8.6-1.3.6z"></path>
    <path d="M28.893 30.475c-.5 0-.9-.2-1.3-.5l-12.8-12.3c-.7-.7-.7-1.9 0-2.6.7-.8 1.9-.8 2.6-.1l12.8 12.3c.7.7.8 1.9.1 2.7-.4.3-.9.5-1.4.5z"></path>
  </symbol>
  <symbol xmlns="http://www.w3.org/2000/svg" viewBox="0 0 45 45" id="checkmark-red-round">
    <path d="M22.5 0C34.9 0 45 10.1 45 22.5S34.9 45 22.5 45 0 34.9 0 22.5 10.1 0 22.5 0z" fill="#f04141"></path>
    <path d="M16.393 30.775c-.5 0-.9-.2-1.3-.5-.7-.7-.8-1.9-.1-2.7l12.3-12.8c.7-.7 1.9-.8 2.7-.1.7.7.8 1.9.1 2.7l-12.4 12.8c-.3.4-.8.6-1.3.6z"></path>
    <path d="M28.893 30.475c-.5 0-.9-.2-1.3-.5l-12.8-12.3c-.7-.7-.7-1.9 0-2.6.7-.8 1.9-.8 2.6-.1l12.8 12.3c.7.7.8 1.9.1 2.7-.4.3-.9.5-1.4.5z"></path>
  </symbol>
  <symbol xmlns="http://www.w3.org/2000/svg" viewBox="0 0 45 45" id="checkmark-yellow-round">
    <path d="M22.5 0C34.9 0 45 10.1 45 22.5S34.9 45 22.5 45 0 34.9 0 22.5 10.1 0 22.5 0z" fill="#f5ac25"></path>
    <path d="M22.435 23.778c-1 0-1.9-.8-1.9-1.9v-6.3c0-1 .8-1.9 1.9-1.9s1.9.8 1.9 1.9v6.4c-.1 1-.9 1.8-1.9 1.8zm0 6.4c-1 0-1.9-.8-1.9-1.9s.8-1.9 1.9-1.9c1 0 1.9.8 1.9 1.9s-.9 1.9-1.9 1.9z"></path>
  </symbol>
  <symbol xmlns="http://www.w3.org/2000/svg" viewBox="0 0 64 64" id="chrevon-down-green">
    <path d="M32.5 37.1l-11.1-8.5c-.4-.3-.5-1-.2-1.4.3-.4 1-.5 1.4-.2l9.8 7.5 8.9-7.5c.4-.4 1.1-.3 1.4.1.4.4.3 1.1-.1 1.4l-10.1 8.6z" fill="#1c75bc"></path>
  </symbol>
  <symbol xmlns="http://www.w3.org/2000/svg" viewBox="0 0 64 64" id="chrevon-up">
    <path d="M31.5 26.7l11.1 8.5c.4.3.5 1 .2 1.4-.3.4-1 .5-1.4.2l-9.8-7.5-8.9 7.5c-.4.4-1.1.3-1.4-.1-.4-.4-.3-1.1.1-1.4l10.1-8.6z" fill="#1c75bc"></path>
  </symbol>
  <symbol xmlns="http://www.w3.org/2000/svg" viewBox="0 0 30 30" id="close-circle">
    <path d="M22.1 18.8L18.3 15l3.9-3.8c.1-.2.2-.3.2-.5s-.1-.3-.2-.5l-2.3-2.3c-.1-.1-.3-.2-.5-.2s-.4 0-.6.2L15 11.7l-3.8-3.9c-.2-.1-.3-.2-.5-.2s-.3.1-.5.2l-2.3 2.3c-.1.1-.2.3-.2.5s.1.4.2.5l3.9 3.8-3.9 3.8c-.1.2-.2.3-.2.5s.1.3.2.5l2.3 2.3c.1.1.3.2.5.2s.4-.1.5-.2l3.8-3.9 3.8 3.9c.2.1.3.2.5.2s.3-.1.5-.2l2.3-2.3c.1-.1.2-.3.2-.5s-.1-.2-.2-.4zM15 .5c2.6 0 5 .7 7.3 2 2.2 1.3 4 3.1 5.3 5.3s2 4.6 2 7.3-.7 5-2 7.3-3.1 4-5.3 5.3-4.6 2-7.3 2c-2.6 0-5-.7-7.2-2s-4-3.1-5.3-5.3-2-4.6-2-7.3.7-5 2-7.3 3.1-4 5.3-5.3c2.2-1.3 4.6-2 7.2-2z" fill="#fff"></path>
  </symbol>
  <symbol xmlns="http://www.w3.org/2000/svg" viewBox="0 0 64 64" id="wifi">
    <path d="M63.5,21.9c-17.7-16.4-45.3-16.4-63,0c-0.7,0.6-0.7,1.7,0,2.3l3.4,3.4c0.6,0.6,1.6,0.6,2.2,0c14.6-13.4,37.1-13.4,51.7,0
		c0.6,0.6,1.6,0.6,2.2,0l3.4-3.4C64.2,23.5,64.2,22.5,63.5,21.9L63.5,21.9z M32,41.6c-3.5,0-6.4,2.9-6.4,6.4c0,3.5,2.9,6.4,6.4,6.4
		s6.4-2.9,6.4-6.4C38.4,44.5,35.5,41.6,32,41.6z M52.3,33.2c-11.5-10.2-29-10.2-40.5,0c-0.7,0.6-0.7,1.7-0.1,2.3l3.4,3.4
		c0.6,0.6,1.6,0.6,2.2,0.1c8.4-7.3,21-7.2,29.3,0c0.6,0.6,1.6,0.5,2.2-0.1l3.4-3.4C53,34.9,53,33.9,52.3,33.2z"/>
  </symbol>
  <symbol xmlns="http://www.w3.org/2000/svg" viewBox="0 0 64 64" id="no-wifi">
    <path d="M11.7 33.2c-.7.6-.7 1.7-.1 2.3l3.4 3.4c.6.6 1.6.6 2.2.1 1.7-1.4 3.5-2.6 5.4-3.5l10-10c-7.4-.1-14.9 2.5-20.9 7.7z"></path>
    <circle cx="32" cy="48" r="6.4"></circle>
    <path d="M6.1 27.6C15.5 19 28.2 16 39.9 18.4l6.5-6.5C30.9 6.8 13.1 10.2.5 21.9c-.7.6-.7 1.7 0 2.3l3.4 3.4c.6.6 1.6.6 2.2 0zm57.4-5.7c-2.8-2.6-5.9-4.8-9.1-6.6l-6 6c3.4 1.6 6.6 3.7 9.5 6.4.6.6 1.6.6 2.2 0l3.4-3.4c.7-.8.7-1.8 0-2.4zm-21.2 5.5l-6.5 6.5c3.9.7 7.7 2.4 10.9 5.1.6.6 1.6.5 2.2-.1l3.4-3.4c.7-.6.6-1.7-.1-2.3-2.9-2.6-6.3-4.6-9.9-5.8zM7 60c-.8 0-1.5-.3-2.1-.9-1.2-1.2-1.2-3.1 0-4.2l50-50c1.2-1.2 3.1-1.2 4.2 0 1.2 1.2 1.2 3.1 0 4.2l-50 50c-.6.6-1.3.9-2.1.9z"></path>
  </symbol>
</svg>