<?xml version="1.0" encoding="utf-8"?>
<!-- Generator: Adobe Illustrator 24.0.2, SVG Export Plug-In . SVG Version: 6.00 Build 0)  -->
<svg version="1.1" id="Layer_1" xmlns="http://www.w3.org/2000/svg" xmlns:xlink="http://www.w3.org/1999/xlink" x="0px" y="0px"
	 viewBox="0 0 50 50" style="enable-background:new 0 0 50 50;" xml:space="preserve">
<style type="text/css">
	.st0{fill:#FFFFFF;}
</style>
<g>
	<path id="Path_142" class="st0" d="M46,16.7h-8.5V4c0-2.2-1.8-4-4-4c0,0,0,0,0,0H3.9C1.7,0,0,1.8,0,4c0,0,0,0,0,0v25.3
		c0,2.2,1.8,4,4,4c0,0,0,0,0,0c0.9,0,1.8-0.3,2.5-0.9l5.8-4.7c0.1-0.1,0.2-0.1,0.3-0.2v12c0,2.2,1.8,4,4,4c0,0,0,0,0,0h18.8
		c0.9,0,1.8,0.3,2.5,0.9l5.8,4.7c0.7,0.6,1.6,0.9,2.5,0.9c2.2,0,4-1.8,4-4c0,0,0,0,0,0V20.7C50,18.5,48.2,16.7,46,16.7z M12.5,24.7
		c-0.7,0.2-1.3,0.6-1.8,1l-5.8,4.7c-0.3,0.2-0.6,0.3-0.9,0.3c-0.8,0-1.5-0.6-1.5-1.5c0,0,0,0,0,0V4c0-0.8,0.7-1.5,1.5-1.5h29.6
		C34.3,2.5,35,3.2,35,4v18.8c0,0.8-0.7,1.5-1.5,1.5H14.7C13.9,24.3,13.2,24.4,12.5,24.7z M47.5,46c0,0.8-0.7,1.5-1.5,1.5
		c0,0,0,0,0,0c-0.3,0-0.6-0.1-0.9-0.3l-5.8-4.7c-1.2-0.9-2.6-1.5-4.1-1.5H16.4c-0.8,0-1.5-0.7-1.5-1.5V26.8h18.5c2.2,0,4-1.8,4-4
		c0,0,0,0,0,0v-3.5H46c0.8,0,1.5,0.7,1.5,1.5V46z"/>
	<path id="Rectangle_796" class="st0" d="M22.1,34.3h18.3c0.7,0,1.3,0.6,1.3,1.3l0,0c0,0.7-0.6,1.3-1.3,1.3H22.1
		c-0.7,0-1.3-0.6-1.3-1.3l0,0C20.8,34.9,21.4,34.3,22.1,34.3z"/>
	<path id="Rectangle_797" class="st0" d="M22.1,29.3h18.3c0.7,0,1.3,0.6,1.3,1.3l0,0c0,0.7-0.6,1.3-1.3,1.3H22.1
		c-0.7,0-1.3-0.6-1.3-1.3l0,0C20.8,29.8,21.4,29.3,22.1,29.3z"/>
	<ellipse id="Ellipse_7" class="st0" cx="18.7" cy="19.7" rx="1.3" ry="1.3"/>
	<path id="Path_143" class="st0" d="M24.1,10.5c0-2.9-1.9-4.7-5-4.7s-5,1.8-5,4.7c0,0.7,0.6,1.3,1.3,1.3s1.3-0.6,1.3-1.3
		c0-0.9,0.3-2.2,2.5-2.2c2.2,0,2.5,1.2,2.5,2.2c0,0.5,0,2.1-2.9,2.1c-0.7,0-1.3,0.6-1.3,1.3v1.7c0,0.7,0.6,1.3,1.3,1.3
		s1.3-0.6,1.3-1.3V15C22.6,14.6,24.1,12.9,24.1,10.5z"/>
</g>
</svg>
