<?xml version="1.0" encoding="utf-8"?>
<!-- Generator: Adobe Illustrator 24.0.2, SVG Export Plug-In . SVG Version: 6.00 Build 0)  -->
<svg version="1.1" id="Layer_1" xmlns="http://www.w3.org/2000/svg" xmlns:xlink="http://www.w3.org/1999/xlink" x="0px" y="0px"
	 viewBox="0 0 60 60" style="enable-background:new 0 0 60 60;" xml:space="preserve">
<style type="text/css">
	.st0{fill:#333333;}
</style>
<g>
	<path id="Path_142" class="st0" d="M51,21.7h-8.5V9c0-2.2-1.8-4-4-4l0,0H8.9C6.7,5,5,6.8,5,9l0,0v25.3c0,2.2,1.8,4,4,4l0,0
		c0.9,0,1.8-0.3,2.5-0.9l5.8-4.7c0.1-0.1,0.2-0.1,0.3-0.2v12c0,2.2,1.8,4,4,4l0,0h18.8c0.9,0,1.8,0.3,2.5,0.9l5.8,4.7
		c0.7,0.6,1.6,0.9,2.5,0.9c2.2,0,4-1.8,4-4l0,0V25.7C55,23.5,53.2,21.7,51,21.7z M17.5,29.7c-0.7,0.2-1.3,0.6-1.8,1l-5.8,4.7
		c-0.3,0.2-0.6,0.3-0.9,0.3c-0.8,0-1.5-0.6-1.5-1.5l0,0V9c0-0.8,0.7-1.5,1.5-1.5h29.6C39.3,7.5,40,8.2,40,9v18.8
		c0,0.8-0.7,1.5-1.5,1.5H19.7C18.9,29.3,18.2,29.4,17.5,29.7z M52.5,51c0,0.8-0.7,1.5-1.5,1.5l0,0c-0.3,0-0.6-0.1-0.9-0.3l-5.8-4.7
		c-1.2-0.9-2.6-1.5-4.1-1.5H21.4c-0.8,0-1.5-0.7-1.5-1.5V31.8h18.5c2.2,0,4-1.8,4-4l0,0v-3.5H51c0.8,0,1.5,0.7,1.5,1.5V51z"/>
	<path id="Rectangle_796" class="st0" d="M27.1,39.3h18.3c0.7,0,1.3,0.6,1.3,1.3l0,0c0,0.7-0.6,1.3-1.3,1.3H27.1
		c-0.7,0-1.3-0.6-1.3-1.3l0,0C25.8,39.9,26.4,39.3,27.1,39.3z"/>
	<path id="Rectangle_797" class="st0" d="M27.1,34.3h18.3c0.7,0,1.3,0.6,1.3,1.3l0,0c0,0.7-0.6,1.3-1.3,1.3H27.1
		c-0.7,0-1.3-0.6-1.3-1.3l0,0C25.8,34.8,26.4,34.3,27.1,34.3z"/>
	<ellipse id="Ellipse_7" class="st0" cx="23.7" cy="24.7" rx="1.3" ry="1.3"/>
	<path id="Path_143" class="st0" d="M29.1,15.5c0-2.9-1.9-4.7-5-4.7s-5,1.8-5,4.7c0,0.7,0.6,1.3,1.3,1.3c0.7,0,1.3-0.6,1.3-1.3
		c0-0.9,0.3-2.2,2.5-2.2s2.5,1.2,2.5,2.2c0,0.5,0,2.1-2.9,2.1c-0.7,0-1.3,0.6-1.3,1.3v1.7c0,0.7,0.6,1.3,1.3,1.3s1.3-0.6,1.3-1.3V20
		C27.6,19.6,29.1,17.9,29.1,15.5z"/>
</g>
</svg>
