<?xml version="1.0" encoding="utf-8"?>
<!-- Generator: Adobe Illustrator 25.0.0, SVG Export Plug-In . SVG Version: 6.00 Build 0)  -->
<svg version="1.1" id="Layer_1" xmlns="http://www.w3.org/2000/svg" xmlns:xlink="http://www.w3.org/1999/xlink" x="0px" y="0px"
	 viewBox="0 0 50 50" style="enable-background:new 0 0 50 50;" xml:space="preserve">
<style type="text/css">
	.st0{fill:#FFFFFF;}
</style>
<path id="Path_326" class="st0" d="M27.8,2.8l6,12.2l13.5,2c1.7,0.2,2.9,1.8,2.6,3.5c-0.1,0.7-0.4,1.3-0.9,1.8l-9.8,9.5l2.3,13.4
	c0.3,1.7-0.8,3.3-2.5,3.6c-0.7,0.1-1.4,0-2-0.3L25,42.2l-12.1,6.3c-1.5,0.8-3.4,0.2-4.2-1.3c-0.3-0.6-0.4-1.3-0.3-2l2.3-13.4
	l-9.8-9.5c-1.2-1.2-1.3-3.2-0.1-4.4C1.4,17.4,2,17.1,2.7,17l13.5-2l6-12.2c0.8-1.5,2.6-2.2,4.2-1.4C27,1.7,27.5,2.2,27.8,2.8z"/>
</svg>
