<?xml version="1.0" encoding="utf-8"?>
<!-- Generator: Adobe Illustrator 25.0.0, SVG Export Plug-In . SVG Version: 6.00 Build 0)  -->
<svg version="1.1" baseProfile="tiny" id="Layer_1" xmlns="http://www.w3.org/2000/svg" xmlns:xlink="http://www.w3.org/1999/xlink"
	 x="0px" y="0px" viewBox="0 0 29.3 28" overflow="visible" xml:space="preserve">
<g id="Path_324" transform="translate(-97.255 292.691)">
	<path fill="#00A0DF" d="M119.8-265.7c-0.1,0-0.3,0-0.4-0.1l-7.1-3.7l-0.5-0.2l-0.5,0.2l-7.1,3.7c-0.1,0.1-0.3,0.1-0.4,0.1
		c-0.2,0-0.5-0.1-0.6-0.3c-0.1-0.1-0.2-0.3-0.2-0.7l1.3-7.9l0.1-0.5l-0.4-0.4l-5.7-5.6c-0.3-0.3-0.3-0.7-0.2-0.8
		c0-0.1,0.2-0.5,0.7-0.6l7.9-1.1l0.5-0.1l0.2-0.5l3.5-7.2c0.2-0.4,0.6-0.5,0.7-0.5s0.5,0,0.7,0.5l3.5,7.2l0.2,0.5l0.5,0.1l7.9,1.1
		c0.5,0.1,0.6,0.4,0.7,0.6c0,0.1,0.1,0.5-0.2,0.8l-5.7,5.6l-0.4,0.4l0.1,0.5l1.3,7.9c0.1,0.3-0.1,0.5-0.2,0.7
		C120.3-265.8,120-265.7,119.8-265.7z"/>
	<path fill="#00A0DF" d="M111.9-290.5l-3.4,6.8l-0.5,0.9l-1,0.2l-7.5,1.1l5.5,5.3l0.8,0.7l-0.2,1l-1.3,7.5l6.7-3.5l0.9-0.5l0.9,0.5
		l6.7,3.5l-1.3-7.5l-0.2-1l0.8-0.7l5.5-5.3l-7.5-1.1l-1-0.2l-0.5-0.9L111.9-290.5 M111.9-292.7c0.6,0,1.3,0.3,1.6,1l3.5,7.2l7.9,1.1
		c1.5,0.2,2.1,2.1,1,3.1l-5.7,5.6l1.3,7.9c0.2,1.2-0.7,2.1-1.8,2.1c-0.3,0-0.6-0.1-0.8-0.2l-7.1-3.7l-7.1,3.7
		c-0.3,0.1-0.6,0.2-0.8,0.2c-1.1,0-2-1-1.8-2.1l1.3-7.9l-5.7-5.6c-1.1-1.1-0.5-2.9,1-3.1l7.9-1.1l3.5-7.2
		C110.6-292.4,111.2-292.7,111.9-292.7z"/>
</g>
</svg>
