<?xml version="1.0" encoding="utf-8"?>
<!-- Generator: Adobe Illustrator 25.0.0, SVG Export Plug-In . SVG Version: 6.00 Build 0)  -->
<svg version="1.1" id="Layer_1" xmlns="http://www.w3.org/2000/svg" xmlns:xlink="http://www.w3.org/1999/xlink" x="0px" y="0px"
	 viewBox="0 0 50 50" style="enable-background:new 0 0 50 50;" xml:space="preserve">
<style type="text/css">
	.st0{fill:#FFFFFF;}
</style>
<path id="Path_325" class="st0" d="M25,8l4.5,9.2l1.1,2.3l2.5,0.4l10.1,1.5l-7.3,7.2l-1.8,1.8l0.4,2.5l1.7,10.1L27.2,38L25,36.8
	L22.8,38l-9.1,4.8l1.7-10.1l0.4-2.5L14,28.4l-7.3-7.2l10.2-1.5l2.5-0.4l1.1-2.3L25,8 M25,1.1c-1.2,0-2.3,0.7-2.8,1.7l-6,12.2L2.7,17
	C1,17.2-0.2,18.8,0,20.5c0.1,0.7,0.4,1.3,0.9,1.8l9.8,9.5L8.4,45.3c-0.3,1.7,0.8,3.3,2.5,3.6c0.2,0,0.4,0,0.5,0c0.5,0,1-0.1,1.5-0.4
	L25,42.2l12.1,6.3c0.4,0.2,0.9,0.4,1.5,0.4c1.7,0,3.1-1.4,3.1-3.1c0-0.2,0-0.3,0-0.5l-2.3-13.4l9.8-9.5c1.2-1.2,1.3-3.2,0.1-4.4
	c-0.5-0.5-1.1-0.8-1.8-0.9l-13.5-2l-6-12.2C27.3,1.7,26.2,1.1,25,1.1L25,1.1z"/>
</svg>
