<?xml version="1.0" encoding="utf-8"?>
<!-- Generator: Adobe Illustrator 23.1.0, SVG Export Plug-In . SVG Version: 6.00 Build 0)  -->
<svg version="1.1" id="Layer_1" xmlns="http://www.w3.org/2000/svg" xmlns:xlink="http://www.w3.org/1999/xlink" x="0px" y="0px"
	 viewBox="0 0 56 80" style="enable-background:new 0 0 56 80;" xml:space="preserve">
<style type="text/css">
	.st0{fill:#E5E5E5;}
	.st1{fill:#1D75BC;}
</style>
<g id="Group_648" transform="translate(-1745 -629)">
	<path id="Rectangle_1105" class="st0" d="M1795,709h-44c-3.3,0-6-2.7-6-6v-68c0-3.3,2.7-6,6-6h44c3.3,0,6,2.7,6,6v68
		C1801,706.3,1798.3,709,1795,709z"/>
	<path class="st1" d="M1781,647.3c0.4,0,0.9,0.1,1.2,0.4c0.9,0.7,1,1.9,0.4,2.8l-15,19.6l15,17.9c0.7,0.8,0.6,2.1-0.2,2.8
		c-0.8,0.7-2.1,0.6-2.8-0.2l-17-20.3l17-22.2C1779.8,647.6,1780.4,647.3,1781,647.3z"/>
</g>
</svg>
