<?xml version="1.0" encoding="utf-8"?>
<!-- Generator: Adobe Illustrator 23.1.0, SVG Export Plug-In . SVG Version: 6.00 Build 0)  -->
<svg version="1.1" id="Layer_1" xmlns="http://www.w3.org/2000/svg" xmlns:xlink="http://www.w3.org/1999/xlink" x="0px" y="0px"
	 viewBox="0 0 56 80" style="enable-background:new 0 0 56 80;" xml:space="preserve">
<style type="text/css">
	.st0{fill:#E5E5E5;}
	.st1{fill:#1D75BC;}
</style>
	<path id="Rectangle_1105" class="st0" d="M1751,629h44c3.3,0,6,2.7,6,6v68c0,3.3-2.7,6-6,6h-44c-3.3,0-6-2.7-6-6v-68
		C1745,631.7,1747.7,629,1751,629z"/>
	<path class="st1" d="M1765,690.7c-0.4,0-0.9-0.1-1.2-0.4c-0.9-0.7-1-1.9-0.4-2.8l15-19.6l-15-17.9c-0.7-0.8-0.6-2.1,0.2-2.8
		c0.8-0.7,2.1-0.6,2.8,0.2l17,20.3l-17,22.2C1766.2,690.4,1765.6,690.7,1765,690.7z"/>

</svg>
