<?xml version="1.0" encoding="utf-8"?>
<!-- Generator: Adobe Illustrator 24.0.2, SVG Export Plug-In . SVG Version: 6.00 Build 0)  -->
<svg version="1.1" id="Layer_1" xmlns="http://www.w3.org/2000/svg" xmlns:xlink="http://www.w3.org/1999/xlink" x="0px" y="0px"
	 viewBox="0 0 60 60" style="enable-background:new 0 0 60 60;" xml:space="preserve">
<style type="text/css">
	.st0{fill:#333333;}
</style>
<g id="Group_475" transform="translate(890 8)">
	<path id="Path_168" class="st0" d="M-846.7,19.4l-4.9,4.9l-1.6-1.6c-0.5-0.5-1.3-0.5-1.8,0c-0.5,0.5-0.5,1.3,0,1.8l0,0l2.5,2.5
		c0.5,0.5,1.3,0.5,1.8,0c0,0,0,0,0,0l5.8-5.8c0.5-0.5,0.5-1.3,0-1.8C-845.4,19-846.2,19-846.7,19.4z"/>
	<path id="Path_169" class="st0" d="M-871.3,14.5h25c0.7,0,1.3-0.6,1.3-1.3s-0.6-1.3-1.3-1.3h-25c-0.7,0-1.3,0.6-1.3,1.3
		S-871.9,14.5-871.3,14.5z"/>
	<path id="Path_170" class="st0" d="M-871.3,27.8h10c0.7,0,1.3-0.6,1.3-1.3s-0.6-1.3-1.3-1.3h-10c-0.7,0-1.3,0.6-1.3,1.3
		S-871.9,27.8-871.3,27.8z"/>
	<path id="Path_171" class="st0" d="M-871.3,21.2h10c0.7,0,1.3-0.6,1.3-1.3s-0.6-1.3-1.3-1.3h-10c-0.7,0-1.3,0.6-1.3,1.3
		S-871.9,21.2-871.3,21.2z"/>
	<path id="Path_172" class="st0" d="M-857.9,37c-0.7,0-1.3,0.6-1.3,1.3v7.5c0,0.7,0.6,1.3,1.3,1.3s1.3-0.6,1.3-1.3v-7.5
		C-856.7,37.6-857.2,37-857.9,37z"/>
	<path id="Path_173" class="st0" d="M-852,37.4c-0.5-0.5-1.3-0.5-1.8,0s-0.5,1.3,0,1.8l7,7c0.5,0.5,1.3,0.5,1.8-0.1
		c0.5-0.5,0.5-1.2,0-1.7L-852,37.4z"/>
	<path id="Path_174" class="st0" d="M-863.8,37.4l-7,7c-0.5,0.5-0.5,1.3,0.1,1.8c0.5,0.5,1.2,0.5,1.7,0l7-7c0.5-0.5,0.5-1.3,0-1.8
		S-863.3,36.9-863.8,37.4L-863.8,37.4z"/>
	<path id="Path_175" class="st0" d="M-835,2.4c0-3-2.4-5.4-5.4-5.4h-39.2l0,0c-3,0-5.4,2.4-5.4,5.4v22.1c0,1.4,1.1,2.5,2.5,2.5h3.3
		v3.3c0,2.3,1.9,4.2,4.2,4.2h32.5c2.3,0,4.2-1.9,4.2-4.2V7.4C-836.3,6.6-835,4.6-835,2.4z M-879.2,24.5h-2.5c-0.5,0-0.9-0.4-0.9-0.9
		l0,0V2.8l0,0V2.5c0-1.4,0.9-2.6,2.3-2.9c1.6-0.3,3.1,0.7,3.5,2.2c0,0.2,0.1,0.4,0.1,0.6c0,0.8-0.3,1.6-1,2.2
		c-0.9,0.8-1.5,2-1.5,3.2v0l0,0c0,0,0,0,0,0V24.5z M-840.8,30.3c0,0.9-0.7,1.7-1.7,1.7H-875c-0.9,0-1.7-0.7-1.7-1.7V7.8h35.8
		L-840.8,30.3z M-840.4,5.3H-875c0.5-0.8,0.8-1.7,0.9-2.6c0.1-1.1-0.3-2.3-0.9-3.2h34.7c1.6,0,2.9,1.3,3,2.9c0,1.6-1.3,2.9-2.9,3
		C-840.4,5.3-840.4,5.3-840.4,5.3L-840.4,5.3z"/>
</g>
</svg>
