<?xml version="1.0" encoding="utf-8"?>
<!-- Generator: Adobe Illustrator 24.0.2, SVG Export Plug-In . SVG Version: 6.00 Build 0)  -->
<svg version="1.1" id="Layer_1" xmlns="http://www.w3.org/2000/svg" xmlns:xlink="http://www.w3.org/1999/xlink" x="0px" y="0px"
	 viewBox="0 0 50 50" style="enable-background:new 0 0 50 50;" xml:space="preserve">
<style type="text/css">
	.st0{fill:#FFFFFF;}
</style>
<g>
	<path id="Path_168" class="st0" d="M38.3,22.4l-4.9,4.9l-1.6-1.6c-0.5-0.5-1.3-0.5-1.8,0c-0.5,0.5-0.5,1.3,0,1.8l0,0l2.5,2.5
		c0.5,0.5,1.3,0.5,1.8,0c0,0,0,0,0,0l5.8-5.8c0.5-0.5,0.5-1.3,0-1.8C39.6,22,38.8,22,38.3,22.4z"/>
	<path id="Path_169" class="st0" d="M13.8,17.5h25c0.7,0,1.3-0.6,1.3-1.3S39.4,15,38.8,15h-25c-0.7,0-1.3,0.6-1.3,1.3
		S13.1,17.5,13.8,17.5z"/>
	<path id="Path_170" class="st0" d="M13.8,30.8h10c0.7,0,1.3-0.6,1.3-1.3s-0.6-1.3-1.3-1.3h-10c-0.7,0-1.3,0.6-1.3,1.3
		S13.1,30.8,13.8,30.8z"/>
	<path id="Path_171" class="st0" d="M13.8,24.2h10c0.7,0,1.3-0.6,1.3-1.3s-0.6-1.3-1.3-1.3h-10c-0.7,0-1.3,0.6-1.3,1.3
		S13.1,24.2,13.8,24.2z"/>
	<path id="Path_172" class="st0" d="M27.1,40c-0.7,0-1.3,0.6-1.3,1.3v7.5c0,0.7,0.6,1.3,1.3,1.3c0.7,0,1.3-0.6,1.3-1.3v-7.5
		C28.3,40.6,27.8,40,27.1,40z"/>
	<path id="Path_173" class="st0" d="M33,40.4c-0.5-0.5-1.3-0.5-1.8,0s-0.5,1.3,0,1.8l7,7c0.5,0.5,1.3,0.5,1.8-0.1
		c0.5-0.5,0.5-1.2,0-1.7L33,40.4z"/>
	<path id="Path_174" class="st0" d="M21.2,40.4l-7,7c-0.5,0.5-0.5,1.3,0.1,1.8c0.5,0.5,1.2,0.5,1.7,0l7-7c0.5-0.5,0.5-1.3,0-1.8
		C22.5,39.9,21.7,39.9,21.2,40.4L21.2,40.4z"/>
	<path id="Path_175" class="st0" d="M50,5.4c0-3-2.4-5.4-5.4-5.4H5.4l0,0C2.4,0,0,2.4,0,5.4v22.1C0,28.9,1.1,30,2.5,30h3.3v3.3
		c0,2.3,1.9,4.2,4.2,4.2h32.5c2.3,0,4.2-1.9,4.2-4.2V10.4C48.7,9.6,50,7.6,50,5.4z M5.8,27.5H3.4c-0.5,0-0.9-0.4-0.9-0.9l0,0V5.8
		l0,0V5.5c0-1.4,0.9-2.6,2.3-2.9c1.6-0.3,3.1,0.7,3.5,2.2c0,0.2,0.1,0.4,0.1,0.6c0,0.8-0.3,1.6-1,2.2c-0.9,0.8-1.5,2-1.5,3.2v0l0,0
		c0,0,0,0,0,0V27.5z M44.2,33.3c0,0.9-0.7,1.7-1.7,1.7H10c-0.9,0-1.7-0.7-1.7-1.7V10.8h35.8L44.2,33.3z M44.6,8.3H10
		c0.5-0.8,0.8-1.7,0.9-2.6c0.1-1.1-0.3-2.3-0.9-3.2h34.7c1.6,0,2.9,1.3,3,2.9c0,1.6-1.3,2.9-2.9,3C44.6,8.3,44.6,8.3,44.6,8.3
		L44.6,8.3z"/>
</g>
</svg>
