<?xml version="1.0" encoding="utf-8"?>
<!-- Generator: Adobe Illustrator 24.0.2, SVG Export Plug-In . SVG Version: 6.00 Build 0)  -->
<svg version="1.1" id="Layer_1" xmlns="http://www.w3.org/2000/svg" xmlns:xlink="http://www.w3.org/1999/xlink" x="0px" y="0px"
	 viewBox="0 0 30 30" style="enable-background:new 0 0 30 30;" xml:space="preserve">
<style type="text/css">
	.st0{fill:#F37621;}
</style>
<g id="alert-triangle" transform="translate(-0.515 -1.897)">
	<path class="st0" d="M4.1,30c-0.6,0-1.2-0.2-1.8-0.5c-0.8-0.5-1.4-1.3-1.7-2.2c-0.3-0.9-0.1-1.9,0.4-2.8l11.4-19c0,0,0,0,0-0.1
		c0.3-0.5,0.7-0.9,1.2-1.2c1.7-1,3.9-0.5,5,1.2l11.4,19c0.3,0.6,0.5,1.2,0.5,1.8c0,1-0.4,1.9-1,2.6c-0.7,0.7-1.6,1.1-2.6,1.1H4.1z
		 M14,6.5C14,6.5,14,6.5,14,6.5L2.6,25.5c-0.2,0.4-0.3,0.9-0.2,1.3c0.1,0.5,0.4,0.8,0.8,1.1c0.3,0.2,0.6,0.2,0.9,0.2h22.8
		c0.5,0,0.9-0.2,1.2-0.5c0.3-0.3,0.5-0.8,0.5-1.2c0-0.3-0.1-0.6-0.2-0.9L17,6.5c-0.5-0.8-1.6-1.1-2.4-0.6C14.4,6,14.2,6.2,14,6.5z"
		/>
	<path class="st0" d="M15.5,19.2c-0.5,0-0.9-0.4-0.9-0.9v-5.4c0-0.5,0.4-0.9,0.9-0.9c0.5,0,0.9,0.4,0.9,0.9v5.4
		C16.5,18.8,16,19.2,15.5,19.2z"/>
	<path class="st0" d="M15.5,24.6c-0.5,0-0.9-0.4-0.9-0.9s0.4-0.9,0.9-0.9h0c0.5,0,0.9,0.4,0.9,0.9S16,24.6,15.5,24.6z"/>
</g>
</svg>
