<?xml version="1.0" encoding="utf-8"?>
<!-- Generator: Adobe Illustrator 25.2.1, SVG Export Plug-In . SVG Version: 6.00 Build 0)  -->
<svg version="1.1" id="Layer_1" xmlns="http://www.w3.org/2000/svg" xmlns:xlink="http://www.w3.org/1999/xlink" x="0px" y="0px"
	 viewBox="0 0 64 64" style="enable-background:new 0 0 64 64;" xml:space="preserve">
<g>
	<path d="M63.5,21.9c-17.7-16.4-45.3-16.4-63,0c-0.7,0.6-0.7,1.7,0,2.3l3.4,3.4c0.6,0.6,1.6,0.6,2.2,0c14.6-13.4,37.1-13.4,51.7,0
		c0.6,0.6,1.6,0.6,2.2,0l3.4-3.4C64.2,23.5,64.2,22.5,63.5,21.9L63.5,21.9z M32,41.6c-3.5,0-6.4,2.9-6.4,6.4c0,3.5,2.9,6.4,6.4,6.4
		s6.4-2.9,6.4-6.4C38.4,44.5,35.5,41.6,32,41.6z M52.3,33.2c-11.5-10.2-29-10.2-40.5,0c-0.7,0.6-0.7,1.7-0.1,2.3l3.4,3.4
		c0.6,0.6,1.6,0.6,2.2,0.1c8.4-7.3,21-7.2,29.3,0c0.6,0.6,1.6,0.5,2.2-0.1l3.4-3.4C53,34.9,53,33.9,52.3,33.2z"/>
</g>
</svg>
